<svg width="24" height="24" viewBox="0 0 24 24" fill="none" xmlns="http://www.w3.org/2000/svg">
<path d="M12 22.25C6.34614 22.25 1.75 17.6539 1.75 12C1.75 6.34614 6.34614 1.75 12 1.75C17.6539 1.75 22.25 6.34614 22.25 12C22.25 17.6539 17.6539 22.25 12 22.25ZM12 2.25C6.62386 2.25 2.25 6.62386 2.25 12C2.25 17.3761 6.62386 21.75 12 21.75C17.3761 21.75 21.75 17.3761 21.75 12C21.75 6.62386 17.3761 2.25 12 2.25Z" fill="#848484" stroke="#378D91"/>
<path d="M16 12.25H8C7.86614 12.25 7.75 12.1339 7.75 12C7.75 11.8661 7.86614 11.75 8 11.75H16C16.1339 11.75 16.25 11.8661 16.25 12C16.25 12.1339 16.1339 12.25 16 12.25Z" fill="#848484" stroke="#378D91"/>
<path d="M12 16.25C11.8661 16.25 11.75 16.1339 11.75 16V8C11.75 7.86614 11.8661 7.75 12 7.75C12.1339 7.75 12.25 7.86614 12.25 8V16C12.25 16.1339 12.1339 16.25 12 16.25Z" fill="#848484" stroke="#378D91"/>
</svg>
