<svg width="32" height="32" viewBox="0 0 32 32" fill="none" xmlns="http://www.w3.org/2000/svg">
<path d="M16 0.166656C7.27579 0.166656 0.166626 7.27582 0.166626 16C0.166626 24.7242 7.27579 31.8333 16 31.8333C24.7241 31.8333 31.8333 24.7242 31.8333 16C31.8333 7.27582 24.7241 0.166656 16 0.166656ZM18.8341 20.75C19.2933 21.2092 19.2933 21.9692 18.8341 22.4283C18.5966 22.6658 18.2958 22.7767 17.995 22.7767C17.6941 22.7767 17.3933 22.6658 17.1558 22.4283L11.5666 16.8392C11.1075 16.38 11.1075 15.62 11.5666 15.1608L17.1558 9.57166C17.615 9.11249 18.375 9.11249 18.8341 9.57166C19.2933 10.0308 19.2933 10.7908 18.8341 11.25L14.0841 16L18.8341 20.75Z" fill="#292D32"/>
</svg>
