<svg width="20" height="20" viewBox="0 0 20 20" fill="none" xmlns="http://www.w3.org/2000/svg">
<path fill-rule="evenodd" clip-rule="evenodd" d="M15.5617 0H4.44174C1.92064 0.086985 -0.060079 2.18816 0.00174431 4.71V18.44C-0.0240709 18.9013 0.23859 19.3304 0.661181 19.5172C1.08377 19.7041 1.5779 19.6096 1.90174 19.28L4.27174 16.75C4.72329 16.2764 5.34739 16.0058 6.00175 16H15.5217C16.7508 15.9688 17.9163 15.4468 18.758 14.5507C19.5997 13.6545 20.0476 12.4586 20.0017 11.23V4.71C20.0636 2.18816 18.0828 0.086985 15.5617 0ZM6.25174 5.22H11.2517C11.666 5.22 12.0017 5.55579 12.0017 5.97C12.0017 6.38421 11.666 6.72 11.2517 6.72H6.25174C5.83753 6.72 5.50174 6.38421 5.50174 5.97C5.50174 5.55579 5.83753 5.22 6.25174 5.22ZM6.25174 10.72H13.7517C14.166 10.72 14.5017 10.3842 14.5017 9.97C14.5017 9.55579 14.166 9.22 13.7517 9.22H6.25174C5.83753 9.22 5.50174 9.55579 5.50174 9.97C5.50174 10.3842 5.83753 10.72 6.25174 10.72Z" fill="#378D91"/>
</svg>
