<svg width="20" height="20" viewBox="0 0 20 20" fill="none" xmlns="http://www.w3.org/2000/svg">
<path fill-rule="evenodd" clip-rule="evenodd" d="M4.44226 0H15.5623C18.0954 0.0869407 20.0809 2.2066 20.0023 4.74V11.26C20.0399 12.4835 19.5883 13.6716 18.7475 14.5612C17.9067 15.4508 16.746 15.9686 15.5223 16H6.00226C5.34345 16.0136 4.71868 16.2953 4.27226 16.78L1.90226 19.31C1.70147 19.529 1.41933 19.6556 1.12226 19.66C0.815436 19.6522 0.524471 19.522 0.314118 19.2985C0.103766 19.075 -0.00851789 18.7767 0.00225718 18.47V4.74C-0.076375 2.2066 1.90913 0.0869407 4.44226 0ZM15.5623 14.5C17.2672 14.4137 18.5815 12.9653 18.5023 11.26V4.74C18.5815 3.03472 17.2672 1.58627 15.5623 1.5H4.44225C2.73731 1.58627 1.42298 3.03472 1.50225 4.74V17.54L3.13225 15.76C3.87768 14.9671 4.91401 14.5121 6.00225 14.5H15.5623Z" fill="#378D91"/>
<path d="M6.25225 6.75H11.2523C11.6665 6.75 12.0023 6.41421 12.0023 6C12.0023 5.58579 11.6665 5.25 11.2523 5.25H6.25225C5.83804 5.25 5.50225 5.58579 5.50225 6C5.50225 6.41421 5.83804 6.75 6.25225 6.75Z" fill="#378D91"/>
<path d="M13.7523 9.25H6.25225C5.83804 9.25 5.50225 9.58579 5.50225 10C5.50225 10.4142 5.83804 10.75 6.25225 10.75H13.7523C14.1665 10.75 14.5023 10.4142 14.5023 10C14.5023 9.58579 14.1665 9.25 13.7523 9.25Z" fill="#378D91"/>
</svg>
