<svg width="22" height="18" viewBox="0 0 22 18" fill="none" xmlns="http://www.w3.org/2000/svg">
<path d="M7.92009 9H8.00009C10.2092 9 12.0001 7.20914 12.0001 5V3.43C11.9975 2.53274 11.6371 1.67356 10.9989 1.04286C10.3607 0.412161 9.49732 0.0620124 8.60009 0.0700038H7.28009C5.42669 0.0754954 3.92558 1.57661 3.92009 3.43V5C3.92009 7.20914 5.71095 9 7.92009 9Z" fill="#B58E54"/>
<path d="M16.5001 8.25C18.1569 8.25 19.5001 6.90686 19.5001 5.25V4.1C19.5001 2.71602 18.384 1.59099 17.0001 1.58H16.0001C14.6162 1.59099 13.5001 2.71602 13.5001 4.1V5.25C13.5001 6.90686 14.8432 8.25 16.5001 8.25Z" fill="#B58E54"/>
<path d="M21.3901 12.42L21.2301 11.63C21.041 10.5455 20.1009 9.75303 19.0001 9.75H12.9001C12.1546 9.75159 11.4597 10.1272 11.0501 10.75H4.00009C3.29277 10.7505 2.61264 11.0226 2.10009 11.51C1.65972 11.9135 1.34982 12.4393 1.21009 13.02C1.21009 13.07 1.21009 13.12 1.21009 13.16V13.42L1.00009 14.22C0.786202 15.0952 0.977004 16.0202 1.51976 16.7394C2.06252 17.4586 2.89976 17.8957 3.80009 17.93H12.0801C12.2926 17.9293 12.5042 17.9024 12.7101 17.85H12.8401C12.9904 17.8072 13.1374 17.7537 13.2801 17.69L13.4401 17.6C13.5594 17.5326 13.6731 17.4557 13.7801 17.37L13.9401 17.24C14.0384 17.1483 14.1319 17.0515 14.2201 16.95C14.2201 16.9 14.3101 16.86 14.3501 16.8C14.4618 16.6532 14.559 16.4958 14.6401 16.33C14.6827 16.2391 14.7195 16.1456 14.7501 16.05C14.7894 15.9589 14.8228 15.8654 14.8501 15.77C14.8501 15.67 14.9001 15.57 14.9201 15.47V15.32H19.2001C19.9062 15.2991 20.5648 14.9589 20.9905 14.3952C21.4163 13.8314 21.5632 13.1049 21.3901 12.42Z" fill="#B58E54"/>
</svg>
