<svg width="18" height="18" viewBox="0 0 18 18" fill="none" xmlns="http://www.w3.org/2000/svg">
<path fill-rule="evenodd" clip-rule="evenodd" d="M10.9082 10.6667C12.2163 10.6932 13.3246 11.6377 13.5582 12.925L13.7499 13.875C13.9392 14.6949 13.7531 15.5566 13.2423 16.2253C12.7315 16.8941 11.9491 17.3003 11.1082 17.3333H3.36656C2.52453 17.3033 1.74018 16.8978 1.22872 16.2282C0.717261 15.5587 0.532413 14.6953 0.724896 13.875L0.916563 12.925C1.14659 11.639 2.25208 10.6939 3.55823 10.6667H10.9082ZM11.1082 16.0833C11.5293 16.0795 11.9255 15.883 12.1832 15.55C12.5136 15.1512 12.6399 14.6216 12.5249 14.1167L12.3332 13.1667C12.2156 12.463 11.621 11.938 10.9082 11.9083H3.55823C2.84732 11.9387 2.25556 12.4643 2.14156 13.1667L1.99156 14.125C1.87932 14.6273 2.00543 15.1532 2.33323 15.55C2.58185 15.8718 2.96019 16.0671 3.36656 16.0833H11.1082Z" fill="#B58E54"/>
<path fill-rule="evenodd" clip-rule="evenodd" d="M7.6499 9H6.81656C4.97561 9 3.48323 7.50761 3.48323 5.66666V3.46666C3.48323 1.92026 4.73683 0.666662 6.28323 0.666662H8.16656C8.91273 0.659976 9.63051 0.95229 10.1597 1.47836C10.6889 2.00443 10.9855 2.72047 10.9832 3.46666V5.66666C10.9832 7.50761 9.49084 9 7.6499 9ZM6.28323 1.91666C5.42719 1.91666 4.73323 2.61062 4.73323 3.46666V5.66666C4.7377 6.80892 5.65771 7.73635 6.7999 7.74999H7.63323C8.18576 7.74999 8.71567 7.5305 9.10637 7.1398C9.49707 6.7491 9.71656 6.2192 9.71656 5.66666V3.46666C9.71656 2.61062 9.0226 1.91666 8.16656 1.91666H6.28323Z" fill="#B58E54"/>
<path d="M16.8166 4.20833H15.6666V3.06666C15.6666 2.72148 15.3867 2.44166 15.0416 2.44166C14.6964 2.44166 14.4166 2.72148 14.4166 3.06666V4.20833H13.2832C12.938 4.20833 12.6582 4.48815 12.6582 4.83333C12.6582 5.17851 12.938 5.45833 13.2832 5.45833H14.4249V6.6C14.4249 6.94517 14.7047 7.225 15.0499 7.225C15.3951 7.225 15.6749 6.94517 15.6749 6.6V5.45833H16.8166C17.1617 5.45833 17.4416 5.17851 17.4416 4.83333C17.4416 4.48815 17.1617 4.20833 16.8166 4.20833Z" fill="#B58E54"/>
</svg>
