<svg width="53" height="53" viewBox="0 0 53 53" fill="none" xmlns="http://www.w3.org/2000/svg">
<circle cx="26.5" cy="26.5" r="26.5" fill="#378D91"/>
<path fill-rule="evenodd" clip-rule="evenodd" d="M34.0001 20C34.77 19.9839 35.5145 20.2758 36.0684 20.8109C36.6222 21.346 36.9396 22.08 36.9501 22.85V31.17C36.9343 31.9365 36.6147 32.6654 36.0614 33.1961C35.5081 33.7269 34.7666 34.0161 34.0001 34H26.0001C25.6641 34.8497 24.8438 35.4085 23.9301 35.41H22.0901C21.1708 35.4111 20.3433 34.8528 20.0001 34C18.4134 34.0111 17.1166 32.7367 17.1001 31.15V22.85C17.1166 21.2633 18.4134 19.9889 20.0001 20C20.3449 19.1706 21.1519 18.6274 22.0501 18.62H23.9301C24.8445 18.6056 25.6742 19.1534 26.0201 20H34.0001ZM18.6001 22.85V31.15C18.6244 31.822 19.1328 32.377 19.8001 32.46V21.54C19.1328 21.623 18.6244 22.178 18.6001 22.85ZM24.6801 33.15C24.6801 33.5642 24.3443 33.9 23.9301 33.9H22.0501C21.8504 33.9027 21.658 33.8246 21.5168 33.6833C21.3755 33.5421 21.2974 33.3497 21.3001 33.15V20.87C21.2974 20.6703 21.3755 20.4779 21.5168 20.3367C21.658 20.1954 21.8504 20.1173 22.0501 20.12H23.9301C24.3443 20.12 24.6801 20.4558 24.6801 20.87V33.15ZM34.0001 32.48C34.7488 32.4861 35.3678 31.898 35.4001 31.15V22.85C35.3891 22.0862 34.7639 21.4744 34.0001 21.48H26.1801V32.48H34.0001Z" fill="white"/>
<path d="M33.8401 23.13H27.4901C27.0759 23.13 26.7401 23.4658 26.7401 23.88C26.7401 24.2942 27.0759 24.63 27.4901 24.63H33.8401C34.2543 24.63 34.5901 24.2942 34.5901 23.88C34.5901 23.4658 34.2543 23.13 33.8401 23.13Z" fill="white"/>
<path d="M28.6901 27C28.6901 27.3811 28.3812 27.69 28.0001 27.69C27.619 27.69 27.3101 27.3811 27.3101 27C27.3101 26.6189 27.619 26.31 28.0001 26.31C28.3812 26.31 28.6901 26.6189 28.6901 27Z" fill="white"/>
<path d="M28.6901 30.12C28.6901 30.5011 28.3812 30.81 28.0001 30.81C27.619 30.81 27.3101 30.5011 27.3101 30.12C27.3101 29.7389 27.619 29.43 28.0001 29.43C28.3812 29.43 28.6901 29.7389 28.6901 30.12Z" fill="white"/>
<path d="M30.6601 26.31C30.2804 26.3155 29.9765 26.6268 29.9801 27.0066C29.9838 27.3863 30.2936 27.6917 30.6734 27.6899C31.0531 27.6881 31.3601 27.3798 31.3601 27C31.3601 26.8153 31.286 26.6382 31.1545 26.5085C31.0229 26.3788 30.8448 26.3073 30.6601 26.31Z" fill="white"/>
<path d="M30.6601 29.42C30.377 29.42 30.1217 29.5905 30.0134 29.8521C29.905 30.1137 29.9649 30.4148 30.1651 30.615C30.3653 30.8152 30.6664 30.8751 30.928 30.7667C31.1895 30.6584 31.3601 30.4031 31.3601 30.12C31.3628 29.9335 31.2899 29.7539 31.1581 29.622C31.0262 29.4901 30.8466 29.4173 30.6601 29.42Z" fill="white"/>
<path d="M33.3301 26.31C33.0493 26.3019 32.7917 26.4647 32.6785 26.7218C32.5654 26.9789 32.6194 27.2789 32.8151 27.4804C33.0107 27.6819 33.309 27.7447 33.5693 27.6392C33.8296 27.5336 34 27.2809 34.0001 27C34.0003 26.6266 33.7033 26.3208 33.3301 26.31Z" fill="white"/>
<path d="M33.3301 29.42C33.0461 29.4159 32.7878 29.5839 32.6763 29.8451C32.5648 30.1063 32.6222 30.409 32.8216 30.6113C33.021 30.8136 33.3228 30.8753 33.5856 30.7676C33.8484 30.6599 34.0201 30.404 34.0201 30.12C34.0228 29.9353 33.9513 29.7572 33.8216 29.6256C33.6919 29.494 33.5148 29.42 33.3301 29.42Z" fill="white"/>
</svg>
