<svg width="36" height="36" viewBox="0 0 36 36" fill="none" xmlns="http://www.w3.org/2000/svg">
<circle cx="18" cy="18" r="17.5" fill="#EA3736" fill-opacity="0.1" stroke="#EA3736"/>
<path d="M25.4145 15.4742C25.4462 15.0612 25.1372 14.7006 24.7242 14.6689C24.3112 14.6371 23.9506 14.9462 23.9189 15.3591L25.4145 15.4742ZM24.0104 23.9479L24.7582 24.0054L24.0104 23.9479ZM12.4896 23.9479L11.7418 24.0054L12.4896 23.9479ZM12.5811 15.3591C12.5494 14.9462 12.1888 14.6371 11.7758 14.6689C11.3628 14.7006 11.0538 15.0612 11.0855 15.4742L12.5811 15.3591ZM26.1714 14.2575C26.5438 14.439 26.9928 14.2842 27.1742 13.9119C27.3557 13.5395 27.2009 13.0906 26.8286 12.9091L26.1714 14.2575ZM9.67145 12.9091C9.29909 13.0906 9.14434 13.5395 9.3258 13.9119C9.50725 14.2842 9.9562 14.439 10.3286 14.2575L9.67145 12.9091ZM15.6667 11.75C15.6667 12.1642 16.0025 12.5 16.4167 12.5C16.8309 12.5 17.1667 12.1642 17.1667 11.75H15.6667ZM19.3333 11.75C19.3333 12.1642 19.6691 12.5 20.0833 12.5C20.4975 12.5 20.8333 12.1642 20.8333 11.75H19.3333ZM17.1667 17.25C17.1667 16.8358 16.8309 16.5 16.4167 16.5C16.0025 16.5 15.6667 16.8358 15.6667 17.25H17.1667ZM15.6667 22.75C15.6667 23.1642 16.0025 23.5 16.4167 23.5C16.8309 23.5 17.1667 23.1642 17.1667 22.75H15.6667ZM20.8333 17.25C20.8333 16.8358 20.4975 16.5 20.0833 16.5C19.6691 16.5 19.3333 16.8358 19.3333 17.25H20.8333ZM19.3333 22.75C19.3333 23.1642 19.6691 23.5 20.0833 23.5C20.4975 23.5 20.8333 23.1642 20.8333 22.75H19.3333ZM23.9189 15.3591L23.2626 23.8904L24.7582 24.0054L25.4145 15.4742L23.9189 15.3591ZM20.3546 26.5833H16.1454V28.0833H20.3546V26.5833ZM13.2374 23.8904L12.5811 15.3591L11.0855 15.4742L11.7418 24.0054L13.2374 23.8904ZM16.1454 26.5833C14.6214 26.5833 13.3543 25.4099 13.2374 23.8904L11.7418 24.0054C11.9188 26.3065 13.8376 28.0833 16.1454 28.0833V26.5833ZM23.2626 23.8904C23.1457 25.4099 21.8786 26.5833 20.3546 26.5833V28.0833C22.6624 28.0833 24.5812 26.3065 24.7582 24.0054L23.2626 23.8904ZM18.25 12.5C21.1781 12.5 23.8963 13.1488 26.1714 14.2575L26.8286 12.9091C24.3409 11.6968 21.3969 11 18.25 11V12.5ZM10.3286 14.2575C12.6037 13.1488 15.3219 12.5 18.25 12.5V11C15.1031 11 12.1591 11.6968 9.67145 12.9091L10.3286 14.2575ZM17.1667 11.75V10.8333H15.6667V11.75H17.1667ZM19.3333 10.8333V11.75H20.8333V10.8333H19.3333ZM18.25 9.75C18.8483 9.75 19.3333 10.235 19.3333 10.8333H20.8333C20.8333 9.4066 19.6767 8.25 18.25 8.25V9.75ZM17.1667 10.8333C17.1667 10.235 17.6517 9.75 18.25 9.75V8.25C16.8233 8.25 15.6667 9.4066 15.6667 10.8333H17.1667ZM15.6667 17.25V22.75H17.1667V17.25H15.6667ZM19.3333 17.25V22.75H20.8333V17.25H19.3333Z" fill="#EA3736"/>
</svg>
