<svg width="10" height="10" viewBox="0 0 10 10" fill="none" xmlns="http://www.w3.org/2000/svg">
<path d="M1.63064 9.71771C1.18731 9.71771 0.76731 9.55435 0.463977 9.25102C0.10231 8.88935 -0.0610291 8.36437 0.0206376 7.81604L0.242307 6.24107C0.30064 5.83273 0.545652 5.35438 0.837318 5.05104L4.96729 0.921071C6.62396 -0.735596 8.08233 0.209404 8.79399 0.921071C9.40066 1.52774 9.71563 2.18102 9.71563 2.83435C9.71563 3.49935 9.41233 4.11769 8.79399 4.73602L4.66395 8.86607C4.37228 9.15773 3.88233 9.40275 3.474 9.46108L1.89895 9.68268C1.80562 9.70601 1.72398 9.71771 1.63064 9.71771ZM6.86896 1.74936C6.65896 1.74936 6.47229 1.8894 6.20396 2.15773L2.07398 6.28771C2.03898 6.32271 1.98063 6.43935 1.98063 6.48602L1.77064 7.94436L3.22897 7.73436C3.27564 7.7227 3.39228 7.6644 3.42728 7.6294L7.55733 3.49936C7.744 3.31269 7.96563 3.04435 7.96563 2.83435C7.96563 2.65935 7.82566 2.4144 7.55733 2.15773C7.27733 1.87773 7.0673 1.74936 6.86896 1.74936Z" fill="#292D32"/>
<path d="M7.58069 5.59934C7.49902 5.59934 7.41734 5.58772 7.34734 5.56438C5.80734 5.13272 4.58235 3.90773 4.15069 2.36773C4.02235 1.90106 4.29071 1.42275 4.75737 1.29441C5.22404 1.16608 5.70235 1.43436 5.83069 1.90103C6.09902 2.8577 6.85737 3.61605 7.81404 3.88438C8.2807 4.01271 8.54906 4.50269 8.42072 4.95769C8.31572 5.34269 7.96569 5.59934 7.58069 5.59934Z" fill="#292D32"/>
</svg>
