<svg width="22" height="22" viewBox="0 0 22 22" fill="none" xmlns="http://www.w3.org/2000/svg">
<circle cx="11" cy="11" r="10.5" fill="#B58E54" fill-opacity="0.07" stroke="#B58E54"/>
<path d="M7.63064 15.7177C7.18731 15.7177 6.76731 15.5543 6.46398 15.251C6.10231 14.8893 5.93897 14.3644 6.02064 13.816L6.24231 12.2411C6.30064 11.8327 6.54565 11.3544 6.83732 11.051L10.9673 6.92107C12.624 5.2644 14.0823 6.2094 14.794 6.92107C15.4007 7.52774 15.7156 8.18102 15.7156 8.83435C15.7156 9.49935 15.4123 10.1177 14.794 10.736L10.6639 14.8661C10.3723 15.1577 9.88233 15.4027 9.474 15.4611L7.89895 15.6827C7.80562 15.706 7.72398 15.7177 7.63064 15.7177ZM12.869 7.74936C12.659 7.74936 12.4723 7.8894 12.204 8.15773L8.07398 12.2877C8.03898 12.3227 7.98063 12.4394 7.98063 12.486L7.77064 13.9444L9.22897 13.7344C9.27564 13.7227 9.39228 13.6644 9.42728 13.6294L13.5573 9.49936C13.744 9.31269 13.9656 9.04435 13.9656 8.83435C13.9656 8.65935 13.8257 8.4144 13.5573 8.15773C13.2773 7.87773 13.0673 7.74936 12.869 7.74936Z" fill="#B58E54"/>
<path d="M13.5812 11.5993C13.4995 11.5993 13.4178 11.5877 13.3478 11.5644C11.8078 11.1327 10.5828 9.90773 10.1512 8.36773C10.0228 7.90106 10.2912 7.42275 10.7579 7.29441C11.2245 7.16608 11.7028 7.43436 11.8312 7.90103C12.0995 8.8577 12.8579 9.61605 13.8145 9.88438C14.2812 10.0127 14.5495 10.5027 14.4212 10.9577C14.3162 11.3427 13.9662 11.5993 13.5812 11.5993Z" fill="#B58E54"/>
</svg>
