<svg width="53" height="53" viewBox="0 0 53 53" fill="none" xmlns="http://www.w3.org/2000/svg">
<circle cx="26.5" cy="26.5" r="26.5" fill="#378D91"/>
<path fill-rule="evenodd" clip-rule="evenodd" d="M33 19H21C18.7909 19 17 20.7909 17 23V32C17 34.2091 18.7909 36 21 36H33C35.2091 36 37 34.2091 37 32V23C37 20.7909 35.2091 19 33 19ZM21 20.59H33C34.0657 20.592 35.0025 21.2966 35.3 22.32L27.76 27.91C27.5534 28.112 27.2732 28.221 26.9843 28.2115C26.6955 28.2021 26.423 28.0751 26.23 27.86L18.72 22.33C19.0118 21.3097 19.9389 20.6022 21 20.59ZM18.59 32C18.59 33.331 19.669 34.41 21 34.41H33C34.3271 34.4045 35.4 33.3271 35.4 32V23.97L28.6 28.97C28.1654 29.3746 27.5938 29.5997 27 29.6C26.3827 29.5902 25.7911 29.3514 25.34 28.93L18.59 23.93V32Z" fill="white"/>
</svg>
