<svg width="53" height="53" viewBox="0 0 53 53" fill="none" xmlns="http://www.w3.org/2000/svg">
<circle cx="26.5" cy="26.5" r="26.5" fill="#378D91"/>
<path d="M32 36.75H22C17.59 36.75 16.25 35.41 16.25 31V23C16.25 18.59 17.59 17.25 22 17.25H32C36.41 17.25 37.75 18.59 37.75 23V31C37.75 35.41 36.41 36.75 32 36.75ZM22 18.75C18.42 18.75 17.75 19.43 17.75 23V31C17.75 34.57 18.42 35.25 22 35.25H32C35.58 35.25 36.25 34.57 36.25 31V23C36.25 19.43 35.58 18.75 32 18.75H22Z" fill="white"/>
<path d="M34 23.75H29C28.59 23.75 28.25 23.41 28.25 23C28.25 22.59 28.59 22.25 29 22.25H34C34.41 22.25 34.75 22.59 34.75 23C34.75 23.41 34.41 23.75 34 23.75Z" fill="white"/>
<path d="M34 27.75H30C29.59 27.75 29.25 27.41 29.25 27C29.25 26.59 29.59 26.25 30 26.25H34C34.41 26.25 34.75 26.59 34.75 27C34.75 27.41 34.41 27.75 34 27.75Z" fill="white"/>
<path d="M34 31.75H32C31.59 31.75 31.25 31.41 31.25 31C31.25 30.59 31.59 30.25 32 30.25H34C34.41 30.25 34.75 30.59 34.75 31C34.75 31.41 34.41 31.75 34 31.75Z" fill="white"/>
<path d="M23.4999 27.04C22.0899 27.04 20.9399 25.89 20.9399 24.48C20.9399 23.07 22.0899 21.92 23.4999 21.92C24.9099 21.92 26.0599 23.07 26.0599 24.48C26.0599 25.89 24.9099 27.04 23.4999 27.04ZM23.4999 23.42C22.9199 23.42 22.4399 23.9 22.4399 24.48C22.4399 25.06 22.9199 25.54 23.4999 25.54C24.0799 25.54 24.5599 25.06 24.5599 24.48C24.5599 23.9 24.0799 23.42 23.4999 23.42Z" fill="white"/>
<path d="M26.9999 32.08C26.6199 32.08 26.2899 31.79 26.2499 31.4C26.1399 30.32 25.2699 29.45 24.1799 29.35C23.7199 29.31 23.2599 29.31 22.7999 29.35C21.7099 29.45 20.8399 30.31 20.7299 31.4C20.6899 31.81 20.3199 32.12 19.9099 32.07C19.4999 32.03 19.1999 31.66 19.2399 31.25C19.4199 29.45 20.8499 28.02 22.6599 27.86C23.2099 27.81 23.7699 27.81 24.3199 27.86C26.1199 28.03 27.5599 29.46 27.7399 31.25C27.7799 31.66 27.4799 32.03 27.0699 32.07C27.0499 32.08 27.0199 32.08 26.9999 32.08Z" fill="white"/>
</svg>
