<svg width="18" height="17" viewBox="0 0 18 17" fill="none" xmlns="http://www.w3.org/2000/svg">
<path d="M6.77 1.71026H0.770001C0.355787 1.71026 0.0200007 2.04605 0.0200007 2.46026C0.0200007 2.87448 0.355787 3.21026 0.770001 3.21026H6.77C7.18421 3.21026 7.52 2.87448 7.52 2.46026C7.52 2.04605 7.18421 1.71026 6.77 1.71026Z" fill="black"/>
<path fill-rule="evenodd" clip-rule="evenodd" d="M2.68 9.10026H0.770001C0.355787 9.10026 0.0200007 8.76448 0.0200007 8.35026C0.0200007 7.93605 0.355787 7.60026 0.770001 7.60026H2.68C3.04483 6.5787 4.09184 5.96785 5.16068 6.15298C6.22952 6.33811 7.0101 7.26551 7.0101 8.35026C7.0101 9.43502 6.22952 10.3624 5.16068 10.5475C4.09184 10.7327 3.04483 10.1218 2.68 9.10026ZM4.77 9.08026C5.17317 9.08026 5.5 8.75343 5.5 8.35026C5.5 7.9471 5.17317 7.62026 4.77 7.62026C4.57639 7.62026 4.39072 7.69717 4.25381 7.83408C4.11691 7.97098 4.04 8.15666 4.04 8.35026C4.04 8.75343 4.36683 9.08026 4.77 9.08026Z" fill="black"/>
<path fill-rule="evenodd" clip-rule="evenodd" d="M12.49 3.17026C12.1484 3.97715 11.366 4.50922 10.49 4.53026V4.46026C9.33038 4.4647 8.36088 3.57964 8.25993 2.42442C8.15897 1.26919 8.96026 0.229385 10.1031 0.0326173C11.2459 -0.16415 12.3488 0.547797 12.64 1.67026C12.6831 1.66461 12.7268 1.66461 12.77 1.67026H16.72C17.1342 1.67026 17.47 2.00605 17.47 2.42026C17.47 2.83448 17.1342 3.17026 16.72 3.17026H12.72C12.6436 3.17978 12.5664 3.17978 12.49 3.17026ZM11.2237 2.22723C11.2059 1.83559 10.882 1.52789 10.49 1.53026V1.57026C10.2891 1.57254 10.0981 1.65748 9.96187 1.80507C9.82563 1.95267 9.75623 2.14987 9.77 2.35026C9.81834 2.73931 10.1653 3.02071 10.556 2.98765C10.9466 2.95459 11.2414 2.61887 11.2237 2.22723Z" fill="black"/>
<path d="M6.77 13.8103H0.77C0.344741 13.8103 0 14.155 0 14.5803C0 15.0055 0.344741 15.3503 0.77 15.3503H6.77C7.18421 15.3503 7.52 15.0145 7.52 14.6003C7.52 14.1861 7.18421 13.8503 6.77 13.8503V13.8103Z" fill="black"/>
<path fill-rule="evenodd" clip-rule="evenodd" d="M12.9 13.8103H16.77V13.8503C17.1842 13.8503 17.52 14.1861 17.52 14.6003C17.52 15.0145 17.1842 15.3503 16.77 15.3503H12.77C12.3125 16.3227 11.2242 16.8278 10.1862 16.5495C9.14826 16.2711 8.45867 15.2893 8.54907 14.2185C8.63946 13.1476 9.48388 12.2953 10.5538 12.1949C11.6238 12.0945 12.612 12.7749 12.9 13.8103ZM10.0885 14.6866C10.2046 14.9591 10.4739 15.1343 10.77 15.1303C11.1693 15.1248 11.49 14.7996 11.49 14.4003C11.49 14.1041 11.311 13.8373 11.037 13.7249C10.763 13.6125 10.4482 13.6769 10.2403 13.8877C10.0323 14.0986 9.97234 14.4142 10.0885 14.6866Z" fill="black"/>
<path d="M16.77 7.60026H8.77C8.35579 7.60026 8.02 7.93605 8.02 8.35026C8.02 8.76448 8.35579 9.10026 8.77 9.10026H16.77C17.1842 9.10026 17.52 8.76448 17.52 8.35026C17.52 7.93605 17.1842 7.60026 16.77 7.60026Z" fill="black"/>
</svg>
