<svg width="101" height="91" viewBox="0 0 101 91" fill="none" xmlns="http://www.w3.org/2000/svg">
<path fill-rule="evenodd" clip-rule="evenodd" d="M74.4176 7.8977C67.5966 3.30948 60.1867 0.720936 52.0899 0.119805C42.1283 -0.616274 31.9581 2.05815 23.5423 7.62782C20.8678 9.40668 18.8559 11.0628 16.3778 13.541C12.6238 17.295 9.96161 20.9631 7.69203 25.5023C6.98048 26.9131 6.02358 29.1091 6.02358 29.3053C6.02358 29.4035 7.48347 29.4403 10.5995 29.4403H15.1632L15.7153 28.238C19.1626 20.7914 25.5419 13.9336 32.8659 9.81151C42.8153 4.21731 54.4821 2.95371 65.511 6.26607C69.3632 7.41926 73.6447 9.50482 77.0307 11.8603C79.1776 13.357 80.662 14.6206 82.8211 16.792C86.2439 20.227 88.4767 23.3186 90.5745 27.5019C91.3719 29.1091 91.6909 29.3299 91.0284 27.8209C87.6057 19.9817 81.5207 12.6822 74.4176 7.8977ZM72.4547 12.3633C67.8665 9.75018 62.395 8.03265 56.948 7.48059C55.4636 7.33338 50.7158 7.34565 49.2069 7.49287C43.4041 8.094 37.6259 10.0937 32.596 13.2466C27.5784 16.3872 23.1988 20.7914 20.1195 25.8212C19.4079 26.9744 18.1689 29.2317 18.1689 29.3667C18.1689 29.6366 18.4633 29.3176 18.8559 28.6183C21.9842 23.0119 27.1122 18.0679 32.9886 14.9886C41.5026 10.5231 51.5746 9.73791 60.8247 12.8294C68.6271 15.4425 75.3254 20.8527 79.6437 28.0172L80.4534 29.3789L84.3424 29.4157C87.0781 29.4403 88.2191 29.4035 88.2191 29.3053C88.2191 29.0845 86.9309 26.7168 86.0108 25.2692C82.723 20.0553 77.8772 15.4548 72.4547 12.3633ZM27.7134 36.5803C28.9156 34.9854 29.9461 33.5991 29.9952 33.5133C30.1424 33.2679 8.30543 33.317 6.88234 33.5746C4.40421 34.0163 2.06102 35.3903 1.00598 37.0342C0.306701 38.1138 0.098148 38.9234 0.098148 40.4201C0.098148 41.9168 0.306701 42.7265 1.00598 43.8061C1.69298 44.8857 3.27555 46.1002 4.66184 46.6277L4.8058 46.6817L4.80595 46.6817C5.22354 46.8384 5.54891 46.9604 5.88181 47.0563C7.05626 47.3947 8.32441 47.4078 14.0655 47.4673H14.0658L14.7338 47.4742L15.15 47.4786C22.9164 47.5599 22.9168 47.5599 23.6281 48.2471C24.5114 49.0813 24.1434 49.9892 22.7203 50.5658L22.0333 50.8479L13.274 50.9093L4.51462 50.9706L2.25731 53.9517L0 56.9328L11.6914 56.896L11.7016 56.896C23.3583 56.8592 23.3831 56.8591 24.3642 56.5771C26.9773 55.8533 29.1855 54.2216 30.1792 52.2955C30.8662 50.9215 31.0012 48.333 30.4491 46.7995C29.4309 43.9533 26.462 41.9414 22.5854 41.4629C21.9965 41.3893 18.8314 41.3402 15.2 41.3402C11.4828 41.3402 8.73481 41.2912 8.55079 41.2176C8.14594 41.0703 7.94965 40.6778 8.0478 40.2238L8.05787 40.1764C8.07778 40.0818 8.0949 40.0004 8.13296 39.9304C8.36705 39.4998 9.3932 39.4999 16.731 39.5L17.1752 39.5H25.5297L27.7134 36.5803ZM62.2723 37.4758C60.8369 35.4516 58.3833 34.1512 54.9238 33.5501C54.0159 33.4028 52.4702 33.366 45.7841 33.366L37.7363 33.3783L35.4913 36.249C34.2645 37.8193 33.2217 39.2056 33.1849 39.3037C33.1113 39.4878 34.0805 39.5 43.4287 39.5C52.556 39.5 53.8074 39.5246 54.3226 39.6963C55.0955 39.954 55.4635 40.2975 55.4635 40.7882C55.4635 41.3402 55.1814 41.6592 54.4208 41.9414C53.7461 42.199 53.5498 42.199 43.3805 42.199H43.3796H33.0131V49.5598V56.9328L43.8458 56.8838C54.384 56.847 54.6907 56.8347 55.7702 56.5771C57.0829 56.2704 58.3956 55.8287 59.144 55.4484C60.8369 54.5897 62.2355 53.2279 62.9225 51.8048C63.8794 49.7806 63.4745 47.4006 61.8797 45.7322L61.4381 45.2783L61.9288 44.7262C63.0084 43.4994 63.5113 42.0518 63.4009 40.4937C63.3273 39.3405 63.0206 38.5063 62.2723 37.4758ZM97.1502 37.2182C95.2609 35.3903 93.2735 34.372 90.2801 33.7095C89.225 33.4765 88.7098 33.4519 83.5572 33.4274L83.5444 33.4273C78.9601 33.3987 77.9666 33.3925 76.9935 33.53C76.7242 33.5681 76.4566 33.6171 76.1149 33.6797L76.086 33.685C71.9149 34.4456 68.4553 36.8256 66.8973 40.0153C65.9895 41.8678 65.83 42.6038 65.83 44.9593C65.83 47.0694 65.9527 47.7564 66.5906 49.3144C67.7806 52.2097 70.5654 54.7982 73.706 55.9391C76.221 56.847 76.3191 56.8592 83.0052 56.8592C88.3663 56.8592 89.1269 56.8347 90.0347 56.6384C95.2486 55.4852 99.0149 52.0625 100.07 47.511C100.377 46.1984 100.377 43.7202 100.07 42.383C99.6037 40.3343 98.6714 38.6781 97.1502 37.2182ZM18.8559 67.5078C17.6168 65.6676 16.4023 63.5575 15.6417 61.9014L15.1632 60.8463H10.5995C7.48347 60.8463 6.02358 60.8831 6.02358 60.9813C6.02358 61.1776 6.98048 63.3735 7.69203 64.7843C9.12738 67.6673 10.8449 70.354 12.9427 72.9916C14.513 74.9668 18.1689 78.6226 20.1686 80.2175C27.5416 86.0693 36.35 89.5043 45.6492 90.1668C52.8014 90.6698 59.9046 89.4921 66.5047 86.7072C76.8835 82.3276 85.5324 74.0221 90.4396 63.7293C91.3351 61.8523 91.4823 61.4597 91.3106 61.4597C91.2493 61.4597 91.0775 61.7542 90.9057 62.0977C89.9734 64.1587 88.1455 67.1889 86.5874 69.2499C83.4223 73.4455 79.0917 77.3222 74.6261 79.9721C65.4251 85.4314 54.6907 87.1489 44.177 84.8302C33.9578 82.5729 24.8427 76.3408 18.8559 67.5078ZM31.1607 74.2675C26.0817 71.2128 21.6407 66.6491 18.8559 61.6683C18.5983 61.2144 18.3406 60.8463 18.2793 60.8463C18.0953 60.8463 18.1321 60.9445 18.8682 62.3062C24.5605 72.9794 34.8901 80.4383 46.6919 82.4257C48.9615 82.806 50.4827 82.9287 53.194 82.9287C56.8376 82.9287 59.4261 82.6097 62.8243 81.7632C69.4859 80.0948 75.3009 76.8438 80.2694 72.0225C82.7598 69.6057 84.3915 67.606 86.0599 64.9316C87.0413 63.349 88.2191 61.2021 88.2191 60.9813C88.2191 60.8831 87.0781 60.8463 84.3424 60.8709L80.4534 60.9077L79.6437 62.2694C75.3254 69.4462 68.6271 74.8441 60.8247 77.4572C50.8876 80.7818 39.9814 79.6041 31.1607 74.2675ZM40.1286 49.5598V50.7866H47.0723C54.4944 50.7866 55.2795 50.7375 56.0156 50.1609C56.629 49.6702 56.2732 48.9464 55.2795 48.6888C54.1754 48.3821 53.0222 48.333 46.7288 48.333H40.1286V49.5598ZM74.6016 41.2912C75.4481 40.5183 76.3682 40.0398 77.595 39.7332C78.834 39.4264 86.8696 39.4019 88.3172 39.6963C90.3169 40.1012 91.924 41.2789 92.7214 42.9106C93.1753 43.8307 93.1876 43.8675 93.1876 45.266C93.1876 46.6155 93.163 46.7259 92.795 47.4742C92.0589 48.9709 90.5009 50.1487 88.6362 50.6271C87.9001 50.8234 87.1763 50.8479 83.0051 50.8479C78.7359 50.8479 78.1348 50.8234 77.4232 50.6271C75.5217 50.0873 74.0005 48.9219 73.3257 47.4865C73.019 46.8118 72.9454 46.4805 72.9086 45.5604C72.8227 43.6957 73.3012 42.5057 74.6016 41.2912Z" fill="black"/>
</svg>
