<svg width="53" height="53" viewBox="0 0 53 53" fill="none" xmlns="http://www.w3.org/2000/svg">
<circle cx="26.5" cy="26.5" r="26.5" fill="#378D91"/>
<path d="M35.3799 36.13C35.1799 36.13 34.9899 36.05 34.8499 35.91L28.4699 29.53C28.1799 29.24 28.1799 28.76 28.4699 28.47L36.2 20.74C36.39 20.55 36.6799 20.48 36.9399 20.55C37.1999 20.63 37.3999 20.84 37.4599 21.1C37.6499 21.95 37.7499 22.9 37.7499 24V30C37.7499 32.77 37.1699 34.64 35.9099 35.91C35.7699 36.05 35.5599 36.08 35.3799 36.13ZM30.0599 29L35.3199 34.26C35.9499 33.29 36.2499 31.91 36.2499 30V24C36.2499 23.59 36.2399 23.21 36.2099 22.85L30.0599 29Z" fill="white"/>
<path d="M21.27 37.48C21.21 37.48 21.16 37.47 21.1 37.46C17.79 36.7 16.25 34.33 16.25 30V24C16.25 18.57 18.57 16.25 24 16.25H30C34.33 16.25 36.7 17.79 37.46 21.1C37.52 21.35 37.44 21.62 37.26 21.8L21.8 37.26C21.66 37.4 21.47 37.48 21.27 37.48ZM24 17.75C19.39 17.75 17.75 19.39 17.75 24V30C17.75 33.47 18.71 35.21 21.04 35.9L35.89 21.05C35.21 18.72 33.46 17.76 29.99 17.76H24V17.75Z" fill="white"/>
<path d="M29.9999 37.75H23.9999C22.8999 37.75 21.9599 37.66 21.0999 37.46C20.8299 37.4 20.6199 37.2 20.5499 36.94C20.4699 36.68 20.5499 36.4 20.7399 36.2L28.4699 28.47C28.7599 28.18 29.2399 28.18 29.5299 28.47L35.9099 34.85C36.0499 34.99 36.1299 35.18 36.1299 35.38C36.1299 35.58 36.0499 35.77 35.9099 35.91C34.6399 37.17 32.7699 37.75 29.9999 37.75ZM22.8499 36.21C23.2099 36.24 23.5899 36.25 23.9999 36.25H29.9999C31.9199 36.25 33.2899 35.95 34.2599 35.32L28.9999 30.06L22.8499 36.21Z" fill="white"/>
<path d="M24.1199 28.31C23.4899 28.31 22.8599 28.08 22.3599 27.61C20.7699 26.1 20.13 24.44 20.51 22.82C20.89 21.16 22.3399 20.04 24.1199 20.04C25.8999 20.04 27.35 21.16 27.73 22.82C28.1 24.45 27.4599 26.1 25.8699 27.61C25.3799 28.07 24.7499 28.31 24.1199 28.31ZM21.9699 23.15C21.6499 24.51 22.5699 25.73 23.3999 26.52C23.8099 26.91 24.4399 26.91 24.8399 26.52C25.6599 25.74 26.5799 24.52 26.2699 23.15C25.9999 21.96 24.9399 21.53 24.1199 21.53C23.2999 21.53 22.2499 21.96 21.9699 23.15Z" fill="white"/>
<path d="M24.1499 24.49C23.5999 24.49 23.1499 24.04 23.1499 23.49C23.1499 22.94 23.5899 22.49 24.1499 22.49H24.1599C24.7099 22.49 25.1599 22.94 25.1599 23.49C25.1599 24.04 24.6999 24.49 24.1499 24.49Z" fill="white"/>
</svg>
