<svg width="277" height="309" viewBox="0 0 277 309" fill="none" xmlns="http://www.w3.org/2000/svg">
<path d="M238.686 34.406L237.189 31.9449C224.569 11.1383 201.747 -1.40119 177.683 0.125166C174.586 0.320084 171.508 0.742369 168.474 1.38861C146.564 6.06991 127.576 22.6115 119.667 43.8052C115.03 56.2643 113.73 70.6076 104.929 80.5034C93.4634 93.3715 74.0079 93.7804 56.904 93.2473C39.8 92.7142 20.3226 93.167 8.92244 106.093C1.77998 114.185 -0.491291 125.695 0.0856555 136.533C1.60471 165.227 21.6007 190.89 47.0374 203.641C72.4742 216.393 102.41 217.517 130.235 211.93C169.226 204.072 206.304 182.484 228.593 149.124C250.882 115.763 256.52 70.3885 238.686 34.406Z" fill="#F5F5F5"/>
<path d="M28.9549 68.1611C44.298 68.1611 56.736 55.7231 56.736 40.38C56.736 25.0369 44.298 12.5989 28.9549 12.5989C13.6118 12.5989 1.17383 25.0369 1.17383 40.38C1.17383 55.7231 13.6118 68.1611 28.9549 68.1611Z" fill="#F5F5F5"/>
<path d="M159.608 158.873H102.833L91.9881 174.94L81.4059 158.873H25.6392C24.7914 158.873 23.9519 158.706 23.1686 158.382C22.3853 158.057 21.6736 157.582 21.0741 156.982C20.4747 156.383 19.9991 155.671 19.6747 154.888C19.3502 154.105 19.1832 153.265 19.1832 152.417V41.8406C19.1823 40.9922 19.3486 40.1519 19.6726 39.3678C19.9966 38.5837 20.472 37.8711 21.0716 37.2708C21.6711 36.6706 22.3832 36.1944 23.1669 35.8695C23.9507 35.5446 24.7908 35.3773 25.6392 35.3773H159.608C160.456 35.3773 161.296 35.5446 162.08 35.8695C162.864 36.1944 163.576 36.6706 164.175 37.2708C164.775 37.8711 165.25 38.5837 165.574 39.3678C165.898 40.1519 166.065 40.9922 166.064 41.8406V152.446C166.056 154.154 165.372 155.788 164.162 156.993C162.953 158.197 161.315 158.873 159.608 158.873Z" fill="#FAFAFA"/>
<path d="M159.608 158.873H159.958C160.31 158.851 160.659 158.799 161.003 158.72C162.174 158.455 163.247 157.868 164.101 157.023C164.954 156.179 165.553 155.112 165.83 153.944C165.897 153.667 165.948 153.386 165.983 153.104C165.983 152.812 166.02 152.512 165.983 152.205C165.983 151.592 165.983 150.949 165.983 150.285C165.983 147.617 165.983 144.552 165.983 141.09C165.983 127.214 165.947 107.218 165.925 82.4825C165.925 70.1037 165.925 56.5564 165.925 42.0086C165.956 40.6462 165.546 39.3102 164.757 38.1996C163.967 37.0889 162.84 36.263 161.543 35.8447C160.661 35.5767 159.738 35.4727 158.819 35.538H123.472H72.1382H25.851C25.5516 35.538 25.274 35.538 24.9892 35.538C24.7063 35.5714 24.4258 35.6226 24.1494 35.6914C23.0326 35.96 22.0122 36.5328 21.2013 37.3463C20.3904 38.1598 19.8208 39.1821 19.5557 40.2996C19.3692 41.3329 19.3079 42.3848 19.3731 43.4327V90.1727C19.3731 106.349 19.3731 122.022 19.3731 137.044V150.92C19.3307 151.818 19.3698 152.717 19.49 153.608C19.6592 154.468 20.0066 155.283 20.5096 156.002C21.0127 156.72 21.6605 157.325 22.4112 157.778C23.1574 158.229 23.9916 158.516 24.8578 158.618C25.7122 158.705 26.6251 158.654 27.5015 158.669H43.1375H81.4059H81.4862L81.53 158.734L92.0976 174.801H91.8785L102.738 158.734L102.775 158.683H102.833L144.724 158.873L102.87 158.924L102.965 158.873C99.6053 163.878 95.9951 169.246 92.1342 174.977L92.0246 175.145L91.9151 174.977L81.3255 158.91L81.4424 158.975H43.174H27.5234C26.6324 158.975 25.7634 159.012 24.8432 158.924C23.4691 158.767 22.1783 158.185 21.1507 157.26C20.1231 156.334 19.4098 155.111 19.1102 153.761C18.9797 152.849 18.9357 151.928 18.9788 151.008V137.132C18.9788 122.109 18.9788 106.459 18.9788 90.2603V41.899C18.9616 40.3999 19.4536 38.9392 20.3743 37.7559C21.2949 36.5726 22.5898 35.7366 24.0471 35.3846C24.3405 35.3128 24.6381 35.2592 24.9381 35.224C25.2375 35.224 25.5443 35.224 25.8364 35.224H158.826C159.781 35.1621 160.738 35.2734 161.653 35.5526C162.561 35.8595 163.393 36.3576 164.092 37.0132C164.789 37.6526 165.339 38.4348 165.706 39.3064C166.062 40.1749 166.238 41.1065 166.224 42.0451C166.224 56.5929 166.224 70.1402 166.224 82.519C166.224 107.255 166.181 127.28 166.166 141.127C166.166 144.588 166.166 147.653 166.166 150.321C166.166 150.986 166.166 151.628 166.166 152.242C166.166 152.549 166.166 152.855 166.129 153.148C166.098 153.436 166.047 153.721 165.976 154.002C165.69 155.182 165.077 156.259 164.208 157.107C163.339 157.956 162.248 158.542 161.061 158.8C160.717 158.872 160.368 158.914 160.017 158.924L159.608 158.873Z" fill="#263238"/>
<path d="M76.2499 103.369C76.2499 104.83 75.1763 105.692 73.4528 105.692H72.1601V107.466H70.6995V101.032H73.482C75.1763 101.062 76.2499 101.953 76.2499 103.369ZM74.7382 103.369C74.7382 102.639 74.2854 102.245 73.3725 102.245H72.1601V104.48H73.3725C74.2854 104.509 74.7382 104.1 74.7382 103.369Z" fill="#263238"/>
<path d="M81.5301 104.677V107.496H80.1863V106.882C80.0197 107.121 79.7923 107.31 79.5277 107.431C79.2631 107.551 78.9711 107.599 78.6819 107.569C77.528 107.569 76.8342 106.926 76.8342 106.072C76.8342 105.217 77.4549 104.611 78.9594 104.611H80.0987C80.0987 103.998 79.7335 103.64 78.9594 103.64C78.4475 103.635 77.9479 103.797 77.5353 104.1L77.0167 103.099C77.6526 102.693 78.3948 102.485 79.1493 102.5C80.661 102.478 81.5301 103.18 81.5301 104.677ZM80.0695 105.933V105.429H79.0835C78.4116 105.429 78.1999 105.677 78.1999 106.006C78.1999 106.335 78.5066 106.605 79.0105 106.605C79.2403 106.627 79.471 106.573 79.6675 106.452C79.8639 106.33 80.0153 106.148 80.0987 105.933H80.0695Z" fill="#263238"/>
<path d="M82.348 107.021L82.8227 105.991C83.3448 106.3 83.9397 106.464 84.5462 106.466C85.2035 106.466 85.4518 106.298 85.4518 106.02C85.4518 105.21 82.4648 106.02 82.4648 104.063C82.4648 103.128 83.312 102.464 84.758 102.464C85.4163 102.454 86.0674 102.601 86.6568 102.895L86.1821 103.917C85.7371 103.666 85.2324 103.54 84.7215 103.552C84.0788 103.552 83.8013 103.749 83.8013 104.005C83.8013 104.852 86.7883 104.005 86.7883 105.984C86.7883 106.904 85.9338 107.554 84.4513 107.554C83.7161 107.559 82.9919 107.376 82.348 107.021Z" fill="#263238"/>
<path d="M87.2265 107.021L87.7012 105.991C88.2211 106.299 88.8134 106.462 89.4174 106.466C90.082 106.466 90.3303 106.298 90.3303 106.02C90.3303 105.21 87.3433 106.02 87.3433 104.063C87.3433 103.128 88.1905 102.464 89.6292 102.464C90.2899 102.453 90.9436 102.601 91.5353 102.895L91.0533 103.917C90.6197 103.671 90.128 103.545 89.6292 103.552C88.9865 103.552 88.7163 103.749 88.7163 104.005C88.7163 104.852 91.696 104.005 91.696 105.984C91.696 106.904 90.8415 107.554 89.3663 107.554C88.6187 107.567 87.8808 107.383 87.2265 107.021Z" fill="#263238"/>
<path d="M100.423 102.551L98.6339 107.496H97.2536L96.1435 104.428L94.9969 107.496H93.602L91.8201 102.551H93.1712L94.3396 105.896L95.552 102.551H96.7643L97.9401 105.896L99.1451 102.551H100.423Z" fill="#263238"/>
<path d="M100.591 105.027C100.556 104.484 100.685 103.942 100.961 103.473C101.238 103.004 101.649 102.629 102.141 102.396C102.633 102.163 103.184 102.084 103.722 102.168C104.26 102.252 104.761 102.496 105.158 102.868C105.556 103.24 105.833 103.723 105.952 104.254C106.072 104.785 106.03 105.34 105.83 105.847C105.631 106.354 105.284 106.789 104.834 107.096C104.384 107.403 103.852 107.568 103.308 107.569C102.96 107.593 102.61 107.545 102.281 107.428C101.953 107.311 101.651 107.128 101.396 106.889C101.142 106.651 100.938 106.362 100.8 106.042C100.661 105.722 100.59 105.376 100.591 105.027ZM104.571 105.027C104.553 104.781 104.463 104.545 104.312 104.348C104.161 104.152 103.957 104.004 103.723 103.922C103.489 103.841 103.237 103.829 102.997 103.889C102.757 103.949 102.539 104.078 102.371 104.259C102.203 104.441 102.092 104.668 102.051 104.912C102.01 105.156 102.041 105.406 102.141 105.633C102.24 105.86 102.403 106.052 102.611 106.187C102.818 106.322 103.06 106.394 103.308 106.393C103.482 106.393 103.654 106.356 103.813 106.286C103.972 106.215 104.115 106.113 104.232 105.984C104.35 105.856 104.439 105.705 104.495 105.54C104.551 105.375 104.572 105.201 104.557 105.027H104.571Z" fill="#263238"/>
<path d="M110.041 102.478V103.8H109.72C109.538 103.783 109.355 103.807 109.183 103.871C109.012 103.935 108.857 104.037 108.731 104.169C108.604 104.301 108.509 104.46 108.453 104.634C108.397 104.808 108.381 104.992 108.406 105.173V107.51H106.945V102.566H108.318V103.216C108.522 102.961 108.787 102.76 109.087 102.631C109.388 102.502 109.716 102.45 110.041 102.478Z" fill="#263238"/>
<path d="M115.884 100.682V107.496H114.518V106.926C114.327 107.143 114.089 107.314 113.822 107.425C113.555 107.536 113.266 107.586 112.977 107.569C112.299 107.569 111.649 107.299 111.17 106.82C110.691 106.341 110.421 105.691 110.421 105.013C110.421 104.335 110.691 103.685 111.17 103.205C111.649 102.726 112.299 102.457 112.977 102.457C113.249 102.446 113.521 102.494 113.773 102.597C114.025 102.7 114.252 102.857 114.438 103.055V100.66L115.884 100.682ZM114.482 105.064C114.463 104.817 114.373 104.581 114.222 104.385C114.072 104.189 113.867 104.041 113.633 103.959C113.4 103.877 113.147 103.866 112.907 103.926C112.667 103.985 112.45 104.114 112.282 104.296C112.114 104.477 112.002 104.704 111.961 104.948C111.92 105.192 111.952 105.443 112.051 105.669C112.15 105.896 112.314 106.089 112.521 106.224C112.729 106.359 112.971 106.43 113.218 106.429C113.397 106.432 113.574 106.396 113.738 106.324C113.901 106.253 114.048 106.147 114.167 106.014C114.287 105.882 114.377 105.725 114.431 105.555C114.485 105.384 114.503 105.205 114.482 105.027V105.064Z" fill="#263238"/>
<path d="M56.6118 118.589H47.3076C45.0973 118.589 43.3055 120.381 43.3055 122.591V138.534C43.3055 140.744 45.0973 142.536 47.3076 142.536H56.6118C58.8221 142.536 60.6139 140.744 60.6139 138.534V122.591C60.6139 120.381 58.8221 118.589 56.6118 118.589Z" fill="#EBEBEB"/>
<path d="M97.4581 118.589H88.6213C86.411 118.589 84.6192 120.381 84.6192 122.591V138.534C84.6192 140.744 86.411 142.536 88.6213 142.536H97.4581C99.6684 142.536 101.46 140.744 101.46 138.534V122.591C101.46 120.381 99.6684 118.589 97.4581 118.589Z" fill="#EBEBEB"/>
<path d="M77.2139 118.589H68.3771C66.1668 118.589 64.375 120.381 64.375 122.591V138.534C64.375 140.744 66.1668 142.536 68.3771 142.536H77.2139C79.4242 142.536 81.216 140.744 81.216 138.534V122.591C81.216 120.381 79.4242 118.589 77.2139 118.589Z" fill="#EBEBEB"/>
<path d="M118.082 118.589H108.771C106.56 118.589 104.769 120.381 104.769 122.591V138.534C104.769 140.744 106.56 142.536 108.771 142.536H118.082C120.293 142.536 122.084 140.744 122.084 138.534V122.591C122.084 120.381 120.293 118.589 118.082 118.589Z" fill="#EBEBEB"/>
<path d="M137.939 118.589H128.628C126.418 118.589 124.626 120.381 124.626 122.591V138.534C124.626 140.744 126.418 142.536 128.628 142.536H137.939C140.15 142.536 141.941 140.744 141.941 138.534V122.591C141.941 120.381 140.15 118.589 137.939 118.589Z" fill="#EBEBEB"/>
<path d="M54.1652 129.931L56.0129 130.931L55.1803 132.326L53.318 131.216V133.276H51.7259V131.202L49.8563 132.326L49.0384 130.931L50.8934 129.931L49.0384 128.908L49.8563 127.514L51.7259 128.638V126.564H53.318V128.638L55.1803 127.514L56.0129 128.908L54.1652 129.931Z" fill="#378D91"/>
<path d="M74.3656 129.821L76.2206 130.822L75.388 132.217L73.5184 131.121L73.555 133.181H71.9556V131.107L70.086 132.231L69.2753 130.836L71.123 129.836L69.2753 128.814L70.086 127.419L71.9556 128.543V126.469H73.555L73.5184 128.543L75.388 127.419L76.2206 128.814L74.3656 129.821Z" fill="#378D91"/>
<path d="M95.0627 129.821L96.9177 130.822L96.0852 132.217L94.1791 131.121L94.2156 133.181H92.6162V131.107L90.7466 132.231L89.9506 130.822L91.7983 129.821L89.9506 128.799L90.7612 127.404L92.6308 128.529V126.455H94.2302L94.1937 128.529L96.0633 127.404L96.8958 128.799L95.0627 129.821Z" fill="#378D91"/>
<path d="M115.044 129.821L116.892 130.822L116.059 132.217L114.19 131.121L114.226 133.181H112.627V131.107L110.757 132.231L109.939 130.836L111.794 129.836L109.939 128.814L110.757 127.419L112.627 128.543V126.469H114.226L114.19 128.543L116.059 127.419L116.892 128.814L115.044 129.821Z" fill="#378D91"/>
<path d="M56.4365 142.689H47.4829C46.3756 142.688 45.3141 142.247 44.5311 141.464C43.7481 140.681 43.3074 139.619 43.3055 138.512V122.62C43.3074 121.513 43.7481 120.452 44.5311 119.669C45.3141 118.886 46.3756 118.445 47.4829 118.443H56.4365C57.5444 118.443 58.6069 118.883 59.3904 119.667C60.1738 120.45 60.6139 121.513 60.6139 122.62V138.512C60.612 139.619 60.1712 140.681 59.3882 141.464C58.6052 142.247 57.5438 142.688 56.4365 142.689ZM47.4829 118.706C46.4537 118.708 45.4673 119.118 44.7403 119.847C44.0132 120.575 43.6049 121.562 43.6049 122.591V138.483C43.6049 139.511 44.0135 140.498 44.7407 141.225C45.468 141.952 46.4544 142.361 47.4829 142.361H56.4365C57.4657 142.361 58.4528 141.952 59.1812 141.225C59.9096 140.498 60.3198 139.512 60.3218 138.483V122.62C60.3198 121.591 59.9099 120.604 59.1817 119.875C58.4534 119.147 57.4663 118.737 56.4365 118.735L47.4829 118.706Z" fill="#263238"/>
<path d="M77.2358 142.689H68.2749C67.1675 142.688 66.1061 142.247 65.3231 141.464C64.5401 140.681 64.0994 139.619 64.0975 138.512V122.62C64.0994 121.513 64.5401 120.452 65.3231 119.669C66.1061 118.886 67.1675 118.445 68.2749 118.443H77.2358C78.3424 118.445 79.4031 118.886 80.1849 119.669C80.9668 120.452 81.4059 121.514 81.4059 122.62V138.512C81.4059 139.619 80.9668 140.68 80.1849 141.463C79.4031 142.247 78.3424 142.688 77.2358 142.689ZM68.2749 118.706C67.2457 118.708 66.2593 119.118 65.5323 119.847C64.8052 120.575 64.3969 121.562 64.3969 122.591V138.483C64.3969 139.511 64.8055 140.498 65.5327 141.225C66.26 141.952 67.2464 142.361 68.2749 142.361H77.2358C78.2643 142.361 79.2507 141.952 79.9779 141.225C80.7052 140.498 81.1137 139.511 81.1137 138.483V122.62C81.1137 121.591 80.7054 120.604 79.9784 119.876C79.2513 119.147 78.265 118.737 77.2358 118.735L68.2749 118.706Z" fill="#263238"/>
<path d="M97.4582 142.689H88.4899C87.3826 142.688 86.3212 142.247 85.5382 141.464C84.7552 140.681 84.3145 139.619 84.3126 138.512V122.62C84.3145 121.513 84.7552 120.452 85.5382 119.669C86.3212 118.886 87.3826 118.445 88.4899 118.443H97.4509C98.5575 118.445 99.6182 118.886 100.4 119.669C101.182 120.452 101.621 121.514 101.621 122.62V138.512C101.621 139.617 101.183 140.678 100.403 141.461C99.6223 142.244 98.5636 142.686 97.4582 142.689ZM88.4899 118.706C87.4608 118.708 86.4744 119.118 85.7474 119.847C85.0203 120.575 84.612 121.562 84.612 122.591V138.483C84.612 139.511 85.0206 140.498 85.7478 141.225C86.4751 141.952 87.4615 142.361 88.4899 142.361H97.4509C97.9601 142.361 98.4644 142.261 98.9349 142.066C99.4054 141.871 99.8329 141.585 100.193 141.225C100.553 140.865 100.839 140.437 101.034 139.967C101.229 139.496 101.329 138.992 101.329 138.483V122.62C101.329 121.591 100.921 120.604 100.193 119.876C99.4664 119.147 98.4801 118.737 97.4509 118.735L88.4899 118.706Z" fill="#263238"/>
<path d="M117.907 142.689H108.939C107.831 142.688 106.77 142.247 105.987 141.464C105.204 140.681 104.763 139.619 104.761 138.512V122.62C104.761 121.513 105.201 120.45 105.985 119.667C106.768 118.883 107.831 118.443 108.939 118.443H117.892C119 118.445 120.061 118.886 120.844 119.669C121.627 120.452 122.068 121.513 122.07 122.62V138.512C122.068 139.617 121.629 140.676 120.849 141.459C120.069 142.241 119.012 142.684 117.907 142.689ZM108.939 118.706C107.909 118.708 106.922 119.118 106.194 119.846C105.465 120.574 105.055 121.561 105.053 122.591V138.483C105.055 139.512 105.466 140.498 106.194 141.225C106.922 141.952 107.91 142.361 108.939 142.361H117.892C118.921 142.361 119.907 141.952 120.634 141.225C121.362 140.498 121.77 139.511 121.77 138.483V122.62C121.77 121.591 121.362 120.604 120.635 119.876C119.908 119.147 118.921 118.737 117.892 118.735L108.939 118.706Z" fill="#263238"/>
<path d="M137.764 142.689H128.81C127.703 142.688 126.642 142.247 125.859 141.464C125.076 140.681 124.635 139.619 124.633 138.512V122.62C124.633 121.513 125.073 120.45 125.857 119.667C126.64 118.883 127.703 118.443 128.81 118.443H137.764C138.871 118.445 139.933 118.886 140.716 119.669C141.499 120.452 141.94 121.513 141.941 122.62V138.512C141.94 139.619 141.499 140.681 140.716 141.464C139.933 142.247 138.871 142.688 137.764 142.689ZM128.81 118.706C127.781 118.708 126.793 119.118 126.065 119.846C125.337 120.574 124.927 121.561 124.925 122.591V138.483C124.927 139.512 125.337 140.498 126.066 141.225C126.794 141.952 127.781 142.361 128.81 142.361H137.764C138.793 142.361 139.779 141.952 140.506 141.225C141.233 140.498 141.642 139.511 141.642 138.483V122.62C141.642 121.591 141.234 120.604 140.507 119.876C139.78 119.147 138.793 118.737 137.764 118.735L128.81 118.706Z" fill="#263238"/>
<path d="M138.085 136.328C136.494 136.521 134.889 136.584 133.287 136.518C131.685 136.584 130.081 136.521 128.489 136.328C130.081 136.141 131.685 136.077 133.287 136.139C134.889 136.077 136.493 136.141 138.085 136.328Z" fill="#378D91"/>
<path d="M93.4122 93.7585C104.097 93.7585 112.758 85.097 112.758 74.4125C112.758 63.7281 104.097 55.0666 93.4122 55.0666C82.7277 55.0666 74.0662 63.7281 74.0662 74.4125C74.0662 85.097 82.7277 93.7585 93.4122 93.7585Z" fill="#378D91"/>
<path d="M90.009 70.8925H89.6876V69.0886C89.6652 68.5793 89.7462 68.0707 89.9256 67.5935C90.1051 67.1163 90.3793 66.6804 90.7318 66.3121C91.0843 65.9438 91.5077 65.6506 91.9765 65.4504C92.4453 65.2501 92.9499 65.1469 93.4597 65.1469C93.9695 65.1469 94.474 65.2501 94.9429 65.4504C95.4117 65.6506 95.8351 65.9438 96.1876 66.3121C96.5401 66.6804 96.8143 67.1163 96.9937 67.5935C97.1732 68.0707 97.2542 68.5793 97.2317 69.0886V70.5492H96.9104V69.0886C96.9319 68.6221 96.8585 68.1561 96.6948 67.7187C96.5311 67.2813 96.2803 66.8817 95.9578 66.544C95.6353 66.2063 95.2476 65.9374 94.8182 65.7538C94.3888 65.5701 93.9267 65.4754 93.4597 65.4754C92.9927 65.4754 92.5305 65.5701 92.1011 65.7538C91.6718 65.9374 91.2841 66.2063 90.9615 66.544C90.639 66.8817 90.3883 67.2813 90.2246 67.7187C90.0608 68.1561 89.9875 68.6221 90.009 69.0886V70.8925Z" fill="white"/>
<path d="M98.2104 83.5049H88.6214C88.412 83.5059 88.2046 83.4654 88.011 83.3857C87.8174 83.306 87.6415 83.1888 87.4935 83.0408C87.3454 82.8927 87.2282 82.7168 87.1485 82.5232C87.0689 82.3296 87.0283 82.1222 87.0293 81.9128V72.3238C87.0293 71.9016 87.197 71.4966 87.4956 71.1981C87.7942 70.8995 88.1991 70.7318 88.6214 70.7318H98.2104C98.632 70.7337 99.0359 70.902 99.334 71.2002C99.6322 71.4983 99.8006 71.9022 99.8025 72.3238V81.9128C99.8025 82.3351 99.6347 82.74 99.3362 83.0386C99.0376 83.3372 98.6326 83.5049 98.2104 83.5049ZM88.6214 71.0531C88.2844 71.0531 87.9612 71.187 87.7228 71.4253C87.4845 71.6636 87.3507 71.9868 87.3507 72.3238V81.9128C87.3507 82.0797 87.3835 82.245 87.4474 82.3991C87.5112 82.5533 87.6048 82.6934 87.7228 82.8114C87.8408 82.9294 87.9809 83.023 88.1351 83.0869C88.2893 83.1507 88.4545 83.1836 88.6214 83.1836H98.2104C98.3773 83.1836 98.5425 83.1507 98.6967 83.0869C98.8509 83.023 98.9909 82.9294 99.1089 82.8114C99.2269 82.6934 99.3206 82.5533 99.3844 82.3991C99.4483 82.245 99.4811 82.0797 99.4811 81.9128V72.3238C99.4811 71.9868 99.3473 71.6636 99.1089 71.4253C98.8706 71.187 98.5474 71.0531 98.2104 71.0531H88.6214Z" fill="white"/>
<path d="M93.4633 77.436C93.1637 77.4375 92.8704 77.3499 92.6207 77.1843C92.371 77.0188 92.1761 76.7827 92.0607 76.5062C91.9454 76.2297 91.9149 75.9251 91.973 75.6312C92.0311 75.3372 92.1752 75.0672 92.3871 74.8553C92.5989 74.6435 92.869 74.4994 93.1629 74.4413C93.4568 74.3832 93.7614 74.4137 94.0379 74.529C94.3144 74.6444 94.5505 74.8393 94.716 75.089C94.8816 75.3387 94.9692 75.632 94.9677 75.9316C94.9658 76.33 94.8067 76.7116 94.525 76.9933C94.2433 77.275 93.8617 77.4341 93.4633 77.436ZM93.4633 74.7485C93.2293 74.7485 93.0006 74.8179 92.806 74.9479C92.6114 75.0779 92.4598 75.2627 92.3703 75.4788C92.2807 75.695 92.2573 75.9329 92.3029 76.1624C92.3486 76.3919 92.4613 76.6027 92.6267 76.7682C92.7922 76.9336 93.003 77.0463 93.2325 77.092C93.462 77.1376 93.6999 77.1142 93.9161 77.0246C94.1322 76.9351 94.317 76.7835 94.447 76.5889C94.577 76.3943 94.6464 76.1656 94.6464 75.9316C94.6474 75.776 94.6174 75.6217 94.5583 75.4777C94.4992 75.3337 94.4121 75.2029 94.302 75.0929C94.192 74.9828 94.0612 74.8957 93.9172 74.8366C93.7732 74.7775 93.6189 74.7475 93.4633 74.7485Z" fill="white"/>
<path d="M93.5729 77.2023H93.2516V79.9191H93.5729V77.2023Z" fill="white"/>
<path d="M158.914 47.6302C159.623 44.4079 157.586 41.221 154.363 40.512C151.141 39.8029 147.954 41.8403 147.245 45.0625C146.536 48.2847 148.574 51.4717 151.796 52.1807C155.018 52.8898 158.205 50.8524 158.914 47.6302Z" fill="#E0E0E0"/>
<path d="M151.158 48.4718C151.133 48.4715 151.109 48.4662 151.086 48.4561C151.064 48.4461 151.043 48.4315 151.027 48.4134C151.009 48.397 150.995 48.3772 150.986 48.3552C150.976 48.3333 150.971 48.3096 150.971 48.2856C150.971 48.2616 150.976 48.2379 150.986 48.216C150.995 48.194 151.009 48.1742 151.027 48.1578L154.897 44.2871C154.914 44.2697 154.933 44.2558 154.955 44.2462C154.977 44.2367 155.001 44.2318 155.025 44.2318C155.049 44.2318 155.073 44.2367 155.095 44.2462C155.117 44.2558 155.136 44.2697 155.153 44.2871C155.17 44.3042 155.185 44.3246 155.194 44.3472C155.204 44.3698 155.209 44.3941 155.209 44.4186C155.209 44.4431 155.204 44.4674 155.194 44.49C155.185 44.5126 155.17 44.533 155.153 44.5501L151.282 48.4134C151.25 48.4483 151.205 48.4692 151.158 48.4718Z" fill="white"/>
<path d="M155.021 48.4718C154.974 48.4692 154.929 48.4483 154.897 48.4134L151.027 44.5501C151.009 44.533 150.995 44.5126 150.985 44.49C150.976 44.4674 150.971 44.4431 150.971 44.4186C150.971 44.3941 150.976 44.3698 150.985 44.3472C150.995 44.3246 151.009 44.3042 151.027 44.2871C151.043 44.2697 151.063 44.2558 151.085 44.2462C151.107 44.2367 151.13 44.2318 151.154 44.2318C151.178 44.2318 151.202 44.2367 151.224 44.2462C151.246 44.2558 151.266 44.2697 151.282 44.2871L155.153 48.1578C155.17 48.1742 155.184 48.194 155.194 48.216C155.203 48.2379 155.208 48.2616 155.208 48.2856C155.208 48.3096 155.203 48.3333 155.194 48.3552C155.184 48.3772 155.17 48.397 155.153 48.4134C155.136 48.4315 155.116 48.4461 155.093 48.4561C155.071 48.4662 155.046 48.4715 155.021 48.4718Z" fill="white"/>
<path d="M224.993 177.547L207.443 175.006L172.337 180.198L162.485 183.682L164.231 205.226L197.986 211.441L220.757 204.693L229.367 192.022L224.993 177.547Z" fill="#FFBE9D"/>
<path d="M236.057 179.607L221.363 176.145C221.363 176.145 210.985 208.279 185.359 206.869C164.472 205.737 164.231 182.426 164.231 182.426L149.179 187.246C149.179 187.246 143.417 225.857 149.792 253.215C151.253 259.605 153.276 268.216 153.276 268.216L151.238 308.186L262.567 308.361L236.057 179.607Z" fill="#378D91"/>
<g opacity="0.3">
<path d="M192.413 300.43C197.832 300.291 202.828 300.751 208.247 300.62C214.746 300.459 221.297 300.298 227.717 301.35C232.522 302.146 237.211 303.606 242.016 304.366C248.589 305.403 255.593 305.038 261.435 301.876L260.493 296.42L238.306 291.06L192.413 300.43Z" fill="black"/>
</g>
<path d="M136.61 196.243C141.722 189.67 150.165 186.932 150.165 186.932L155.861 236.513L145.075 308.711L109.742 308.543C109.742 308.543 129.227 205.774 136.61 196.243Z" fill="#378D91"/>
<path d="M234.341 179.242C234.341 179.242 258.12 181.148 266.65 220.139C270.506 237.762 275.413 258.407 276.794 272.291C277.809 282.354 272.339 298.115 262.304 299.407L249.685 301.102C247.21 301.458 244.692 301.366 242.25 300.831C234.282 298.998 233.486 293.528 232.026 287.686L228.374 276.059C226.358 265.002 236.663 262.914 242.352 263.067L238.109 212.595L234.341 179.242Z" fill="#378D91"/>
<path d="M147.222 214.501C147.166 214.677 147.129 214.858 147.112 215.042C147.054 215.436 146.973 215.962 146.871 216.612C146.827 216.955 146.769 217.342 146.71 217.751C146.652 218.16 146.623 218.62 146.572 219.109C146.469 220.081 146.353 221.191 146.301 222.425C146.133 225.312 146.113 228.205 146.243 231.094C146.417 234.627 146.768 238.149 147.295 241.647C147.842 245.379 148.529 248.899 149.23 252.083C149.931 255.267 150.61 258.123 151.209 260.518C151.808 262.913 152.312 264.834 152.67 266.163C152.845 266.799 152.984 267.31 153.093 267.69C153.133 267.871 153.192 268.047 153.269 268.216C153.253 268.032 153.219 267.851 153.166 267.675C153.079 267.281 152.962 266.77 152.816 266.127C152.487 264.747 152.027 262.819 151.458 260.452C150.888 258.086 150.231 255.194 149.566 252.01C148.901 248.826 148.208 245.313 147.667 241.596C147.127 237.878 146.747 234.293 146.586 231.072C146.426 227.851 146.418 224.893 146.586 222.44C146.623 221.205 146.718 220.103 146.798 219.124C146.832 218.637 146.869 218.184 146.908 217.766C146.951 217.357 146.995 216.977 147.032 216.626C147.105 215.976 147.163 215.45 147.2 215.049C147.225 214.867 147.232 214.684 147.222 214.501Z" fill="#263238"/>
<path d="M261.012 276.724C260.996 276.385 260.939 276.049 260.844 275.723C260.611 274.844 260.303 273.986 259.924 273.16C258.676 270.403 256.734 268.018 254.287 266.237C251.841 264.456 248.974 263.341 245.967 263.001C245.064 262.891 244.152 262.862 243.243 262.913C242.909 262.917 242.575 262.959 242.25 263.038C243.47 263.045 244.69 263.12 245.902 263.264C248.84 263.672 251.632 264.798 254.031 266.544C256.43 268.289 258.361 270.599 259.653 273.269C260.166 274.396 260.62 275.549 261.012 276.724Z" fill="#263238"/>
<path d="M255.52 257.312C255.331 257.264 255.137 257.247 254.943 257.261C254.418 257.251 253.894 257.276 253.373 257.334C251.648 257.509 249.959 257.932 248.355 258.59C246.754 259.255 245.254 260.143 243.9 261.226C243.492 261.553 243.104 261.904 242.739 262.278C242.484 262.548 242.352 262.702 242.367 262.724C242.381 262.746 243.009 262.212 244.068 261.438C246.822 259.416 250.029 258.097 253.409 257.597C254.702 257.407 255.52 257.378 255.52 257.312Z" fill="#263238"/>
<path d="M230.901 206.869C230.954 206.524 230.974 206.174 230.959 205.825C230.959 205.153 231.003 204.189 231.084 202.999C231.51 196.773 233.215 190.701 236.093 185.164C236.641 184.105 237.116 183.258 237.459 182.689C237.652 182.398 237.815 182.09 237.948 181.768C237.715 182.028 237.508 182.309 237.328 182.608C236.948 183.163 236.437 183.989 235.867 185.04C232.835 190.559 231.111 196.701 230.828 202.991C230.784 204.189 230.784 205.182 230.828 205.832C230.816 206.18 230.841 206.527 230.901 206.869Z" fill="#263238"/>
<path d="M185.359 242.238C185.374 242.379 185.409 242.516 185.461 242.647C185.549 242.91 185.658 243.312 185.855 243.794C186.388 245.19 187.05 246.532 187.834 247.803C190.426 252.043 194.188 255.443 198.667 257.594C203.147 259.744 208.152 260.555 213.081 259.927C214.568 259.742 216.035 259.421 217.463 258.97C217.967 258.816 218.347 258.648 218.602 258.554C218.737 258.51 218.866 258.454 218.99 258.386C218.99 258.349 218.427 258.539 217.419 258.824C215.985 259.226 214.519 259.504 213.037 259.656C208.165 260.229 203.23 259.407 198.806 257.284C194.383 255.161 190.654 251.825 188.053 247.665C187.258 246.415 186.565 245.103 185.979 243.743C185.622 242.779 185.388 242.224 185.359 242.238Z" fill="#263238"/>
<path d="M235.473 297.048C235.509 297.012 235.882 297.545 236.773 298.275C238.076 299.259 239.567 299.965 241.154 300.349C243.492 300.934 245.907 301.149 248.312 300.985C251.028 300.788 254.03 300.466 257.141 300.006C260.072 299.627 262.958 298.961 265.759 298.02C266.928 297.506 267.998 296.792 268.921 295.909C269.735 295.146 270.469 294.302 271.112 293.389C272.064 292.072 272.879 290.66 273.544 289.176C273.77 288.642 273.946 288.233 274.055 287.949C274.098 287.799 274.162 287.657 274.245 287.525C274.217 287.676 274.178 287.825 274.128 287.971C274.04 288.27 273.887 288.701 273.675 289.234C273.063 290.758 272.276 292.206 271.331 293.55C270.692 294.486 269.958 295.352 269.14 296.135C268.198 297.053 267.1 297.795 265.897 298.326C263.079 299.306 260.167 299.988 257.207 300.364C254.074 300.831 251.079 301.138 248.341 301.321C245.9 301.464 243.452 301.218 241.089 300.59C239.49 300.178 237.996 299.431 236.707 298.399C236.367 298.106 236.057 297.781 235.779 297.428C235.661 297.315 235.558 297.187 235.473 297.048Z" fill="#263238"/>
<path d="M231.551 219.285C231.646 219.285 234.158 228.99 237.145 241.026C240.132 253.062 242.476 262.833 242.374 262.862C242.272 262.892 239.767 253.149 236.78 241.114C233.793 229.078 231.449 219.307 231.551 219.285Z" fill="#263238"/>
<path d="M228.52 274.263C228.442 274.002 228.4 273.731 228.396 273.459C228.323 272.731 228.306 271.999 228.345 271.268C228.428 270.154 228.798 269.08 229.418 268.15C229.77 267.597 230.179 267.083 230.638 266.616C231.147 266.13 231.713 265.708 232.325 265.36C234.488 264.225 236.83 263.469 239.248 263.125C239.975 263.021 240.706 262.957 241.439 262.935C241.708 262.896 241.981 262.896 242.25 262.935C242.25 262.994 241.103 263.038 239.285 263.366C236.92 263.773 234.634 264.547 232.508 265.659C231.921 265.993 231.377 266.395 230.886 266.857C230.443 267.302 230.047 267.792 229.703 268.318C229.098 269.184 228.722 270.189 228.608 271.239C228.543 271.967 228.521 272.699 228.542 273.43C228.567 273.707 228.56 273.987 228.52 274.263Z" fill="#263238"/>
<g opacity="0.3">
<path d="M148.317 247.241C142.248 236.965 142.117 223.615 147.412 212.916C145.716 224.316 146.082 235.927 148.492 247.197" fill="black"/>
</g>
<path d="M157.994 293.331C159.907 289.723 174.828 280.185 174.828 280.185L170.789 279.251L166.327 281.135C165.989 282.647 165.335 284.071 164.406 285.312C162.77 287.649 159.988 285.232 159.988 285.232L161.872 276.198L170.694 270.889C170.694 270.889 178.99 272.159 180.334 272.802L183.869 276.037C185.424 277.257 189.908 282.055 191.135 282.201C192.362 282.347 230.901 273.693 230.901 273.693C236.181 277.878 238.934 286.181 239.796 292.177C239.796 292.177 240.738 295.098 239.716 296.72L192.443 300.43L182.423 303.198C179.74 304.307 176.991 305.251 174.192 306.024C170.862 306.754 168.62 305.651 168.525 303.833C168.43 302.014 171.023 301.788 171.023 301.788C173.233 300.995 175.386 300.048 177.464 298.954C178.986 297.94 180.239 296.572 181.116 294.967L177.544 295.39C177.544 295.39 169.949 300.663 167.094 302.212C164.238 303.76 163.676 300.919 163.442 300.021C163.208 299.122 171.972 290.592 171.972 290.592C171.972 290.592 163.639 295.705 162.142 297.019C160.645 298.334 158.425 298.706 157.95 297.837C157.475 296.968 156.088 296.939 157.994 293.331Z" fill="#FFBE9D"/>
<path d="M199.081 294.164C199.124 293.972 199.138 293.775 199.125 293.579C199.134 293.35 199.119 293.12 199.081 292.893C199.052 292.589 198.996 292.288 198.913 291.995C198.438 290.289 197.615 288.7 196.496 287.328C195.405 285.951 194.182 284.684 192.844 283.545C192.32 283.044 191.745 282.598 191.128 282.216C191.614 282.749 192.131 283.254 192.676 283.727C193.948 284.911 195.13 286.187 196.211 287.547C197.306 288.884 198.138 290.415 198.665 292.06C199.045 293.331 199.008 294.171 199.081 294.164Z" fill="#EB996E"/>
<path d="M175.171 279.915C176.025 280.041 176.897 279.963 177.716 279.688C178.535 279.412 179.277 278.947 179.881 278.33C179.823 278.25 178.91 278.929 177.603 279.353C176.295 279.776 175.171 279.813 175.171 279.915Z" fill="#EB996E"/>
<path d="M172.688 289.804C175.259 288.997 177.756 287.971 180.152 286.736C178.848 287.081 177.577 287.54 176.354 288.109C175.086 288.569 173.86 289.136 172.688 289.804Z" fill="#EB996E"/>
<path d="M180.692 294.857C181.365 294.703 182.017 294.47 182.635 294.164C183.298 293.971 183.935 293.699 184.533 293.353C183.14 293.495 181.811 294.015 180.692 294.857Z" fill="#EB996E"/>
<path d="M173.937 290.461C174.472 290.83 174.963 291.262 175.397 291.746C175.75 292.299 176.035 292.892 176.244 293.514C176.288 293.514 176.332 293.273 176.244 292.893C176.155 292.399 175.95 291.933 175.645 291.534C175.344 291.136 174.95 290.815 174.499 290.6C174.17 290.439 173.937 290.424 173.937 290.461Z" fill="#EB996E"/>
<path d="M170.416 284.947C170.365 285.035 171.023 285.393 171.454 286.145C171.673 286.628 171.851 287.129 171.987 287.642C172.093 287.362 172.126 287.06 172.084 286.764C172.042 286.468 171.925 286.187 171.746 285.948C171.256 285.1 170.431 284.852 170.416 284.947Z" fill="#EB996E"/>
<path d="M171.599 275.088C171.643 275.088 171.775 274.942 171.884 274.613C171.997 274.182 171.997 273.729 171.884 273.299C171.78 272.866 171.563 272.468 171.256 272.145C171.015 271.904 170.818 271.816 170.789 271.853C171.095 272.332 171.34 272.847 171.519 273.386C171.623 273.947 171.65 274.52 171.599 275.088Z" fill="#EB996E"/>
<path d="M240.103 298.071C240.054 297.71 240.035 297.346 240.044 296.983C240.044 296.632 240.044 296.208 239.993 295.712C239.942 295.215 239.95 294.653 239.877 294.039C239.603 290.798 238.908 287.607 237.81 284.545C237.193 282.873 236.446 281.251 235.575 279.696C235.137 278.966 234.757 278.316 234.319 277.724C234.114 277.425 233.91 277.14 233.713 276.862C233.515 276.585 233.304 276.337 233.106 276.132C231.536 274.197 230.331 273.211 230.39 273.152C230.696 273.347 230.98 273.575 231.237 273.832C231.566 274.107 231.878 274.403 232.172 274.715C232.515 275.073 232.902 275.446 233.318 275.957C233.515 276.205 233.727 276.454 233.946 276.687C234.165 276.921 234.363 277.25 234.582 277.549C235.035 278.141 235.429 278.827 235.874 279.528C236.777 281.091 237.544 282.728 238.168 284.421C239.276 287.506 239.942 290.732 240.147 294.003C240.198 294.624 240.191 295.193 240.205 295.69C240.22 296.187 240.205 296.617 240.205 296.968C240.209 297.338 240.174 297.708 240.103 298.071Z" fill="#263238"/>
<g opacity="0.3">
<path d="M256.323 264.294C251.89 262.463 247.007 262.018 242.316 263.016C246.348 262.83 250.338 263.908 253.728 266.1C257.118 268.292 259.738 271.488 261.223 275.241C261.559 276.147 262.231 277.22 263.195 277.082C264.159 276.943 264.422 275.825 264.422 274.927C264.43 270.202 260.683 266.112 256.323 264.294Z" fill="black"/>
</g>
<path d="M146.915 211.156C146.696 211.116 146.485 211.045 146.287 210.944C145.885 210.791 145.323 210.535 144.636 210.214C142.845 209.32 141.134 208.272 139.524 207.081C137.92 205.896 136.42 204.577 135.04 203.137C134.514 202.582 134.098 202.115 133.835 201.786C133.572 201.458 133.426 201.261 133.448 201.239C133.47 201.217 134.134 201.896 135.23 202.948C136.654 204.321 138.163 205.601 139.751 206.782C141.342 207.952 143.009 209.019 144.739 209.973C146.112 210.725 146.959 211.105 146.915 211.156Z" fill="white"/>
<path d="M231.244 213.91C231.189 213.959 231.128 214.001 231.062 214.034L230.499 214.37C230.01 214.669 229.265 215.1 228.308 215.582C225.566 216.989 222.722 218.188 219.8 219.168C215.459 220.604 211.006 221.674 206.487 222.367C200.953 223.19 195.371 223.654 189.777 223.754C183.825 223.893 178.158 223.754 172.98 223.667C168.411 223.602 163.85 223.258 159.323 222.637C156.269 222.204 153.258 221.505 150.326 220.548C149.296 220.198 148.5 219.905 147.974 219.679L147.375 219.423C147.304 219.399 147.235 219.367 147.171 219.328L147.39 219.387L148.003 219.606C148.536 219.81 149.34 220.081 150.377 220.409C153.314 221.302 156.318 221.959 159.36 222.374C163.88 222.952 168.43 223.266 172.987 223.316C178.099 223.411 183.796 223.513 189.733 223.374C195.312 223.276 200.878 222.823 206.399 222.016C210.904 221.346 215.347 220.308 219.683 218.912C222.604 217.958 225.454 216.801 228.213 215.45C229.185 214.968 229.937 214.581 230.404 214.304L230.981 214.004C231.171 213.931 231.237 213.902 231.244 213.91Z" fill="white"/>
<path d="M147.193 239.938C146.884 239.91 146.581 239.846 146.287 239.748L143.855 239.083C141.81 238.506 138.991 237.681 135.88 236.754C132.769 235.826 129.964 234.957 127.934 234.314L125.539 233.54C125.242 233.455 124.953 233.343 124.677 233.204C124.985 233.233 125.289 233.296 125.583 233.394L128.015 234.059C130.059 234.636 132.878 235.461 135.99 236.389C139.101 237.316 141.905 238.178 143.935 238.82L146.331 239.602C146.629 239.683 146.918 239.796 147.193 239.938Z" fill="white"/>
<path d="M149.318 280.302C149.318 280.397 142.015 278.308 133.032 275.628C124.049 272.948 116.826 270.691 116.855 270.589C116.885 270.487 124.158 272.576 133.141 275.263C142.124 277.951 149.347 280.2 149.318 280.302Z" fill="white"/>
<path d="M254.87 192.971C254.624 193.21 254.355 193.423 254.066 193.607C253.541 193.994 252.752 194.534 251.766 195.177C246.608 198.513 241.076 201.232 235.283 203.276C234.173 203.663 233.267 203.955 232.632 204.138C232.31 204.255 231.977 204.338 231.639 204.386C231.943 204.229 232.26 204.099 232.588 203.999L235.195 203.028C237.386 202.188 240.388 200.946 243.601 199.376C246.814 197.806 249.633 196.185 251.635 194.958L254.001 193.497C254.272 193.294 254.564 193.118 254.87 192.971Z" fill="white"/>
<path d="M269.418 234.468C269.037 234.684 268.642 234.872 268.235 235.03C267.468 235.373 266.328 235.826 264.912 236.345C257.506 239.042 249.73 240.589 241.856 240.931C240.344 240.997 239.124 241.011 238.277 240.982C237.841 240.992 237.404 240.972 236.97 240.924C237.402 240.858 237.84 240.829 238.277 240.836C239.117 240.836 240.337 240.763 241.841 240.661C245.753 240.412 249.644 239.907 253.49 239.149C257.332 238.377 261.12 237.357 264.831 236.096C266.255 235.607 267.402 235.191 268.191 234.891C268.587 234.715 268.997 234.574 269.418 234.468Z" fill="white"/>
<path d="M248.428 300.839C248.423 300.701 248.435 300.564 248.465 300.43C248.509 300.13 248.574 299.75 248.648 299.283C248.721 298.816 248.83 298.173 248.903 297.457C248.976 296.742 249.1 295.938 249.13 295.033C249.13 294.587 249.188 294.112 249.217 293.623C249.246 293.134 249.217 292.615 249.217 292.089C249.217 291.031 249.173 289.899 249.115 288.708C248.923 286.13 248.53 283.571 247.939 281.054C247.319 278.544 246.506 276.085 245.507 273.7C245.011 272.619 244.565 271.575 244.047 270.648C243.798 270.18 243.572 269.72 243.316 269.289L242.586 268.077C242.14 267.288 241.658 266.616 241.271 266.025C240.884 265.433 240.541 264.922 240.212 264.52L239.526 263.578C239.438 263.474 239.364 263.359 239.307 263.235C239.408 263.323 239.501 263.421 239.584 263.527L240.315 264.433C240.712 264.9 241.085 265.387 241.432 265.893C241.841 266.485 242.338 267.142 242.798 267.923L243.528 269.136C243.784 269.559 244.017 270.027 244.258 270.494C244.784 271.422 245.252 272.466 245.719 273.554C247.823 278.339 249.059 283.461 249.371 288.679C249.414 289.877 249.48 291.016 249.436 292.082C249.436 292.615 249.436 293.134 249.392 293.63C249.349 294.127 249.319 294.594 249.283 295.047C249.232 295.96 249.086 296.763 248.991 297.479C248.896 298.195 248.786 298.808 248.677 299.298C248.567 299.787 248.487 300.138 248.421 300.444C248.438 300.575 248.44 300.707 248.428 300.839Z" fill="white"/>
<path d="M276.604 278.455C276.567 278.455 276.545 277.856 276.377 276.804C276.119 275.319 275.626 273.884 274.917 272.554C273.878 270.578 272.478 268.815 270.791 267.354C268.735 265.55 266.352 264.157 263.772 263.249C261.177 262.383 258.467 261.91 255.732 261.847C253.494 261.785 251.254 261.87 249.027 262.103C247.121 262.278 245.58 262.475 244.514 262.592L243.287 262.724C243.144 262.743 242.999 262.743 242.856 262.724C242.99 262.674 243.13 262.642 243.272 262.629L244.492 262.424C245.551 262.256 247.092 262.03 248.998 261.811C251.237 261.544 253.492 261.431 255.746 261.475C258.519 261.53 261.267 262.005 263.896 262.884C266.521 263.814 268.942 265.242 271.024 267.091C272.731 268.59 274.134 270.402 275.158 272.429C275.851 273.803 276.303 275.285 276.494 276.811C276.552 277.223 276.581 277.638 276.582 278.053C276.604 278.186 276.612 278.32 276.604 278.455Z" fill="white"/>
<path d="M198.037 257.312C197.902 257.353 197.762 257.378 197.621 257.385L196.43 257.509L192.048 257.874C188.346 258.159 183.226 258.51 177.573 258.802C171.921 259.094 166.787 259.277 163.069 259.32C161.214 259.32 159.71 259.32 158.688 259.32H157.497C157.357 259.325 157.217 259.31 157.081 259.277C157.218 259.248 157.357 259.236 157.497 259.24H158.688L163.069 259.13C166.772 259.021 171.899 258.802 177.552 258.502L192.026 257.684L196.408 257.436L197.606 257.385C197.746 257.342 197.891 257.317 198.037 257.312Z" fill="white"/>
<g opacity="0.3">
<path d="M202.28 258.831C206.881 260.182 213.235 260.511 217.741 258.831C214.235 263.819 207.465 265.623 201.586 264.002C195.707 262.38 190.296 256.501 189.843 250.418C192.691 254.252 197.679 257.465 202.28 258.831Z" fill="black"/>
</g>
<path d="M239.592 254.018C239.471 254.063 239.346 254.097 239.219 254.121L238.16 254.347C237.233 254.537 235.896 254.785 234.231 255.077C230.908 255.662 226.3 256.377 221.195 257.005C216.09 257.633 211.438 258.042 208.049 258.276C206.37 258.393 205.004 258.473 204.062 258.51L202.981 258.546C202.855 258.567 202.727 258.567 202.601 258.546C202.723 258.515 202.848 258.495 202.974 258.488L204.055 258.378L208.028 258.02C211.387 257.721 216.017 257.29 221.129 256.64C226.242 255.99 230.835 255.34 234.165 254.829L238.109 254.215L239.19 254.062C239.32 254.024 239.456 254.009 239.592 254.018Z" fill="white"/>
<g opacity="0.3">
<path d="M231.938 221.505C230.784 234.723 234.385 247.84 237.956 260.62C238.115 261.414 238.449 262.163 238.934 262.811C239.185 263.135 239.534 263.369 239.929 263.478C240.324 263.588 240.744 263.566 241.125 263.417C242.243 262.848 242.089 261.226 241.775 260.029L231.85 222.053" fill="black"/>
</g>
<path d="M47.0228 234.672L62.0307 308.361H192.318C193.008 308.361 193.669 308.087 194.157 307.599C194.644 307.112 194.918 306.45 194.918 305.761C194.918 305.071 194.644 304.41 194.157 303.923C193.669 303.435 193.008 303.161 192.318 303.161H166.086L152.173 234.628C152.043 233.99 151.698 233.416 151.196 233.001C150.693 232.587 150.064 232.357 149.413 232.35L49.8418 231.262C49.4174 231.256 48.9972 231.346 48.612 231.525C48.2269 231.703 47.8866 231.965 47.6162 232.293C47.3458 232.62 47.1521 233.003 47.0494 233.415C46.9467 233.827 46.9376 234.257 47.0228 234.672Z" fill="#E0E0E0"/>
<path d="M47.0228 234.672C47.0036 234.6 46.989 234.527 46.979 234.453C46.951 234.23 46.951 234.004 46.979 233.781C47.0306 233.341 47.1816 232.918 47.4208 232.545C47.6599 232.172 47.9809 231.858 48.3593 231.627C48.6262 231.468 48.9173 231.355 49.2211 231.291C49.558 231.228 49.9013 231.206 50.2435 231.225H52.5878L58.4303 231.276L96.0779 231.634L122.325 231.897L137.034 232.05L144.746 232.131L148.682 232.167C149.018 232.167 149.332 232.167 149.69 232.167C150.041 232.202 150.383 232.301 150.698 232.459C151.35 232.766 151.869 233.297 152.159 233.957C152.286 234.279 152.376 234.615 152.429 234.957L152.633 235.95C152.765 236.608 152.904 237.272 153.035 237.937C153.313 239.273 153.583 240.617 153.86 241.961L155.525 250.162C156.65 255.688 157.799 261.343 158.972 267.127C161.324 278.681 163.771 290.695 166.276 303.081L166.1 302.935H191.895C192.234 302.918 192.575 302.938 192.91 302.993C193.609 303.166 194.215 303.6 194.604 304.205C194.826 304.527 194.977 304.892 195.049 305.276C195.12 305.661 195.11 306.055 195.019 306.436C194.928 306.816 194.759 307.172 194.521 307.483C194.284 307.793 193.984 308.05 193.64 308.237C193.263 308.441 192.842 308.553 192.413 308.565H158.476H123.202H62.0308H61.9212V308.456C57.3276 285.816 53.5957 267.383 51.0103 254.617C49.7323 248.234 48.7318 243.268 48.0526 239.894C47.7166 238.207 47.461 236.922 47.3223 236.053C47.1835 235.184 47.0813 234.738 47.0813 234.738C47.0813 234.738 47.1835 235.184 47.3661 236.045L48.1694 239.872C48.8632 243.246 49.8857 248.212 51.2002 254.581L62.2279 308.405L62.0892 308.288H123.26H192.465C192.837 308.274 193.201 308.176 193.531 308.003C193.829 307.839 194.09 307.615 194.296 307.344C194.502 307.074 194.649 306.763 194.728 306.432C194.806 306.101 194.814 305.757 194.751 305.422C194.689 305.088 194.557 304.77 194.363 304.49C194.021 303.987 193.498 303.634 192.903 303.504C192.591 303.455 192.276 303.435 191.961 303.446H165.94V303.307C163.427 290.892 160.995 278.9 158.636 267.346C157.463 261.572 156.317 255.917 155.197 250.381L153.488 242.07C153.218 240.719 152.947 239.383 152.677 238.046C152.538 237.382 152.407 236.717 152.268 236.053L152.071 235.067C152.023 234.744 151.937 234.427 151.815 234.125C151.571 233.543 151.129 233.067 150.567 232.781C150.285 232.642 149.981 232.553 149.668 232.518C149.362 232.518 149.011 232.518 148.69 232.518L144.746 232.474L137.034 232.386L122.333 232.211L96.0852 231.904L58.4376 231.444L52.5951 231.364L50.2508 231.327C49.914 231.307 49.576 231.324 49.243 231.379C48.9479 231.445 48.6647 231.556 48.4031 231.707C48.027 231.928 47.7068 232.233 47.4675 232.598C47.2281 232.963 47.076 233.377 47.0228 233.811C46.9863 234.097 46.9863 234.386 47.0228 234.672Z" fill="#263238"/>
<path d="M107.055 268.42C107.055 269.271 106.802 270.102 106.33 270.81C105.857 271.517 105.185 272.069 104.399 272.394C103.613 272.72 102.748 272.805 101.914 272.639C101.079 272.473 100.313 272.063 99.7114 271.462C99.1098 270.86 98.7001 270.094 98.5341 269.259C98.3682 268.425 98.4533 267.56 98.7789 266.774C99.1045 265.988 99.6558 265.316 100.363 264.843C101.071 264.371 101.902 264.118 102.753 264.118C103.894 264.118 104.988 264.572 105.795 265.378C106.601 266.185 107.055 267.279 107.055 268.42Z" fill="white"/>
<path d="M47.1397 235.271C47.1397 235.271 47.2931 235.271 47.5925 235.271H53.9754L72.6057 235.359L134.061 235.79L142.949 235.863H145.14C145.514 235.845 145.889 235.867 146.258 235.928C146.632 236.002 146.989 236.145 147.309 236.352C147.96 236.763 148.432 237.405 148.631 238.149C148.799 238.879 148.916 239.551 149.062 240.252C150.165 245.802 151.253 251.155 152.239 256.253C154.255 266.477 156.073 275.643 157.592 283.362L161.178 301.62C161.587 303.774 161.908 305.447 162.135 306.593C162.237 307.156 162.317 307.587 162.376 307.893C162.434 308.2 162.441 308.332 162.441 308.332C162.441 308.332 162.398 308.186 162.339 307.901C162.281 307.616 162.179 307.17 162.062 306.608C161.828 305.462 161.485 303.796 161.039 301.649C160.163 297.326 158.907 291.089 157.344 283.391L151.91 256.297C150.895 251.185 149.822 245.846 148.719 240.296C148.573 239.609 148.441 238.894 148.295 238.222C148.114 237.566 147.695 237.001 147.119 236.637C146.833 236.463 146.515 236.344 146.185 236.286C145.84 236.229 145.49 236.21 145.14 236.228H142.949L134.061 236.162L72.5984 235.622L53.9754 235.417L48.9071 235.344H47.5925L47.1397 235.271Z" fill="#263238"/>
<path d="M221.137 123.358C221.287 130.172 219.993 136.94 217.339 143.217C214.686 149.494 210.733 155.139 205.742 159.779C203.439 153.133 201.143 146.487 198.855 139.841" fill="#263238"/>
<path d="M169.255 83.7021C175.163 80.4741 182.299 80.0067 188.901 81.3286C195.503 82.6505 201.652 85.6374 207.48 89.0115C210.752 90.903 214.009 92.9844 216.36 95.9349C220.647 101.332 224.89 110.198 225.299 117.114C225.635 122.679 223.503 136.606 221.151 141.66C218.997 146.297 208.897 149.832 203.909 150.979L158.162 97.7387C158.989 94.7808 160.395 92.0167 162.3 89.607C164.204 87.1973 166.568 85.1902 169.255 83.7021Z" fill="#263238"/>
<path d="M161.368 90.8738L172.323 88.9166C166.327 103.194 164.698 135.839 161.273 150.942C157.227 145.099 147.842 127.207 148.346 120.101C148.85 112.995 148.376 89.6688 161.368 90.8738Z" fill="#263238"/>
<path d="M213.373 114.638C212.782 106.298 207.378 99.4623 199.278 97.3955L174.017 90.9541C163.106 89.7783 155.817 103.201 155.102 114.156C154.306 126.33 153.816 139.169 155.241 148.254C158.096 166.512 172.089 168.878 172.089 168.878C172.089 168.878 172.089 177.569 172.089 182.9L180.539 217.89L207.772 180.264L213.41 114.872C213.432 114.551 213.373 115.054 213.373 114.638Z" fill="#FFBE9D"/>
<path d="M160.586 127.952C160.58 128.562 160.813 129.151 161.234 129.593C161.656 130.035 162.233 130.295 162.843 130.318C163.141 130.342 163.441 130.306 163.725 130.212C164.009 130.118 164.271 129.969 164.496 129.772C164.722 129.575 164.905 129.336 165.036 129.067C165.168 128.798 165.244 128.506 165.26 128.207C165.267 127.598 165.035 127.01 164.615 126.568C164.195 126.127 163.62 125.866 163.011 125.841C162.712 125.816 162.412 125.852 162.127 125.945C161.842 126.038 161.579 126.188 161.353 126.384C161.127 126.581 160.943 126.821 160.811 127.09C160.679 127.36 160.603 127.653 160.586 127.952Z" fill="#263238"/>
<path d="M157.87 121.306C158.162 121.613 159.936 120.305 162.456 120.313C164.976 120.32 166.838 121.591 167.094 121.284C167.232 121.145 166.933 120.597 166.13 120.006C165.041 119.249 163.745 118.846 162.42 118.852C161.11 118.847 159.832 119.256 158.768 120.021C157.965 120.619 157.702 121.167 157.87 121.306Z" fill="#263238"/>
<path d="M182.554 127.952C182.548 128.562 182.78 129.151 183.202 129.593C183.623 130.035 184.201 130.295 184.811 130.318C185.11 130.343 185.411 130.307 185.695 130.213C185.98 130.12 186.243 129.969 186.469 129.772C186.694 129.574 186.878 129.333 187.008 129.063C187.139 128.793 187.214 128.5 187.228 128.2C187.234 127.591 187.003 127.003 186.583 126.561C186.163 126.119 185.588 125.858 184.979 125.834C184.68 125.809 184.378 125.844 184.093 125.938C183.808 126.032 183.544 126.182 183.318 126.38C183.092 126.577 182.908 126.818 182.777 127.088C182.645 127.358 182.57 127.652 182.554 127.952Z" fill="#263238"/>
<path d="M181.773 121.306C182.065 121.613 183.847 120.305 186.366 120.313C188.886 120.32 190.748 121.591 191.004 121.284C191.135 121.145 190.843 120.597 190.04 120.006C188.956 119.255 187.67 118.853 186.352 118.852C185.042 118.85 183.765 119.259 182.7 120.021C181.897 120.619 181.634 121.167 181.773 121.306Z" fill="#263238"/>
<path d="M173.937 141.097C173.937 140.959 172.381 140.681 169.84 140.367C169.197 140.301 168.591 140.17 168.481 139.732C168.428 139.066 168.581 138.401 168.919 137.826C169.528 136.272 170.166 134.639 170.833 132.925C173.491 125.958 175.412 120.225 175.134 120.123C174.857 120.021 172.469 125.578 169.81 132.538C169.168 134.252 168.557 135.893 167.977 137.46C167.57 138.236 167.449 139.131 167.634 139.987C167.727 140.215 167.87 140.418 168.054 140.581C168.238 140.745 168.456 140.864 168.693 140.929C169.047 141.031 169.413 141.083 169.781 141.083C172.301 141.229 173.885 141.243 173.937 141.097Z" fill="#263238"/>
<path d="M196.313 162.371C196.313 162.371 190.369 174.94 172.096 173.165V168.871C180.615 168.988 188.998 166.738 196.313 162.371Z" fill="#EB996E"/>
<path d="M182.569 112.199C182.817 112.885 185.329 112.564 188.287 112.929C191.245 113.294 193.633 114.105 194.027 113.492C194.203 113.192 193.786 112.549 192.822 111.885C191.543 111.065 190.085 110.564 188.572 110.424C187.06 110.239 185.526 110.415 184.095 110.935C183.007 111.337 182.459 111.87 182.569 112.199Z" fill="#263238"/>
<path d="M158.666 113.594C159.104 114.171 160.857 113.594 162.931 113.557C165.005 113.521 166.787 113.952 167.196 113.353C167.371 113.061 167.094 112.491 166.327 111.943C165.29 111.294 164.084 110.966 162.861 111.001C161.638 111.036 160.452 111.432 159.454 112.14C158.71 112.725 158.469 113.316 158.666 113.594Z" fill="#263238"/>
<path d="M160.061 97.4685C161.178 94.7225 164.194 93.0866 167.152 92.926C170.11 92.7653 172.994 93.8973 175.58 95.3798C186.454 101.668 192.048 116.851 202.791 123.358C205.435 124.957 208.875 123.49 211.124 125.607C213.373 127.725 214.827 131.114 213.585 133.94C215.125 132.029 216.381 129.906 217.317 127.638C218.135 125.323 218.237 122.642 217.01 120.517C216.083 118.903 214.44 117.676 213.994 115.872C213.592 114.28 214.221 112.622 214.155 110.987C213.969 109.324 213.396 107.728 212.482 106.327C208.268 98.8853 202.477 92.1518 195.021 87.9598C190.152 85.1491 184.611 83.7176 178.99 83.819C173.338 83.9457 167.917 86.0936 163.712 89.8733C161.309 92.1153 158.783 94.4304 160.061 97.4685Z" fill="#263238"/>
<path d="M210.861 127.871C211.051 127.346 220.582 123.913 220.706 134.035C220.83 143.873 210.905 141.937 210.883 141.652C210.861 141.368 210.861 127.871 210.861 127.871Z" fill="#FFBE9D"/>
<path d="M213.885 137.899C213.928 137.899 214.053 138.015 214.345 138.147C214.757 138.311 215.217 138.311 215.63 138.147C216.66 137.76 217.522 136.095 217.551 134.327C217.571 133.483 217.401 132.644 217.054 131.874C216.957 131.568 216.787 131.29 216.56 131.063C216.332 130.837 216.053 130.669 215.747 130.574C215.551 130.523 215.343 130.542 215.16 130.629C214.977 130.716 214.831 130.864 214.746 131.048C214.615 131.326 214.681 131.523 214.622 131.538C214.564 131.552 214.41 131.377 214.491 130.968C214.544 130.726 214.678 130.51 214.871 130.354C215.002 130.251 215.154 130.174 215.315 130.129C215.477 130.084 215.646 130.071 215.813 130.092C216.218 130.167 216.597 130.346 216.913 130.611C217.229 130.875 217.471 131.217 217.617 131.603C218.046 132.448 218.26 133.387 218.237 134.335C218.193 136.321 217.2 138.183 215.776 138.607C215.514 138.687 215.238 138.706 214.967 138.664C214.697 138.623 214.439 138.521 214.213 138.366C213.899 138.14 213.848 137.921 213.885 137.899Z" fill="#EB996E"/>
<path d="M214.776 122.818C214.569 122.725 214.371 122.615 214.184 122.489C213.804 122.248 213.22 121.927 212.534 121.437C210.594 120.02 208.811 118.399 207.217 116.603C204.897 113.914 202.73 111.098 200.724 108.168C198.309 104.576 195.594 101.195 192.611 98.06C191.018 96.4937 189.26 95.1052 187.367 93.9192C185.593 92.8378 183.695 91.9747 181.714 91.3485C178.352 90.2698 174.816 89.8362 171.293 90.0704C168.915 90.2154 166.568 90.6746 164.311 91.4361C163.5 91.6844 162.901 91.9546 162.485 92.1153C162.278 92.2101 162.063 92.2859 161.843 92.3417C162.037 92.2251 162.24 92.1226 162.449 92.035C163.034 91.7547 163.637 91.5108 164.253 91.3047C166.507 90.4654 168.871 89.9539 171.271 89.7856C174.836 89.4939 178.423 89.8906 181.838 90.9541C183.858 91.5763 185.793 92.4446 187.601 93.5394C189.522 94.7429 191.307 96.1509 192.925 97.7387C195.927 100.905 198.65 104.326 201.06 107.963C203.044 110.894 205.18 113.719 207.458 116.427C209.02 118.227 210.755 119.871 212.636 121.335C213.308 121.839 213.87 122.182 214.228 122.445C214.42 122.554 214.604 122.679 214.776 122.818Z" fill="#455A64"/>
<path d="M215.002 139.637C215.486 139.547 215.986 139.646 216.4 139.912C216.814 140.179 217.111 140.593 217.231 141.071C217.35 141.548 217.283 142.054 217.043 142.484C216.803 142.913 216.408 143.236 215.939 143.385C215.469 143.534 214.961 143.498 214.517 143.285C214.073 143.073 213.727 142.699 213.549 142.24C213.371 141.781 213.374 141.271 213.559 140.815C213.743 140.358 214.095 139.989 214.542 139.783" fill="white"/>
<path d="M214.542 139.783C214.12 140.123 213.811 140.584 213.658 141.105C213.588 141.373 213.586 141.654 213.653 141.923C213.719 142.192 213.851 142.441 214.038 142.646C214.258 142.905 214.549 143.093 214.875 143.187C215.201 143.281 215.548 143.277 215.871 143.174C216.195 143.072 216.481 142.877 216.694 142.613C216.907 142.348 217.038 142.027 217.069 141.689C217.099 141.416 217.061 141.14 216.959 140.886C216.857 140.631 216.694 140.405 216.485 140.228C216.067 139.894 215.558 139.695 215.024 139.659C215.024 139.659 215.17 139.556 215.484 139.549C215.929 139.553 216.361 139.704 216.711 139.98C216.984 140.183 217.201 140.453 217.339 140.763C217.477 141.074 217.533 141.416 217.5 141.755C217.472 142.178 217.317 142.584 217.055 142.918C216.794 143.252 216.437 143.5 216.033 143.629C215.628 143.757 215.194 143.761 214.787 143.639C214.381 143.517 214.02 143.275 213.753 142.945C213.532 142.688 213.381 142.378 213.314 142.045C213.248 141.713 213.268 141.369 213.373 141.046C213.49 140.621 213.747 140.247 214.104 139.987C214.359 139.79 214.535 139.761 214.542 139.783Z" fill="#263238"/>
<path d="M212.3 125.6C212.453 128.288 212.577 131.121 211.336 133.509C210.094 135.898 206.954 137.526 204.632 136.19C202.725 135.102 202.156 132.655 201.827 130.486C200.9 124.22 200.469 117.888 199.483 111.629L212.3 125.6Z" fill="#263238"/>
<path d="M162.485 92.7945C162.485 92.8456 163.354 92.6265 164.925 92.5754C167.153 92.5414 169.366 92.9459 171.439 93.7658C172.868 94.3195 174.235 95.0246 175.514 95.8691C176.981 96.8534 178.385 97.9266 179.721 99.0825C182.815 101.699 185.581 104.681 187.959 107.963C189.207 109.716 190.318 111.52 191.515 113.192C192.653 114.818 193.976 116.306 195.459 117.625C198.01 119.787 200.798 121.651 203.77 123.183C206.289 124.512 208.393 125.447 209.846 126.104L211.526 126.834C211.719 126.929 211.923 127.003 212.132 127.053C211.959 126.928 211.773 126.823 211.577 126.739L209.934 125.929C208.473 125.198 206.435 124.234 203.96 122.869C201.041 121.297 198.303 119.412 195.795 117.245C194.347 115.94 193.058 114.469 191.953 112.864C190.778 111.213 189.675 109.409 188.411 107.634C186.008 104.318 183.202 101.312 180.057 98.6881C178.693 97.529 177.259 96.4558 175.762 95.4748C174.448 94.6305 173.044 93.9326 171.578 93.3934C169.454 92.5884 167.185 92.2353 164.917 92.3563C164.305 92.392 163.697 92.4775 163.099 92.6119C162.887 92.6444 162.68 92.7058 162.485 92.7945Z" fill="#455A64"/>
<path d="M212.57 119.524C212.836 119.752 213.128 119.948 213.439 120.108L215.937 121.569L216.769 122.044C217.098 122.243 217.468 122.365 217.85 122.401C218.083 122.427 218.317 122.373 218.515 122.248C218.62 122.174 218.708 122.077 218.771 121.965C218.835 121.852 218.872 121.727 218.88 121.598C218.858 121.147 218.698 120.713 218.42 120.356L215.499 115.726L215.104 116.084C217.033 117.505 219.395 118.21 221.787 118.078C222.092 118.076 222.396 118.024 222.685 117.925C222.847 117.872 222.995 117.785 223.121 117.671C223.247 117.556 223.347 117.416 223.415 117.26C223.471 117.093 223.485 116.916 223.456 116.742C223.427 116.569 223.355 116.406 223.247 116.267C223.085 116.043 222.899 115.837 222.692 115.653C221.393 114.398 220.266 112.976 219.34 111.425C218.523 109.968 217.811 108.455 217.208 106.897C217.253 107.349 217.359 107.794 217.522 108.219C217.889 109.401 218.379 110.541 218.982 111.622C219.88 113.233 221.001 114.708 222.312 116.004C222.678 116.354 223.043 116.734 222.904 117.063C222.765 117.391 222.225 117.53 221.706 117.53C220.581 117.587 219.455 117.451 218.376 117.129C217.301 116.813 216.286 116.319 215.374 115.668L214.206 114.806L214.987 116.026L217.909 120.619C218.137 120.894 218.281 121.229 218.325 121.583C218.325 121.861 218.077 122.022 217.763 122C217.131 121.875 216.53 121.627 215.995 121.269L213.425 119.955C213.156 119.782 212.869 119.637 212.57 119.524Z" fill="#455A64"/>
<path d="M183.482 145.728C183.298 144.979 182.858 144.319 182.237 143.862C181.616 143.406 180.855 143.182 180.086 143.23C179.524 143.299 178.988 143.506 178.527 143.834C178.065 144.162 177.692 144.599 177.442 145.107C177.197 145.618 177.057 146.172 177.031 146.738C177.005 147.304 177.092 147.869 177.289 148.4L177.347 148.634C177.872 149.199 178.558 149.589 179.312 149.75C180.066 149.91 180.852 149.835 181.561 149.532C182.256 149.198 182.82 148.644 183.168 147.956C183.515 147.268 183.625 146.485 183.482 145.728Z" fill="#EB996E"/>
<path d="M175.514 148.707C175.514 148.327 178.063 148.444 179.983 146.356C181.904 144.267 181.751 141.536 182.109 141.536C182.269 141.536 182.576 142.164 182.547 143.318C182.495 144.809 181.918 146.234 180.918 147.342C179.954 148.407 178.613 149.057 177.179 149.153C176.127 149.197 175.492 148.883 175.514 148.707Z" fill="#263238"/>
<path d="M261.37 303.475C261.314 303.482 261.257 303.482 261.202 303.475L260.69 303.526L258.74 303.687C257.046 303.826 254.592 303.986 251.554 304.169C245.485 304.527 237.094 304.899 227.819 305.053C218.544 305.206 210.131 305.118 204.055 304.958C201.017 304.885 198.555 304.797 196.861 304.724L194.904 304.622H196.861L204.062 304.746C210.138 304.833 218.537 304.877 227.812 304.746C237.087 304.614 245.471 304.264 251.54 303.972L258.733 303.614L260.69 303.526H261.194L261.37 303.475Z" fill="white"/>
</svg>
