<svg width="78" height="72" viewBox="0 0 78 72" fill="none" xmlns="http://www.w3.org/2000/svg">
<path fill-rule="evenodd" clip-rule="evenodd" d="M64.735 0.5C69.6148 0.799468 73.6313 4.44934 74.395 9.27833L77.0017 54.55C77.5383 63.9033 71.29 71.57 63.3933 71.57H14.365C6.315 71.57 0.0283337 63.5583 0.718334 54.205L4.05333 9.27833C4.81705 4.44934 8.8335 0.799468 13.7133 0.5H64.735ZM57.6433 43.165H64.735L64.3517 43.3183C65.8548 43.3183 67.0733 42.0998 67.0733 40.5967C67.0733 39.0935 65.8548 37.875 64.3517 37.875H57.26C52.3095 38.1243 47.8942 41.0678 45.76 45.5417C44.3844 48.3285 41.5461 50.0928 38.4383 50.0928C35.3305 50.0928 32.4922 48.3285 31.1167 45.5417C28.9958 41.0563 24.5727 38.1076 19.6167 37.875H12.985C11.4819 37.875 10.2633 39.0935 10.2633 40.5967C10.2633 42.0998 11.4819 43.3183 12.985 43.3183H19.6167C22.607 43.4312 25.2907 45.1859 26.5933 47.88C28.9209 52.4268 33.5987 55.2872 38.7067 55.2872C43.8146 55.2872 48.4924 52.4268 50.82 47.88C52.0542 45.1731 54.6748 43.3622 57.6433 43.165Z" fill="white"/>
</svg>
