<svg width="393" height="272" viewBox="0 0 393 272" fill="none" xmlns="http://www.w3.org/2000/svg">
<path d="M377.832 68.5059C377.832 68.5059 373.284 65.7315 368.258 76.5463C363.231 87.361 361.398 93.568 361.398 93.568C361.398 93.568 360.044 95.8419 358.466 94.4439C356.888 93.0458 354.658 89.0039 352.068 89.8307C349.403 90.6957 348.625 93.7367 349.3 98.1376C349.974 102.539 351.089 112.233 351.193 113.108C351.296 113.984 350.839 115.285 349.61 114.479C348.38 113.674 341.199 106.26 337.87 109.877C334.541 113.495 338.414 125.446 338.838 126.741C339.263 128.036 338.996 128.629 338.376 128.982C337.756 129.336 335.58 126.605 333.48 124.571C331.38 122.536 328.524 120.556 326.783 122.803C325.043 125.049 324.781 134.134 333.937 148.539L338.615 154.937L346.541 154.208C363.405 151.618 370.075 145.449 370.619 142.659C371.163 139.868 367.812 139.041 364.885 138.78C361.958 138.519 358.466 138.666 358.324 137.969C358.183 137.273 358.455 136.713 359.712 136.152C360.968 135.592 372.517 130.652 373.056 125.762C373.595 120.871 363.264 120.371 361.866 119.957C360.468 119.544 361.142 118.358 361.866 117.863C362.589 117.368 370.63 111.825 374.378 109.436C378.126 107.048 379.856 104.475 378.768 101.897C377.68 99.4106 373.181 100.39 371.087 100.118C368.992 99.8458 369.819 97.3325 369.819 97.3325C369.819 97.3325 373.284 91.8925 378.115 80.9744C382.946 70.0563 377.729 68.4624 377.729 68.4624" fill="#F5F5F5"/>
<path d="M373.328 78.1837C373.328 78.1837 373.301 78.2653 373.236 78.4176C373.17 78.5699 373.072 78.8093 372.953 79.0976L371.832 81.6816C370.853 83.9283 369.417 87.1706 367.627 91.169C364.047 99.1658 359.01 110.165 353.407 122.297C347.804 134.428 342.723 145.428 339.1 153.408L334.818 162.857L333.654 165.425C333.518 165.708 333.415 165.931 333.344 166.089C333.31 166.165 333.272 166.239 333.23 166.312C333.254 166.232 333.283 166.154 333.317 166.078C333.388 165.915 333.48 165.692 333.6 165.403C333.861 164.799 334.242 163.929 334.72 162.814C335.7 160.567 337.136 157.33 338.925 153.332C342.505 145.335 347.542 134.335 353.146 122.199C358.749 110.062 363.813 99.0733 367.436 91.0982C369.243 87.1216 370.7 83.8957 371.718 81.6544L372.887 79.0867C373.018 78.7984 373.121 78.5808 373.197 78.4176C373.274 78.2544 373.328 78.1837 373.328 78.1837Z" fill="#E0E0E0"/>
<path d="M354.979 95.6189C355.077 95.7897 355.152 95.9726 355.202 96.1629C355.332 96.5056 355.501 97.0115 355.708 97.6371C356.11 98.8938 356.627 100.635 357.16 102.571L358.504 107.532C358.667 108.125 358.803 108.62 358.917 109.034C358.983 109.209 359.025 109.392 359.043 109.578C358.945 109.407 358.87 109.224 358.82 109.034C358.689 108.691 358.52 108.185 358.319 107.554C357.927 106.298 357.432 104.546 356.899 102.609L355.523 97.6589L355.104 96.1629C355.042 95.9869 355 95.8044 354.979 95.6189Z" fill="#E0E0E0"/>
<path d="M359.777 109.692C359.777 109.621 363.302 108.397 367.703 106.972C372.104 105.547 375.694 104.421 375.716 104.492C375.738 104.562 372.191 105.786 367.79 107.212C363.389 108.637 359.799 109.763 359.777 109.692Z" fill="#E0E0E0"/>
<path d="M350.328 127.938C350.521 127.902 350.718 127.885 350.915 127.889L352.504 127.835C353.842 127.786 355.697 127.715 357.737 127.557C359.777 127.399 361.621 127.214 362.959 127.062L364.537 126.883C364.731 126.846 364.928 126.836 365.124 126.85C364.948 126.914 364.766 126.959 364.58 126.986C364.211 127.057 363.672 127.149 363.008 127.247C361.681 127.448 359.831 127.677 357.786 127.829C355.74 127.981 353.88 128.025 352.531 128.02C351.862 128.02 351.318 128.02 350.942 127.992C350.736 128.002 350.529 127.984 350.328 127.938Z" fill="#E0E0E0"/>
<path d="M343.19 116.166C343.316 116.295 343.426 116.439 343.517 116.596C343.713 116.878 343.996 117.297 344.333 117.82C345.013 118.859 345.932 120.306 346.933 121.91C347.934 123.515 348.832 124.979 349.468 126.045C349.789 126.589 350.039 127.013 350.208 127.318C350.311 127.467 350.393 127.63 350.453 127.802C350.322 127.676 350.21 127.531 350.121 127.372C349.925 127.084 349.648 126.67 349.305 126.148C348.63 125.109 347.711 123.662 346.705 122.052C345.698 120.442 344.806 118.984 344.17 117.917C343.854 117.373 343.626 116.949 343.43 116.65C343.331 116.499 343.25 116.336 343.19 116.166Z" fill="#E0E0E0"/>
<path d="M332.8 131.213C332.959 131.379 333.099 131.561 333.219 131.757L334.269 133.324C335.139 134.651 336.336 136.495 337.642 138.54C338.947 140.586 340.117 142.452 340.949 143.806L341.928 145.438C342.055 145.631 342.164 145.835 342.255 146.048C342.097 145.881 341.956 145.699 341.836 145.504L340.791 143.937C339.916 142.604 338.719 140.76 337.413 138.715C336.107 136.669 334.943 134.803 334.106 133.449C333.714 132.807 333.387 132.263 333.132 131.817C333 131.628 332.889 131.425 332.8 131.213Z" fill="#E0E0E0"/>
<path d="M342.13 145.623C342.371 145.568 342.617 145.539 342.864 145.536L344.877 145.395C346.574 145.275 348.924 145.101 351.508 144.851C354.092 144.601 356.404 144.307 358.118 144.073L360.114 143.806C360.358 143.762 360.606 143.741 360.854 143.741C360.619 143.822 360.377 143.878 360.131 143.91C359.663 144.002 358.983 144.122 358.145 144.258C356.459 144.535 354.125 144.862 351.535 145.123C348.946 145.384 346.59 145.531 344.888 145.602C344.034 145.634 343.348 145.656 342.869 145.656C342.622 145.666 342.375 145.655 342.13 145.623Z" fill="#E0E0E0"/>
<path d="M53.8858 122.09C66.5773 113.62 69.6618 97.6099 69.4061 83.145C69.3571 80.7296 69.6672 78.1946 68.5357 76.073C67.4042 73.9514 64.7277 72.4499 62.5136 73.4346C60.6912 74.2506 59.8643 76.3232 58.8253 78.0314C57.424 80.3136 55.4087 82.1555 53.0099 83.3462C51.4432 84.1187 49.512 84.5757 47.9888 83.7162C45.8998 82.5411 45.6931 79.6634 45.7475 77.2643L46.0413 63.8602C46.0902 61.4611 46.1392 59.0131 45.4157 56.7229C44.6922 54.4326 43.0602 52.3002 40.759 51.6256C38.4579 50.951 35.5802 52.224 35.0525 54.5632C34.8349 55.537 35.0198 56.5542 34.9382 57.5498C34.8566 58.5453 34.3942 59.6387 33.4042 59.8998C32.4141 60.161 31.473 59.4701 30.7549 58.7629C28.2851 56.2986 26.6314 53.1597 25.0918 50.0589C23.5523 46.9581 22.0509 43.7322 19.8205 41.0611C17.5901 38.3901 14.4675 36.2467 10.9914 35.9965C7.51521 35.7462 3.77793 37.8189 2.83137 41.1754C1.88481 44.5318 3.84321 48.0026 5.97569 50.7715C9.15105 54.8734 12.9016 58.4956 17.1114 61.5264C17.873 62.0704 18.689 62.6634 18.9718 63.5555C19.4723 65.1875 17.9165 66.727 16.3062 67.233C14.4838 67.777 12.4982 67.5866 10.6269 67.777C8.75553 67.9674 6.66113 68.7616 5.91585 70.497C4.88769 72.9341 6.92225 75.5344 8.94049 77.248C12.9838 80.6804 17.5831 83.3977 22.5405 85.2829C24.3194 85.9574 26.1907 86.5504 27.6106 87.8125C29.0304 89.0746 29.8736 91.2397 28.976 92.9152C28.0784 94.5907 25.8317 95.0912 23.9658 94.7322C22.0998 94.3731 20.4406 93.3341 18.6672 92.6432C15.3434 91.3485 11.0512 91.5117 8.84801 94.3296C7.41185 96.1792 7.24865 98.785 7.92321 101.026C8.59777 103.268 10.0122 105.21 11.5136 107.01C16.7686 113.288 23.5469 118.38 31.2499 121.154C38.953 123.929 46.1174 124.745 53.8586 122.079" fill="#EBEBEB"/>
<path d="M52.912 122.367C50.872 115.051 45.296 97.833 41.9504 89.7274L39.4643 83.7434C38.6429 81.7795 37.8323 79.8375 36.913 77.9824C35.1464 74.4315 33.185 70.9809 31.0378 67.6464C29.0032 64.4368 26.9578 61.4666 25.0538 58.6976C23.1498 55.9286 21.2458 53.399 19.4614 51.1523C16.6477 47.5922 13.5552 44.2615 10.2134 41.1917C9.03297 40.1037 8.09185 39.2877 7.44449 38.7437L6.67201 38.08C6.50337 37.944 6.41089 37.8787 6.41089 37.8787C6.41089 37.8787 6.48705 37.9603 6.64481 38.1072L7.36289 38.7491C7.98849 39.2931 8.91873 40.1418 10.0829 41.2461C13.3745 44.3521 16.4294 47.6998 19.2221 51.2611C20.9955 53.5133 22.8343 56.0592 24.7655 58.8227C26.6967 61.5862 28.7203 64.5674 30.7495 67.7715C32.8832 71.1072 34.8319 74.5578 36.5866 78.1075C37.495 79.9571 38.3056 81.9155 39.1271 83.8576C39.9485 85.7997 40.7591 87.8234 41.6131 89.8416C44.937 97.9363 50.5293 115.138 52.5856 122.433" fill="#E0E0E0"/>
<path d="M36.7987 77.9443C36.9113 77.6119 36.9915 77.2694 37.0381 76.9216C37.1687 76.2579 37.3319 75.2896 37.5168 74.1037C37.8922 71.721 38.3002 68.4134 38.7408 64.7632C39.1815 61.113 39.6439 57.8218 40.0682 55.4499C40.2749 54.264 40.4544 53.3066 40.6122 52.6483C40.6972 52.3091 40.7536 51.9634 40.7808 51.6147C40.6477 51.9379 40.5457 52.2731 40.4762 52.6157C40.2967 53.2685 40.0791 54.2477 39.8397 55.4064C39.312 57.7674 38.8224 61.0694 38.3818 64.736C37.9411 68.4026 37.5603 71.6285 37.2666 74.0874C37.1197 75.2298 36.9946 76.1818 36.8967 76.9162C36.835 77.2555 36.8023 77.5994 36.7987 77.9443Z" fill="#E0E0E0"/>
<path d="M5.64929 71.7155C5.75319 71.7487 5.86124 71.767 5.97025 71.7699L6.89505 71.8624C7.70017 71.944 8.85889 72.0528 10.2842 72.2323C13.1402 72.5696 17.0733 73.1843 21.3818 74.0493C25.6903 74.9143 29.5418 75.888 32.3162 76.6659C33.7034 77.0467 34.8186 77.384 35.5802 77.6125L36.4723 77.8736C36.5734 77.9128 36.6797 77.9366 36.7879 77.9443C36.6973 77.8846 36.5982 77.8388 36.4941 77.8083C36.2547 77.7159 35.9501 77.6071 35.6237 77.4819C34.8675 77.2099 33.7578 76.8291 32.3597 76.3939C29.6016 75.5507 25.7392 74.5443 21.4253 73.6739C17.1114 72.8035 13.2 72.2541 10.3114 71.9767C8.88065 71.8298 7.71105 71.7591 6.90593 71.7264H5.97569C5.86777 71.7092 5.75812 71.7056 5.64929 71.7155Z" fill="#E0E0E0"/>
<path d="M49.8765 112.407C49.9595 112.289 50.0305 112.163 50.0887 112.031L50.6327 110.943C51.1005 109.975 51.7207 108.561 52.5258 106.804C54.0816 103.295 56.0781 98.377 58.216 92.9261C60.3539 87.4752 62.3069 82.5248 63.792 78.9888L65.5763 74.8109C65.7722 74.3431 65.9354 73.9677 66.0605 73.6739C66.1222 73.5428 66.1713 73.4062 66.2074 73.2659C66.1195 73.3805 66.048 73.5069 65.9952 73.6413L65.4512 74.7293C64.9834 75.6976 64.336 77.112 63.5635 78.8637C62.0077 82.3779 60.0058 87.2957 57.8733 92.7466C55.7408 98.1975 53.777 103.126 52.281 106.662L50.4967 110.84L50.0179 111.977C49.9534 112.114 49.9059 112.258 49.8765 112.407Z" fill="#E0E0E0"/>
<path d="M8.57057 98.5837C8.70072 98.6517 8.83741 98.7064 8.97857 98.7469L10.1808 99.1549L14.609 100.64C18.3463 101.891 23.487 103.681 29.161 105.672C34.8349 107.663 39.9974 109.415 43.7565 110.606C45.6333 111.199 47.1619 111.667 48.2173 111.972L49.4413 112.314C49.5825 112.362 49.7284 112.395 49.8765 112.412C49.7444 112.343 49.606 112.286 49.463 112.244L48.2608 111.836L43.8326 110.361C40.0954 109.11 34.9546 107.32 29.2806 105.329C23.6067 103.338 18.4496 101.581 14.6906 100.395C12.8083 99.8022 11.2851 99.3344 10.2243 99.0298L9.00577 98.6816C8.86426 98.6348 8.71849 98.602 8.57057 98.5837Z" fill="#E0E0E0"/>
<path d="M262.765 38.2813H331.348L317.932 47.8176V55.7818C317.902 59.7168 316.311 63.4786 313.507 66.2402C310.704 69.0017 306.918 70.5368 302.983 70.5078H259.948C256.013 70.5368 252.227 69.0017 249.424 66.2402C246.62 63.4786 245.029 59.7168 244.998 55.7818C245.015 53.4659 245.489 51.1762 246.391 49.0433C247.293 46.9103 248.607 44.9761 250.257 43.3509C251.906 41.7257 253.86 40.4416 256.007 39.5717C258.153 38.7019 260.45 38.2634 262.765 38.2813Z" fill="#F5F5F5"/>
<path d="M306.362 48.9274C306.362 49.0035 294.938 49.0688 280.794 49.0688C266.65 49.0688 255.226 49.0035 255.226 48.9274C255.226 48.8512 266.65 48.7859 280.794 48.7859C294.938 48.7859 306.362 48.8458 306.362 48.9274Z" fill="#E0E0E0"/>
<path d="M306.362 54.2259C306.362 54.3021 294.938 54.3674 280.794 54.3674C266.65 54.3674 255.226 54.3021 255.226 54.2259C255.226 54.1498 266.65 54.0845 280.794 54.0845C294.938 54.0845 306.362 54.1443 306.362 54.2259Z" fill="#E0E0E0"/>
<path d="M158.715 201.508H77.5606L90.7798 211.072V229.84C90.7798 230.355 90.8813 230.865 91.0785 231.34C91.2757 231.816 91.5647 232.248 91.929 232.612C92.2933 232.975 92.7257 233.264 93.2015 233.46C93.6774 233.657 94.1873 233.758 94.7021 233.757H158.715C159.229 233.758 159.739 233.657 160.215 233.46C160.691 233.264 161.123 232.975 161.488 232.612C161.852 232.248 162.141 231.816 162.338 231.34C162.535 230.865 162.637 230.355 162.637 229.84V205.425C162.635 204.386 162.221 203.39 161.486 202.655C160.751 201.921 159.754 201.508 158.715 201.508Z" fill="#F5F5F5"/>
<path d="M155.331 214.771C155.331 214.853 143.091 214.913 127.995 214.913C112.899 214.913 100.659 214.853 100.659 214.771C100.659 214.69 112.893 214.63 127.995 214.63C143.096 214.63 155.331 214.695 155.331 214.771Z" fill="#E0E0E0"/>
<path d="M155.331 221.979C155.331 222.055 143.091 222.121 127.995 222.121C112.899 222.121 100.659 222.055 100.659 221.979C100.659 221.903 112.893 221.838 127.995 221.838C143.096 221.838 155.331 221.903 155.331 221.979Z" fill="#E0E0E0"/>
<path d="M324.412 109.018H229.435C217.78 109.018 208.333 118.465 208.333 130.119V207.422C208.333 219.076 217.78 228.524 229.435 228.524H324.412C336.066 228.524 345.513 219.076 345.513 207.422V130.119C345.513 118.465 336.066 109.018 324.412 109.018Z" fill="#378D91"/>
<g opacity="0.4">
<path d="M324.412 109.018H229.435C217.78 109.018 208.333 118.465 208.333 130.119V207.422C208.333 219.076 217.78 228.524 229.435 228.524H324.412C336.066 228.524 345.513 219.076 345.513 207.422V130.119C345.513 118.465 336.066 109.018 324.412 109.018Z" fill="black"/>
</g>
<path d="M345.475 150.677H366.022L345.013 171.692L345.475 150.677Z" fill="#378D91"/>
<g opacity="0.4">
<path d="M345.475 150.677H366.022L345.013 171.692L345.475 150.677Z" fill="black"/>
</g>
<path d="M205.047 163.597L196.436 153.805C194.107 151.477 193.308 150.356 193.775 149.948C194.396 149.404 194.129 149.584 198.965 153.212C198.965 153.212 192.111 147.973 194.488 147.941C194.907 147.941 196.071 148.615 197.317 149.431C195.62 147.99 195.141 147.016 195.473 146.554C196.017 145.748 200.216 148.659 202.148 150.057C200.57 148.882 197.562 146.603 197.034 145.884C196.305 144.905 197.779 144.987 198.976 145.395C200.32 145.852 207.745 149.644 209.943 150.623C210.119 150.728 210.316 150.794 210.52 150.815C210.724 150.837 210.931 150.814 211.125 150.749C211.319 150.683 211.497 150.576 211.646 150.435C211.795 150.294 211.912 150.122 211.989 149.932C212.799 146.526 215.253 144.312 216.188 144.024C217.124 143.736 217.847 144.932 217.178 145.803C216.549 146.816 216.062 147.91 215.731 149.056C215.428 149.955 215.279 150.898 215.291 151.847C215.291 152.935 215.367 153.876 215.437 154.665L223.309 165.463L210.144 173.079L205.047 163.597Z" fill="#B78876"/>
<path d="M201.968 154.735C201.881 154.855 200.336 153.805 198.552 152.385C196.767 150.965 195.375 149.714 195.478 149.6C195.581 149.486 197.11 150.541 198.894 151.95C200.679 153.359 202.044 154.61 201.968 154.735Z" fill="#AA6550"/>
<path d="M203.633 153.016C203.546 153.141 201.854 152.108 199.852 150.715C197.85 149.323 196.294 148.088 196.381 147.968C196.468 147.848 198.16 148.871 200.162 150.264C202.164 151.656 203.72 152.891 203.633 153.016Z" fill="#AA6550"/>
<path d="M204.851 151.188C204.764 151.314 203.143 150.367 201.234 149.072C199.324 147.778 197.845 146.63 197.926 146.499C198.008 146.369 199.629 147.321 201.544 148.615C203.459 149.91 204.933 151.063 204.851 151.188Z" fill="#AA6550"/>
<path d="M216.172 156.128L247.55 195.916L240.364 212.644C240.364 212.644 231.757 210.74 229.146 207.117C226.535 203.494 205.047 163.597 205.047 163.597L216.172 156.128Z" fill="#B78876"/>
<path d="M295.824 100.466C298.082 102.424 298.077 105.873 297.815 108.849C297.554 111.825 297.353 115.214 299.415 117.379C301.117 119.163 304.202 119.941 304.594 122.373C304.686 122.944 304.6 123.53 304.346 124.05C304.092 124.571 303.684 124.999 303.176 125.278C302.669 125.556 302.087 125.671 301.512 125.606C300.937 125.54 300.396 125.298 299.964 124.913C300.628 126.834 300.171 129.233 298.506 130.397C296.842 131.561 294.051 130.843 293.534 128.879C293.619 129.207 293.635 129.549 293.581 129.883C293.528 130.217 293.406 130.537 293.224 130.822C293.041 131.108 292.802 131.352 292.521 131.541C292.24 131.73 291.923 131.858 291.59 131.919C291.257 131.98 290.915 131.971 290.585 131.894C290.255 131.816 289.945 131.672 289.674 131.469C289.402 131.267 289.176 131.011 289.008 130.716C288.84 130.422 288.734 130.097 288.698 129.76" fill="#263238"/>
<path d="M263.494 120.55C263.191 121.279 262.61 121.857 261.88 122.158C261.15 122.458 260.331 122.456 259.602 122.152C258.873 121.849 258.295 121.268 257.995 120.538C257.694 119.808 257.696 118.989 258 118.26C258.517 117.129 259.741 116.313 259.86 115.072C260.002 113.576 258.473 112.505 257.14 111.852C255.808 111.199 254.197 110.35 254.051 108.849C253.904 107.348 255.204 106.276 256.286 105.308C257.369 104.339 258.462 102.838 257.772 101.548C257.429 100.885 256.716 100.509 256.254 99.9165C255.236 98.6218 255.77 96.56 257.07 95.5645C258.37 94.569 260.165 94.4112 261.786 94.6995C263.407 94.9878 264.931 95.6624 266.508 96.1357C269.123 96.8961 271.868 97.106 274.568 96.7521C277.269 96.3981 279.866 95.4881 282.197 94.0794" fill="#263238"/>
<path d="M273.129 155.633C275.939 156.2 278.86 155.64 281.261 154.072C283.662 152.505 285.35 150.057 285.962 147.255L293.681 111.863C294.163 109.819 294.23 107.699 293.878 105.629C293.527 103.559 292.764 101.581 291.634 99.8107C290.505 98.0406 289.032 96.515 287.302 95.3241C285.573 94.1332 283.623 93.3011 281.566 92.8771L280.761 92.7574C276.828 92.1793 272.822 93.1039 269.541 95.3471C266.259 97.5902 263.943 100.987 263.054 104.861C261.335 112.331 259.534 120.605 258.99 124.668C257.864 133.084 266.062 135.619 266.062 135.619L264.588 142.691C264.296 144.1 264.285 145.553 264.555 146.966C264.826 148.38 265.374 149.726 266.166 150.927C266.959 152.128 267.981 153.16 269.174 153.965C270.367 154.77 271.707 155.331 273.118 155.617L273.129 155.633Z" fill="#B78876"/>
<path d="M264.566 110.432C264.518 110.744 264.594 111.063 264.776 111.321C264.959 111.579 265.235 111.755 265.545 111.814C265.696 111.848 265.852 111.852 266.004 111.825C266.156 111.798 266.301 111.742 266.43 111.658C266.56 111.574 266.672 111.466 266.759 111.338C266.846 111.211 266.907 111.067 266.938 110.916C266.989 110.604 266.915 110.285 266.733 110.027C266.551 109.768 266.275 109.592 265.964 109.534C265.813 109.5 265.657 109.496 265.505 109.523C265.352 109.55 265.207 109.606 265.077 109.69C264.947 109.773 264.834 109.882 264.747 110.01C264.659 110.137 264.598 110.281 264.566 110.432Z" fill="#263238"/>
<path d="M264.256 109.235C264.381 109.415 265.388 108.871 266.682 109.067C267.977 109.262 268.82 110.04 268.983 109.904C269.065 109.844 268.951 109.54 268.586 109.181C268.084 108.712 267.45 108.41 266.769 108.316C266.098 108.215 265.413 108.329 264.811 108.642C264.37 108.892 264.196 109.154 264.256 109.235Z" fill="#263238"/>
<path d="M277.181 112.499C277.132 112.812 277.207 113.131 277.39 113.389C277.573 113.647 277.85 113.824 278.161 113.881C278.312 113.915 278.468 113.919 278.62 113.892C278.772 113.865 278.918 113.807 279.047 113.723C279.177 113.639 279.289 113.53 279.376 113.402C279.463 113.274 279.523 113.13 279.553 112.978C279.602 112.666 279.527 112.347 279.344 112.09C279.161 111.833 278.885 111.657 278.574 111.602C278.424 111.567 278.268 111.562 278.115 111.589C277.963 111.615 277.818 111.672 277.688 111.755C277.558 111.839 277.446 111.948 277.359 112.076C277.272 112.204 277.212 112.348 277.181 112.499Z" fill="#263238"/>
<path d="M276.909 111.335C277.035 111.509 278.041 110.971 279.33 111.166C280.62 111.362 281.474 112.14 281.637 112.004C281.713 111.944 281.604 111.64 281.234 111.281C280.732 110.812 280.098 110.51 279.417 110.416C278.746 110.314 278.061 110.429 277.459 110.742C277.04 110.976 276.844 111.253 276.909 111.335Z" fill="#263238"/>
<path d="M270.822 120.224C270.822 120.148 270.055 119.892 268.782 119.539C268.456 119.457 268.156 119.343 268.135 119.109C268.157 118.766 268.282 118.438 268.494 118.168C268.925 117.417 269.373 116.628 269.837 115.801C271.714 112.423 273.101 109.632 272.987 109.556C272.873 109.48 271.219 112.156 269.342 115.54L268.037 117.923C267.773 118.293 267.646 118.743 267.678 119.196C267.711 119.316 267.771 119.427 267.853 119.521C267.935 119.615 268.037 119.69 268.151 119.74C268.325 119.814 268.508 119.867 268.695 119.898C269.388 120.094 270.102 120.204 270.822 120.224Z" fill="#263238"/>
<path d="M277.312 106.227C277.388 106.597 278.705 106.619 280.19 107.021C281.675 107.424 282.839 108.017 283.089 107.734C283.198 107.598 283.035 107.233 282.594 106.825C281.996 106.312 281.289 105.941 280.527 105.742C279.764 105.543 278.966 105.521 278.193 105.677C277.584 105.819 277.285 106.08 277.312 106.227Z" fill="#263238"/>
<path d="M265.279 105.569C265.464 105.895 266.367 105.721 267.455 105.862C268.543 106.004 269.402 106.352 269.631 106.075C269.745 105.939 269.631 105.623 269.293 105.286C268.811 104.875 268.216 104.618 267.587 104.546C266.957 104.475 266.32 104.592 265.757 104.883C265.366 105.128 265.197 105.411 265.279 105.569Z" fill="#263238"/>
<path d="M285.913 101.315L285.951 101.358C287.136 102.609 287.791 104.27 287.779 105.993V106.162C287.779 108.61 287.338 111.058 287.343 113.478C287.349 115.899 287.817 118.478 289.345 120.382C289.971 121.171 291.189 121.823 291.902 121.116C292.153 120.815 292.313 120.449 292.364 120.061C293.659 114.343 295.988 109.447 296.863 103.398C296.985 102.588 296.911 101.761 296.649 100.985C296.387 100.21 295.944 99.5075 295.356 98.9373C294.225 97.8493 292.816 96.6742 291.309 97.1366C289.802 97.599 287.599 99.9654 286.342 100.945" fill="#263238"/>
<path d="M290.292 115.246C290.444 115.203 296.314 114.381 295.286 120.099C294.258 125.816 288.758 123.608 288.758 123.439C288.758 123.27 290.292 115.246 290.292 115.246Z" fill="#B78876"/>
<path d="M290.89 121.589C290.89 121.589 290.977 121.676 291.13 121.78C291.349 121.925 291.616 121.98 291.875 121.932C292.517 121.818 293.197 120.953 293.409 119.925C293.518 119.439 293.518 118.936 293.409 118.451C293.386 118.262 293.319 118.083 293.212 117.926C293.105 117.77 292.961 117.642 292.794 117.553C292.685 117.502 292.562 117.49 292.445 117.521C292.329 117.552 292.227 117.623 292.158 117.722C292.054 117.863 292.071 117.988 292.038 117.988C292.005 117.988 291.935 117.874 292.038 117.645C292.095 117.51 292.197 117.398 292.326 117.33C292.505 117.239 292.712 117.221 292.903 117.281C293.131 117.372 293.332 117.519 293.486 117.71C293.64 117.9 293.743 118.127 293.784 118.369C293.935 118.9 293.956 119.46 293.844 120.001C293.599 121.149 292.816 122.117 291.951 122.21C291.789 122.227 291.625 122.207 291.472 122.153C291.318 122.098 291.179 122.01 291.064 121.894C290.874 121.725 290.868 121.595 290.89 121.589Z" fill="#AA6550"/>
<path d="M291.374 98.056C293.126 95.9616 289.742 92.0992 287.022 90.7882C284.302 89.4771 280.386 90.3149 277.426 90.8371C275.56 91.169 273.667 91.7347 271.807 91.3811C270.572 91.0721 269.391 90.5788 268.303 89.9177C267.213 89.2686 266.003 88.845 264.746 88.672C264.113 88.5942 263.472 88.6904 262.89 88.9501C262.308 89.2099 261.808 89.6234 261.444 90.1462C260.796 91.2342 261.248 92.937 262.466 93.2906C262.099 93.0118 261.67 92.8262 261.215 92.7499C260.76 92.6735 260.294 92.7085 259.856 92.852C259.417 92.9955 259.021 93.2432 258.699 93.5738C258.378 93.9043 258.141 94.3079 258.01 94.7499C257.879 95.192 257.857 95.6592 257.946 96.1116C258.035 96.564 258.232 96.9881 258.521 97.3474C258.81 97.7067 259.182 97.9905 259.605 98.1746C260.028 98.3587 260.489 98.4374 260.949 98.4042C260.225 97.6643 258.821 98.5075 258.773 99.5411C258.724 100.575 259.54 101.451 260.405 102C262.64 103.404 265.48 103.474 268.08 103.006C270.681 102.539 273.172 101.57 275.762 101.037C278.351 100.504 282.698 99.4922 285.037 100.727C286.756 101.63 287.702 103.991 288.796 103.67C289.314 103.479 289.78 103.171 290.158 102.768C290.535 102.366 290.814 101.881 290.972 101.353C291.267 100.291 291.39 99.1891 291.336 98.0886" fill="#263238"/>
<path d="M302.565 124.576C302.671 124.551 302.773 124.507 302.864 124.445C303.133 124.273 303.348 124.028 303.484 123.738C303.695 123.275 303.759 122.759 303.669 122.259C303.528 121.6 303.167 121.01 302.646 120.583C302.028 120.074 301.332 119.668 300.584 119.381C299.744 119.074 298.937 118.684 298.174 118.217C297.376 117.655 296.766 116.864 296.428 115.948C296.056 114.962 295.885 113.912 295.922 112.858C295.977 110.682 296.581 108.642 296.727 106.722C296.874 104.802 296.629 103.001 295.813 101.755C295.2 100.753 294.227 100.024 293.093 99.7152C292.79 99.6387 292.476 99.6075 292.163 99.6227C292.055 99.6245 291.947 99.6409 291.842 99.6717C292.255 99.669 292.667 99.7202 293.066 99.824C294.144 100.165 295.058 100.891 295.634 101.864C296.39 103.072 296.651 104.823 296.461 106.7C296.27 108.577 295.688 110.617 295.623 112.853C295.588 113.945 295.773 115.032 296.167 116.052C296.531 117.019 297.182 117.852 298.033 118.44C298.814 118.908 299.639 119.298 300.497 119.604C301.225 119.874 301.906 120.255 302.516 120.735C303.013 121.129 303.365 121.676 303.517 122.291C303.616 122.76 303.57 123.247 303.386 123.689C303.218 124.068 302.929 124.379 302.565 124.576Z" fill="#455A64"/>
<path d="M262.281 93.1545C262.205 93.0973 262.121 93.0515 262.031 93.0185C261.929 92.9684 261.824 92.9266 261.716 92.8934C261.565 92.8419 261.41 92.8037 261.253 92.7792C260.737 92.6978 260.209 92.7348 259.71 92.8875C259.21 93.0402 258.752 93.3045 258.37 93.6605C257.983 94.1322 257.693 94.6761 257.517 95.2607C257.342 95.8453 257.284 96.4588 257.347 97.0659C257.42 97.8199 257.644 98.5517 258.004 99.2179C258.365 99.8841 258.856 100.471 259.447 100.945C260.807 102.04 262.462 102.705 264.202 102.854C266.09 103.017 267.993 102.901 269.848 102.511C272.79 101.935 275.608 100.845 278.172 99.2909C279.271 98.6111 280.42 98.0164 281.61 97.512C282.647 97.0908 283.754 96.864 284.874 96.8429C286.503 96.8076 288.115 97.1817 289.563 97.9309C290.086 98.2237 290.593 98.5451 291.081 98.8937C290.645 98.4658 290.153 98.0997 289.617 97.8057C288.166 96.9971 286.53 96.5791 284.868 96.5926C283.721 96.6014 282.585 96.8208 281.517 97.24C280.315 97.7438 279.153 98.3385 278.041 99.0189C275.495 100.541 272.705 101.61 269.794 102.18C267.966 102.567 266.091 102.686 264.229 102.533C262.543 102.393 260.936 101.757 259.61 100.705C259.04 100.255 258.566 99.695 258.215 99.0589C257.863 98.4228 257.642 97.7231 257.565 97.0006C257.498 96.4218 257.547 95.8355 257.707 95.2754C257.868 94.7153 258.137 94.1924 258.5 93.7366C258.863 93.3904 259.298 93.1293 259.774 92.9721C260.251 92.815 260.756 92.7658 261.253 92.8281C261.605 92.9052 261.949 93.0145 262.281 93.1545Z" fill="#455A64"/>
<path d="M265.464 88.3946C265.444 88.8317 265.513 89.2683 265.665 89.6784C266.089 90.812 266.883 91.77 267.917 92.3984C268.612 92.8513 269.385 93.1722 270.196 93.345C271.127 93.5325 272.08 93.582 273.025 93.4918C275.022 93.345 277.111 92.6595 279.303 92.0938C281.495 91.528 283.688 91.2288 285.581 91.7347C287.261 92.1799 288.755 93.15 289.846 94.5037C290.596 95.4028 291.151 96.4474 291.478 97.5718C291.695 98.3715 291.723 98.8394 291.761 98.8339C291.768 98.7216 291.768 98.6089 291.761 98.4966C291.731 98.176 291.678 97.8578 291.603 97.5446C291.313 96.3847 290.772 95.3023 290.02 94.3731C288.919 92.9639 287.393 91.9471 285.668 91.4736C283.709 90.9296 281.457 91.2397 279.254 91.8109C277.051 92.3821 274.978 93.0675 273.025 93.2253C272.105 93.3205 271.176 93.282 270.267 93.111C269.481 92.9511 268.729 92.6527 268.048 92.2298C267.039 91.635 266.249 90.7307 265.796 89.6512C265.65 89.2424 265.539 88.822 265.464 88.3946Z" fill="#455A64"/>
<path d="M268.244 124.494C268.315 125.056 268.463 125.605 268.684 126.126C268.8 126.384 268.968 126.614 269.179 126.802C269.39 126.989 269.639 127.13 269.908 127.214C270.2 127.275 270.502 127.261 270.787 127.174C271.072 127.088 271.331 126.932 271.54 126.719C271.957 126.28 272.226 125.72 272.307 125.12C272.394 124.576 272.307 123.896 271.763 123.722C271.543 123.668 271.314 123.668 271.094 123.722L268.08 124.266" fill="#AA6550"/>
<path d="M268.771 126.779C269.25 126.964 269.759 127.059 270.273 127.062C270.804 127.031 271.305 126.802 271.676 126.42C271.895 126.187 272.063 125.909 272.167 125.606C272.271 125.304 272.309 124.982 272.28 124.663C272.264 124.5 272.227 124.339 272.171 124.184C272.1 124.037 272.122 124.048 271.997 124.032C271.872 124.016 271.676 124.032 271.513 124.059L271.007 124.097C270.354 124.146 269.767 124.184 269.272 124.212C268.729 124.287 268.179 124.276 267.64 124.179C268.149 123.993 268.682 123.883 269.223 123.852C269.712 123.782 270.311 123.711 270.947 123.635L271.448 123.58C271.628 123.554 271.81 123.538 271.992 123.532C272.136 123.535 272.275 123.585 272.389 123.673C272.49 123.763 272.567 123.877 272.612 124.005C272.686 124.201 272.733 124.406 272.753 124.614C272.789 125.006 272.738 125.4 272.603 125.77C272.469 126.14 272.254 126.475 271.975 126.752C271.511 127.194 270.891 127.434 270.251 127.421C269.832 127.423 269.422 127.308 269.065 127.089C268.88 126.937 268.755 126.801 268.771 126.779Z" fill="#263238"/>
<path d="M266.073 135.619C266.073 135.619 271.556 137.697 276.893 136.163C276.893 136.163 272.868 139.541 265.524 138.247L266.073 135.619Z" fill="#AA6550"/>
<path d="M274.44 213.612C274.175 213.439 273.924 213.247 273.689 213.036C273.455 212.845 273.145 212.612 272.813 212.361C272.481 212.111 272.079 211.817 271.616 211.518C271.154 211.219 270.675 210.892 270.115 210.582C269.555 210.272 268.962 209.946 268.325 209.62C265.534 208.246 262.534 207.349 259.447 206.965C258.734 206.889 258.06 206.802 257.423 206.785C256.787 206.769 256.194 206.742 255.655 206.747C255.117 206.753 254.622 206.78 254.192 206.796C253.762 206.812 253.392 206.845 253.104 206.878C252.793 206.925 252.478 206.947 252.163 206.943C252.469 206.865 252.78 206.806 253.093 206.769C253.453 206.707 253.817 206.664 254.181 206.638C254.611 206.606 255.101 206.546 255.65 206.546C256.199 206.546 256.792 206.513 257.434 206.546C258.076 206.579 258.762 206.633 259.48 206.698C261.036 206.892 262.575 207.208 264.082 207.645C265.577 208.104 267.033 208.685 268.434 209.38C269.07 209.717 269.685 210.028 270.224 210.376C270.762 210.724 271.274 211.034 271.72 211.349C272.166 211.665 272.557 211.97 272.9 212.231C273.243 212.492 273.526 212.742 273.749 212.949C273.997 213.15 274.228 213.372 274.44 213.612Z" fill="#FAFAFA"/>
<path d="M242.469 185.673L246.93 166.344C248.638 159.076 250.661 152.092 254.061 151.265V153.511L252.604 208.733C252.604 208.733 243.513 219.069 231.932 213.335C228.308 211.534 221.699 198.886 221.699 198.886C221.699 198.886 206.32 171.447 206.962 170.201C207.604 168.956 216.999 156.846 217.956 156.242L242.469 185.673Z" fill="#378D91"/>
<path d="M288.372 145.792C297.239 147.489 307.221 152.663 311.818 165.92C313.493 170.762 325.701 206.453 325.701 206.453L304.882 206.018L301.52 198.669L303.152 210.61L304.561 227.637L251.989 228.524L252.359 202.868L252.865 151.841C252.865 151.841 253.452 151.069 262.521 146.069C268.146 142.963 288.372 145.792 288.372 145.792Z" fill="#378D91"/>
<g opacity="0.2">
<path d="M293.616 179.923C294.481 190.694 295.471 194.023 296.336 204.794C296.356 205.814 296.54 206.824 296.88 207.786C297.061 208.265 297.353 208.694 297.731 209.038C298.109 209.383 298.563 209.635 299.056 209.772C300.59 210.082 302.581 211.192 303.011 209.69L301.558 199.316C301.246 197.807 300.764 196.338 300.122 194.937C296.896 187.772 295.705 187.354 293.594 179.923" fill="black"/>
</g>
<path d="M262.515 151.591L262.689 150.47L264.37 139.721C264.419 139.409 264.584 139.126 264.832 138.93C265.08 138.734 265.393 138.64 265.708 138.666L286.408 140.396C287.033 140.447 287.613 140.743 288.02 141.22C288.428 141.697 288.63 142.316 288.584 142.941L288.121 149.187L281.659 157.619L272.351 159.071" fill="#378D91"/>
<path d="M252.119 171.801C252.201 171.801 252.261 180.222 252.261 190.607C252.261 200.992 252.201 209.413 252.119 209.413C252.038 209.413 251.978 200.992 251.978 190.607C251.978 180.222 252.043 171.801 252.119 171.801Z" fill="#263238"/>
<path d="M305.328 207.748C305.328 207.748 305.328 207.71 305.263 207.628C305.197 207.547 305.159 207.411 305.089 207.259L304.458 205.828L302.189 200.546L294.796 183.078C293.36 179.661 291.995 176.408 290.754 173.444C290.127 172.055 289.678 170.593 289.416 169.092C289.186 167.78 289.066 166.452 289.057 165.12C288.988 163.191 289.268 161.265 289.884 159.436L290.052 158.984L290.243 158.603C290.332 158.401 290.442 158.207 290.569 158.027L290.798 157.689C290.824 157.651 290.853 157.615 290.885 157.58C290.527 158.182 290.226 158.816 289.987 159.474C289.418 161.299 289.171 163.21 289.258 165.12C289.268 167.957 289.858 170.762 290.994 173.362L295.057 182.985L302.374 200.486L304.55 205.801L305.132 207.253L305.279 207.634C305.299 207.67 305.315 207.709 305.328 207.748Z" fill="#263238"/>
<path d="M294.823 147.691C294.633 147.884 294.431 148.065 294.22 148.235C293.608 148.701 292.941 149.09 292.234 149.393C291.114 149.861 289.941 150.189 288.741 150.372C287.156 150.619 285.558 150.777 283.954 150.846C282.17 150.922 280.222 150.889 278.133 150.927C275.915 150.924 273.704 151.194 271.551 151.732C269.166 152.296 267.008 153.569 265.36 155.383C264.54 156.371 263.952 157.531 263.641 158.777C263.309 160.056 263.332 161.4 263.707 162.667C263.915 163.292 264.221 163.88 264.615 164.408C265.012 164.92 265.512 165.343 266.084 165.648C266.639 165.952 267.271 166.084 267.901 166.029C268.517 165.966 269.087 165.675 269.5 165.213C269.868 164.727 270.13 164.17 270.268 163.577C270.407 162.983 270.42 162.368 270.305 161.769C270.215 161.178 270.031 160.605 269.761 160.072C269.493 159.552 269.17 159.061 268.798 158.609C267.344 156.933 265.386 155.774 263.217 155.307C261.338 154.863 259.379 154.886 257.51 155.372C255.973 155.769 254.506 156.399 253.158 157.238C252.132 157.878 251.164 158.606 250.264 159.414C249.519 160.067 248.991 160.632 248.632 161.002L248.23 161.437C248.186 161.489 248.137 161.537 248.083 161.579C248.723 160.77 249.433 160.018 250.204 159.332C251.095 158.508 252.06 157.769 253.088 157.124C254.448 156.258 255.935 155.608 257.494 155.198C259.393 154.688 261.389 154.655 263.304 155.1C265.529 155.569 267.54 156.751 269.032 158.467C269.412 158.921 269.744 159.413 270.022 159.936C270.297 160.496 270.481 161.097 270.566 161.715C270.662 162.345 270.65 162.987 270.534 163.613C270.417 164.266 270.129 164.876 269.701 165.381C269.244 165.895 268.612 166.219 267.928 166.29C267.242 166.355 266.552 166.213 265.948 165.882C265.341 165.558 264.809 165.109 264.387 164.565C263.971 164.012 263.648 163.394 263.429 162.738C263.038 161.422 263.016 160.024 263.364 158.696C263.681 157.406 264.29 156.205 265.143 155.187C266.83 153.336 269.037 152.037 271.475 151.46C273.652 150.928 275.887 150.669 278.128 150.688C280.222 150.655 282.17 150.688 283.943 150.639C285.54 150.583 287.133 150.44 288.714 150.209C289.907 150.038 291.075 149.728 292.196 149.284C292.899 148.999 293.567 148.634 294.187 148.196C294.404 148.05 294.551 147.914 294.66 147.837C294.71 147.783 294.764 147.734 294.823 147.691Z" fill="#FAFAFA"/>
<path d="M312.813 170.332C312.737 170.353 312.659 170.366 312.58 170.37C312.427 170.37 312.204 170.408 311.91 170.419C311.088 170.446 310.266 170.426 309.446 170.359C308.407 170.283 307.178 170.125 305.818 169.935C304.458 169.744 302.967 169.543 301.389 169.461C299.914 169.381 298.435 169.493 296.988 169.793C295.806 170.034 294.67 170.466 293.627 171.072C292.681 171.65 291.842 172.386 291.146 173.248C291.175 173.175 291.216 173.107 291.266 173.046C291.38 172.854 291.511 172.672 291.657 172.502C292.184 171.859 292.815 171.307 293.523 170.87C294.574 170.229 295.725 169.769 296.929 169.51C298.398 169.19 299.904 169.069 301.406 169.151C303 169.233 304.496 169.451 305.856 169.652C307.216 169.853 308.434 170.033 309.462 170.131C310.491 170.228 311.334 170.272 311.91 170.277C312.212 170.277 312.514 170.295 312.813 170.332Z" fill="#FAFAFA"/>
<path d="M299.741 194.719C298.718 194.481 297.667 194.392 296.619 194.453C295.389 194.536 294.172 194.753 292.99 195.1C291.603 195.476 290.052 196.025 288.312 196.564C286.421 197.204 284.443 197.548 282.447 197.581C280.149 197.58 277.875 197.108 275.767 196.194C273.424 195.203 271.34 193.688 269.674 191.765C268.773 190.761 268.039 189.618 267.498 188.382C266.923 187.102 266.707 185.69 266.873 184.296C267.062 182.892 267.747 181.601 268.804 180.657C269.329 180.199 269.958 179.878 270.637 179.721C271.301 179.581 271.989 179.6 272.644 179.776C273.3 179.953 273.904 180.283 274.407 180.739C274.899 181.189 275.24 181.78 275.386 182.43C275.527 183.067 275.476 183.732 275.239 184.34C275.011 184.924 274.664 185.456 274.222 185.901C273.378 186.746 272.359 187.394 271.236 187.8C270.707 188 270.16 188.152 269.604 188.251C269.332 188.3 269.06 188.36 268.793 188.398L267.982 188.496C265.995 188.693 263.988 188.551 262.047 188.077C260.447 187.696 258.905 187.103 257.461 186.315C256.37 185.725 255.346 185.017 254.41 184.204L253.866 183.731L253.42 183.279C253.179 183.051 252.954 182.808 252.745 182.55L252.353 182.082C252.309 182.032 252.269 181.977 252.234 181.919C252.286 181.964 252.335 182.013 252.381 182.066L252.789 182.512C253.004 182.762 253.235 182.998 253.479 183.219L253.931 183.66L254.475 184.122C255.416 184.913 256.439 185.601 257.527 186.173C258.963 186.94 260.494 187.515 262.08 187.881C264.001 188.339 265.986 188.468 267.95 188.262L268.744 188.164C269.011 188.121 269.288 188.061 269.549 188.012C270.093 187.914 270.627 187.764 271.143 187.566C272.229 187.17 273.215 186.54 274.032 185.722C274.448 185.3 274.774 184.799 274.989 184.247C275.203 183.687 275.25 183.077 275.125 182.49C274.964 181.891 274.642 181.347 274.194 180.918C273.747 180.488 273.19 180.189 272.585 180.053C271.965 179.874 271.31 179.856 270.681 179.999C270.052 180.143 269.47 180.444 268.989 180.875C267.982 181.772 267.331 183.002 267.156 184.34C267 185.681 267.206 187.039 267.754 188.273C268.28 189.481 268.993 190.598 269.865 191.586C271.502 193.474 273.548 194.962 275.849 195.938C277.924 196.844 280.162 197.317 282.426 197.331C284.401 197.306 286.361 196.976 288.236 196.351C289.971 195.807 291.5 195.296 292.93 194.932C294.125 194.596 295.352 194.393 296.591 194.328C297.042 194.299 297.495 194.299 297.946 194.328C298.332 194.388 298.664 194.415 298.925 194.475L299.518 194.621C299.597 194.644 299.672 194.677 299.741 194.719Z" fill="#FAFAFA"/>
<path d="M251.94 188.915C251.891 188.915 251.641 188.371 251.113 187.457C249.732 185.138 247.719 183.26 245.309 182.044C244.384 181.576 243.774 181.37 243.791 181.321C243.944 181.334 244.094 181.369 244.237 181.424C244.633 181.542 245.02 181.687 245.396 181.859C246.642 182.428 247.788 183.194 248.79 184.128C249.794 185.061 250.637 186.152 251.287 187.359C251.493 187.72 251.675 188.095 251.831 188.48C251.886 188.619 251.923 188.766 251.94 188.915Z" fill="#FAFAFA"/>
<path d="M230.833 212.198C230.833 212.198 230.795 212.155 230.746 212.062C230.697 211.97 230.615 211.823 230.523 211.654C230.327 211.295 230.044 210.756 229.696 210.06C228.685 208.094 227.851 206.043 227.204 203.929C226.772 202.461 226.51 200.948 226.426 199.42C226.383 198.566 226.418 197.71 226.53 196.863C226.665 195.966 226.88 195.083 227.172 194.224C227.806 192.368 228.906 190.705 230.365 189.394C231.144 188.679 232.06 188.129 233.058 187.779C234.056 187.428 235.114 187.283 236.169 187.354C237.266 187.436 238.29 187.934 239.031 188.746C239.383 189.148 239.639 189.625 239.78 190.14C239.92 190.656 239.941 191.197 239.841 191.722C239.724 192.237 239.455 192.705 239.069 193.066C238.692 193.411 238.236 193.659 237.741 193.789C236.784 194.038 235.767 193.916 234.896 193.446C234.088 193.01 233.382 192.408 232.824 191.678C232.289 191.003 231.848 190.258 231.513 189.464C230.924 188.04 230.68 186.497 230.8 184.96C230.91 183.692 231.28 182.461 231.888 181.342C232.338 180.499 232.914 179.728 233.596 179.058C234.022 178.632 234.491 178.251 234.994 177.921C235.163 177.806 235.304 177.736 235.397 177.681L235.538 177.611C235.538 177.611 235.364 177.736 235.027 177.97C234.541 178.316 234.088 178.706 233.672 179.134C233.021 179.81 232.471 180.578 232.04 181.413C231.462 182.517 231.116 183.728 231.023 184.971C230.918 186.478 231.171 187.988 231.763 189.377C232.093 190.148 232.525 190.87 233.047 191.526C233.588 192.224 234.27 192.801 235.049 193.218C235.862 193.656 236.81 193.768 237.703 193.533C238.161 193.426 238.581 193.195 238.916 192.865C239.251 192.535 239.488 192.118 239.602 191.662C239.688 191.181 239.666 190.688 239.536 190.217C239.406 189.746 239.172 189.31 238.851 188.942C238.157 188.185 237.199 187.722 236.175 187.647C235.158 187.58 234.139 187.72 233.178 188.057C232.217 188.395 231.334 188.923 230.582 189.611C229.158 190.892 228.082 192.513 227.454 194.322C227.161 195.162 226.944 196.027 226.807 196.906C226.694 197.739 226.656 198.58 226.693 199.42C226.769 200.932 227.017 202.43 227.433 203.886C228.059 205.994 228.86 208.046 229.826 210.022L230.604 211.654C230.686 211.828 230.751 211.97 230.805 212.078C230.86 212.187 230.833 212.198 230.833 212.198Z" fill="#FAFAFA"/>
<path d="M224.114 164.174C224.114 164.174 224.141 164.25 224.163 164.397C224.202 164.617 224.229 164.838 224.245 165.06C224.316 165.873 224.316 166.69 224.245 167.503C224.025 170.209 223.1 172.81 221.561 175.046C220.022 177.283 217.924 179.077 215.476 180.249C214.743 180.607 213.98 180.9 213.196 181.125C212.924 181.212 212.701 181.25 212.554 181.288C212.407 181.326 212.326 181.332 212.326 181.321C212.598 181.203 212.878 181.103 213.164 181.021C213.927 180.757 214.67 180.439 215.388 180.069C217.772 178.866 219.814 177.082 221.327 174.882C222.841 172.682 223.777 170.137 224.049 167.481C224.135 166.679 224.166 165.872 224.141 165.066C224.113 164.769 224.104 164.471 224.114 164.174Z" fill="#FAFAFA"/>
<path d="M317.573 187.762C316.764 188.269 316.053 188.917 315.474 189.677C314.93 190.378 314.386 191.308 313.771 192.288C313.097 193.384 312.319 194.413 311.448 195.361C309.855 197.082 307.967 198.502 305.872 199.556C305.242 199.875 304.591 200.153 303.924 200.388C303.681 200.483 303.43 200.556 303.174 200.605C303.399 200.477 303.636 200.369 303.881 200.285C304.338 200.083 305.002 199.8 305.78 199.376C307.812 198.284 309.65 196.863 311.22 195.171C312.081 194.238 312.855 193.227 313.532 192.152C314.072 191.253 314.663 190.385 315.3 189.551C315.742 188.993 316.269 188.506 316.861 188.11C317.021 188.003 317.191 187.91 317.367 187.832C317.508 187.778 317.573 187.751 317.573 187.762Z" fill="#FAFAFA"/>
<path d="M288.176 146.445C288.096 146.479 288.012 146.501 287.925 146.51L287.202 146.641C286.571 146.744 285.657 146.88 284.531 147.032C282.268 147.337 279.134 147.696 275.658 147.952C274.031 148.1 272.396 148.159 270.762 148.126C269.414 148.093 268.078 147.864 266.796 147.446C265.931 147.165 265.115 146.752 264.376 146.222C264.174 146.08 263.982 145.925 263.799 145.759C263.679 145.64 263.62 145.58 263.625 145.569C263.63 145.558 263.908 145.787 264.436 146.113C265.187 146.596 266.002 146.973 266.856 147.234C268.127 147.62 269.445 147.825 270.773 147.843C272.407 147.86 274.041 147.795 275.669 147.647C279.134 147.391 282.268 147.07 284.531 146.815L287.213 146.51C287.532 146.466 287.854 146.444 288.176 146.445Z" fill="#263238"/>
<path d="M325.456 210.305C325.865 212.41 325.807 214.578 325.285 216.658C324.762 218.737 323.789 220.676 322.433 222.337C321.078 223.999 319.374 225.341 317.441 226.27C315.509 227.199 313.396 227.692 311.252 227.713L270.044 227.256L271.132 213.912L306.416 208.613" fill="#B78876"/>
<path d="M273.656 214.494C273.466 214.554 271.089 213.487 268.956 212.503C266.694 211.455 264.211 210.973 261.721 211.099L251.896 211.6C251.896 211.6 252.5 213.232 253.528 213.776C254.556 214.32 260.72 214.494 260.72 214.494L260.405 214.815C259.116 216.142 257.358 216.912 255.509 216.958H254.567C253.871 216.903 253.182 216.768 252.517 216.556L250.096 215.576C249.361 215.25 248.589 215.299 248.268 216.039C247.947 216.779 248.192 217.627 250.194 218.634C251.309 219.178 255.454 220.63 255.454 220.63C255.483 221.22 255.564 221.806 255.699 222.382C255.878 222.986 257.505 223.589 257.505 223.589C257.928 224.485 258.411 225.35 258.952 226.179C259.142 226.396 260.617 226.859 262.189 227.3C264.723 228.009 267.407 227.988 269.93 227.24L273.673 226.119V214.695" fill="#B78876"/>
<path d="M260.22 221.952C258.489 221.908 256.792 221.461 255.264 220.646C255.264 220.581 256.352 220.995 257.728 221.348C259.104 221.702 260.225 221.87 260.22 221.952Z" fill="#AA6550"/>
<path d="M259.871 224.242C259.41 224.338 258.931 224.302 258.49 224.139C258.028 224.054 257.599 223.843 257.249 223.53C257.694 223.618 258.131 223.744 258.555 223.905C259.002 223.983 259.442 224.096 259.871 224.242Z" fill="#AA6550"/>
<path d="M261.667 213.607C261.452 213.91 261.197 214.182 260.91 214.418C260.259 215.04 259.54 215.587 258.767 216.05C257.988 216.504 257.142 216.831 256.259 217.018C255.905 217.113 255.538 217.153 255.171 217.138C256.387 216.858 257.561 216.421 258.664 215.837C259.42 215.382 260.138 214.867 260.812 214.298C261.076 214.043 261.362 213.812 261.667 213.607Z" fill="#AA6550"/>
<path d="M274.657 212.704L273.656 227.795H312.471C315.106 227.796 317.692 227.08 319.951 225.722C322.507 224.186 324.528 221.9 325.739 219.174C326.95 216.449 327.292 213.417 326.718 210.49C326.16 207.624 325.322 204.82 324.216 202.118L304.697 205.333L305.323 207.759L274.657 212.704Z" fill="#378D91"/>
<path d="M314.315 206.492C314.186 206.529 314.055 206.558 313.923 206.579L312.786 206.785L308.592 207.482L294.796 209.658L280.984 211.774L276.795 212.383L275.653 212.535C275.519 212.554 275.385 212.565 275.25 212.568C275.379 212.523 275.512 212.492 275.647 212.476L276.779 212.274L280.957 211.572L294.753 209.396L308.592 207.264L312.781 206.655L313.923 206.502C314.053 206.485 314.184 206.481 314.315 206.492Z" fill="#263238"/>
<path d="M294.448 227.805C294.377 227.805 294.682 226.717 294.72 224.939C294.728 224.455 294.708 223.972 294.66 223.492C294.613 222.943 294.534 222.398 294.421 221.86C294.151 220.618 293.727 219.416 293.159 218.28C292.576 217.149 291.864 216.091 291.037 215.125L290.493 214.488C290.308 214.282 290.107 214.102 289.922 213.917C289.557 213.542 289.171 213.243 288.834 212.954C287.447 211.866 286.462 211.322 286.495 211.273C286.735 211.37 286.967 211.488 287.186 211.627C287.456 211.768 287.718 211.926 287.969 212.1C288.257 212.307 288.616 212.508 288.959 212.802C289.351 213.095 289.725 213.411 290.08 213.748C290.27 213.933 290.482 214.108 290.673 214.292L291.266 214.934C292.118 215.907 292.848 216.979 293.442 218.128C294.018 219.287 294.442 220.516 294.704 221.783C294.815 222.338 294.888 222.9 294.921 223.464C294.956 223.953 294.956 224.444 294.921 224.933C294.911 225.339 294.875 225.745 294.812 226.146C294.783 226.449 294.73 226.749 294.655 227.044C294.608 227.303 294.539 227.558 294.448 227.805Z" fill="#FAFAFA"/>
<path d="M318.079 226.668C317.473 226.665 316.869 226.594 316.279 226.456C315.583 226.297 314.907 226.058 314.266 225.744C313.416 225.321 312.647 224.75 311.997 224.057C311.209 223.208 310.636 222.182 310.327 221.065C310.155 220.444 310.059 219.805 310.039 219.161C310 218.481 310.055 217.798 310.202 217.132C310.348 216.423 310.621 215.747 311.007 215.136C311.411 214.487 311.973 213.952 312.639 213.58C313.329 213.178 314.122 212.988 314.919 213.036C315.328 213.064 315.728 213.175 316.094 213.362C316.459 213.549 316.783 213.808 317.046 214.124C317.318 214.435 317.522 214.799 317.646 215.194C317.769 215.588 317.809 216.003 317.764 216.414C317.697 216.813 317.542 217.191 317.311 217.523C317.079 217.854 316.777 218.129 316.426 218.329C315.109 219.018 313.593 219.226 312.139 218.916C310.075 218.595 308.189 217.562 306.807 215.996C305.425 214.43 304.635 212.431 304.572 210.343C304.537 209.737 304.588 209.129 304.724 208.537C304.674 209.136 304.659 209.737 304.681 210.338C304.782 211.975 305.317 213.556 306.231 214.918C306.912 215.918 307.79 216.768 308.812 217.417C309.833 218.065 310.977 218.498 312.172 218.688C313.561 218.987 315.01 218.794 316.273 218.144C316.589 217.966 316.861 217.719 317.07 217.423C317.279 217.127 317.419 216.788 317.481 216.43C317.513 216.058 317.471 215.683 317.358 215.327C317.245 214.971 317.063 214.64 316.822 214.355C316.581 214.069 316.285 213.834 315.953 213.663C315.621 213.492 315.259 213.388 314.886 213.357C314.148 213.307 313.412 213.475 312.77 213.841C312.166 214.202 311.646 214.689 311.247 215.27C310.848 215.85 310.579 216.509 310.458 217.203C310.311 217.848 310.254 218.511 310.289 219.172C310.304 219.795 310.394 220.414 310.556 221.016C310.843 222.104 311.388 223.106 312.144 223.938C312.766 224.62 313.503 225.189 314.32 225.619C314.947 225.939 315.608 226.189 316.29 226.364C317.432 226.62 318.085 226.63 318.079 226.668Z" fill="#FAFAFA"/>
<path d="M164.111 62.2717H66.9037C61.222 62.2717 55.7731 64.5287 51.7555 68.5463C47.738 72.5638 45.481 78.0128 45.481 83.6944V118.336H24.5098L45.481 139.308V162.857C45.481 168.539 47.738 173.988 51.7555 178.005C55.7731 182.023 61.222 184.28 66.9037 184.28H164.111C169.793 184.28 175.242 182.023 179.259 178.005C183.277 173.988 185.534 168.539 185.534 162.857V83.6944C185.534 78.0128 183.277 72.5638 179.259 68.5463C175.242 64.5287 169.793 62.2717 164.111 62.2717Z" fill="#378D91"/>
<path d="M124.399 65.9328C123.784 67.5267 124.84 69.2621 126.031 70.4915C127.222 71.721 128.648 72.8851 129.023 74.5498C129.333 75.9478 128.816 77.4003 128.941 78.8256C129.067 80.2509 129.855 81.5946 130.301 82.9872C131.112 85.5114 130.786 88.2694 130.062 90.8208C129.54 92.9409 128.543 94.9146 127.146 96.5926C126.443 97.4237 125.571 98.096 124.588 98.5649C123.605 99.0338 122.534 99.2886 121.445 99.3126C121.137 99.332 120.829 99.2879 120.539 99.1831C120.249 99.0783 119.983 98.915 119.759 98.7034C119.454 98.2632 119.285 97.7428 119.275 97.2074C118.029 86.2539 118.029 75.1945 119.275 64.241" fill="#263238"/>
<path d="M123.251 101.233C127.984 101.026 132.358 105.558 131.982 110.28C136.775 111.449 140.142 116.721 139.223 121.562C138.913 123.162 138.2 124.685 138.102 126.306C137.994 128.079 138.646 129.804 138.967 131.545C139.583 134.717 139.254 138.001 138.021 140.988C137.276 142.789 135.883 144.65 133.935 144.704C133.276 144.676 132.633 144.487 132.063 144.152C131.494 143.817 131.016 143.347 130.671 142.784C129.993 141.643 129.546 140.381 129.355 139.068C128.512 134.814 128.267 130.446 127.092 126.273C125.917 122.101 123.632 117.988 119.862 115.872C117.779 114.697 115.276 114.142 113.617 112.418C112.782 111.476 112.226 110.322 112.01 109.082C111.794 107.843 111.926 106.568 112.393 105.4C112.882 104.242 113.609 103.201 114.528 102.343C115.447 101.485 116.536 100.831 117.724 100.422" fill="#263238"/>
<path d="M90.4915 69.8333C90.4371 67.8096 92.3031 66.2483 94.1853 65.4813C96.0675 64.7142 98.1619 64.4586 99.8375 63.3053C101.328 62.3043 102.324 60.743 103.58 59.4973C105.132 57.9237 107.074 56.7914 109.208 56.2167C111.342 55.642 113.591 55.6456 115.723 56.2271C117.855 56.8086 119.794 57.947 121.341 59.5255C122.887 61.104 123.986 63.0658 124.524 65.2093C125.248 68.087 124.753 71.4925 122.484 73.4074C119.851 75.6269 115.956 75.1318 112.567 74.441C109.178 73.7501 105.37 73.0701 102.552 75.0557C100.855 76.247 99.8755 78.1946 98.8365 79.9952C97.7975 81.7958 96.4973 83.6291 94.5335 84.3091C92.5696 84.9891 89.8986 83.8141 89.8224 81.7414" fill="#263238"/>
<path d="M98.4665 70.2467C97.6242 70.3378 96.8468 70.7415 96.2877 71.3781C95.7287 72.0147 95.4288 72.8378 95.4473 73.6848L97.4656 119.381C97.5526 124.777 105.441 127.807 111.218 127.671C117.055 127.535 117.24 124.674 117.316 119.539C117.436 110.965 117.425 107.745 117.43 107.794C117.436 107.843 124.802 106.553 126.308 96.9136C127.054 92.1318 126.798 84.2874 126.379 77.8736C126.004 72.1018 122.163 65.0298 116.413 65.6499L98.4665 70.2467Z" fill="#FFBE9D"/>
<path d="M124.72 83.9338C124.723 84.2548 124.601 84.5645 124.38 84.7971C124.158 85.0296 123.855 85.1668 123.534 85.1795C123.379 85.1929 123.222 85.1753 123.074 85.1276C122.926 85.08 122.788 85.0033 122.67 84.9021C122.551 84.8008 122.454 84.677 122.384 84.5378C122.314 84.3987 122.272 84.247 122.261 84.0915C122.257 83.7701 122.378 83.4596 122.6 83.2267C122.822 82.9939 123.126 82.8571 123.447 82.8458C123.602 82.8324 123.759 82.85 123.907 82.8977C124.055 82.9453 124.193 83.022 124.311 83.1232C124.43 83.2245 124.527 83.3483 124.597 83.4874C124.667 83.6266 124.709 83.7783 124.72 83.9338Z" fill="#263238"/>
<path d="M124.687 81.9753C124.535 82.1385 123.599 81.4313 122.272 81.4313C120.945 81.4313 119.971 82.1059 119.824 81.9427C119.753 81.872 119.911 81.5782 120.335 81.2681C120.908 80.8694 121.591 80.6584 122.288 80.6643C122.979 80.6603 123.653 80.8755 124.214 81.279C124.622 81.6 124.764 81.9046 124.687 81.9753Z" fill="#263238"/>
<path d="M111.963 83.9338C111.966 84.2548 111.844 84.5645 111.623 84.7971C111.401 85.0296 111.098 85.1668 110.777 85.1795C110.622 85.1929 110.466 85.1753 110.317 85.1276C110.169 85.08 110.031 85.0033 109.913 84.9021C109.795 84.8008 109.697 84.677 109.627 84.5378C109.557 84.3987 109.515 84.247 109.504 84.0915C109.5 83.7701 109.622 83.4596 109.843 83.2267C110.065 82.9939 110.369 82.8571 110.69 82.8458C110.846 82.8324 111.002 82.85 111.15 82.8977C111.299 82.9453 111.436 83.022 111.555 83.1232C111.673 83.2245 111.77 83.3483 111.84 83.4874C111.91 83.6266 111.952 83.7783 111.963 83.9338Z" fill="#263238"/>
<path d="M111.664 82.2528C111.512 82.416 110.576 81.7088 109.249 81.7088C107.921 81.7088 106.948 82.3834 106.806 82.2202C106.735 82.1494 106.888 81.8557 107.312 81.5456C107.885 81.1459 108.567 80.933 109.265 80.9363C109.956 80.9339 110.631 81.151 111.191 81.5565C111.572 81.8883 111.713 82.1821 111.664 82.2528Z" fill="#263238"/>
<path d="M116.478 92.0883C116.478 92.0122 117.294 91.8707 118.654 91.6966C118.992 91.6586 119.313 91.5878 119.372 91.3594C119.397 91.0087 119.318 90.6585 119.144 90.353L118.132 87.7744C116.734 84.1024 115.717 81.0832 115.869 81.0288C116.021 80.9744 117.273 83.9066 118.671 87.5568L119.639 90.1517C119.85 90.5603 119.913 91.0291 119.819 91.479C119.771 91.5977 119.697 91.7042 119.603 91.7907C119.509 91.8773 119.397 91.9418 119.275 91.9795C119.097 92.0284 118.914 92.054 118.731 92.0557C117.316 92.1536 116.484 92.1645 116.478 92.0883Z" fill="#263238"/>
<path d="M117.43 107.799C112.9 107.877 108.437 106.696 104.538 104.388C104.538 104.388 107.676 110.992 117.305 110.068L117.43 107.799Z" fill="#EB996E"/>
<path d="M115.924 95.287C115.667 94.9652 115.333 94.715 114.951 94.5606C114.57 94.4062 114.155 94.3528 113.748 94.4058C113.455 94.432 113.17 94.5174 112.911 94.6567C112.652 94.796 112.424 94.9864 112.241 95.2163C112.064 95.4382 111.959 95.7092 111.942 95.9924C111.924 96.2756 111.994 96.5574 112.143 96.7994C112.356 97.0383 112.636 97.2076 112.946 97.2852C113.257 97.3628 113.583 97.3452 113.884 97.2346C114.51 97.012 115.085 96.666 115.575 96.2173C115.726 96.1121 115.855 95.9792 115.956 95.8256C116.006 95.7526 116.032 95.6664 116.032 95.5781C116.032 95.4898 116.006 95.4036 115.956 95.3306" fill="#EB996E"/>
<path d="M112.572 93.024C112.79 93.024 112.796 94.4547 114.03 95.472C115.265 96.4893 116.799 96.3315 116.81 96.56C116.81 96.6525 116.468 96.8429 115.82 96.8592C114.976 96.8745 114.153 96.5913 113.497 96.0595C112.87 95.546 112.466 94.8087 112.371 94.0032C112.311 93.3667 112.475 93.024 112.572 93.024Z" fill="#263238"/>
<path d="M112.208 79.9245C112.077 80.289 110.75 80.1203 109.194 80.3107C107.638 80.5011 106.376 80.9309 106.17 80.6045C106.077 80.4522 106.295 80.1095 106.801 79.7613C107.476 79.3271 108.242 79.0525 109.039 78.9583C109.836 78.864 110.645 78.9526 111.403 79.2173C111.996 79.473 112.284 79.7559 112.208 79.9245Z" fill="#263238"/>
<path d="M124.176 78.1347C123.942 78.4339 123.028 78.1347 121.924 78.1347C120.82 78.1347 119.895 78.3414 119.683 78.0259C119.585 77.8736 119.732 77.5744 120.14 77.2861C120.685 76.9445 121.32 76.7721 121.964 76.7905C122.608 76.8088 123.232 77.0172 123.757 77.3894C124.176 77.6778 124.29 77.9878 124.176 78.1347Z" fill="#263238"/>
<path d="M91.7482 101.897C93.0746 102.165 94.4458 102.114 95.7486 101.748C97.0514 101.382 98.2485 100.711 99.2411 99.7912C100.234 98.8714 100.993 97.7287 101.457 96.4575C101.921 95.1863 102.077 93.823 101.91 92.48C101.611 90.1136 100.338 87.7146 101.159 85.4733C102.247 82.5194 106.387 81.6109 107.486 78.657C108.123 76.9434 107.551 74.936 108.275 73.2551C108.955 71.6775 110.62 70.769 112.241 70.1814C113.862 69.5939 115.592 69.1914 116.952 68.136C118.312 67.0807 119.155 65.0896 118.279 63.6045C111.094 64.4665 104.038 66.1813 97.2589 68.7127C95.6867 69.3002 94.0384 70.0074 93.1082 71.4C92.129 72.8797 92.1779 74.7837 92.2595 76.5571C92.6621 85.1959 91.3456 93.2851 91.7482 101.924" fill="#263238"/>
<path d="M89.4579 99.1875C89.4032 99.1793 89.35 99.1628 89.3002 99.1386C89.1449 99.0845 88.9969 99.0114 88.8595 98.921C88.3296 98.5781 87.9131 98.086 87.6627 97.5066C87.251 96.5908 87.1406 95.5679 87.3472 94.5853C87.6748 93.3087 88.27 92.1164 89.0935 91.0874C89.9367 89.9123 91.0083 88.721 91.7373 87.2032C92.126 86.432 92.3431 85.5857 92.3738 84.7226C92.3424 83.8064 92.1585 82.9019 91.8298 82.0461C91.4631 81.1209 91.2695 80.1363 91.2586 79.1411C91.3112 78.0764 91.6239 77.0407 92.1691 76.1247C92.7144 75.2086 93.4757 74.44 94.3866 73.8861C95.3635 73.3531 96.4469 73.0446 97.5581 72.9831C98.6334 72.9303 99.6983 72.7477 100.73 72.4391C101.698 72.0724 102.494 71.3562 102.96 70.4317C103.404 69.5222 103.758 68.571 104.015 67.592C104.291 66.6528 104.655 65.742 105.103 64.872C105.921 63.2227 107.167 61.8231 108.71 60.8192C110.073 59.9625 111.667 59.5483 113.274 59.6333C114.606 59.7021 115.874 60.2221 116.87 61.1075C117.613 61.7753 118.166 62.6272 118.475 63.5773C118.675 64.172 118.751 64.8016 118.698 65.4269C118.687 65.6444 118.65 65.8598 118.589 66.0688C118.589 66.0688 118.627 65.8458 118.644 65.4215C118.67 64.8058 118.577 64.1908 118.372 63.6099C117.997 62.5409 117.31 61.6092 116.399 60.9359C115.488 60.2626 114.395 59.8789 113.263 59.8346C111.701 59.7657 110.154 60.1798 108.835 61.0205C107.334 62.0073 106.124 63.3786 105.332 64.9917C104.892 65.8619 104.539 66.7729 104.277 67.7117C104.011 68.7084 103.646 69.676 103.189 70.6003C102.936 71.0786 102.607 71.5123 102.215 71.8842C101.809 72.26 101.332 72.5505 100.811 72.7383C99.7513 73.0649 98.6549 73.2586 97.5472 73.3149C96.4763 73.3713 95.4317 73.6669 94.4899 74.1799C93.6192 74.7081 92.8909 75.4413 92.3684 76.3155C91.846 77.1897 91.5453 78.1785 91.4925 79.1955C91.5022 80.16 91.6865 81.1147 92.0365 82.0135C92.3827 82.8954 92.5759 83.83 92.6077 84.777C92.571 85.675 92.3409 86.5546 91.9331 87.3555C91.1715 88.9114 90.089 90.0755 89.2403 91.256C88.4213 92.256 87.8242 93.4186 87.4887 94.6669C87.2719 95.6167 87.3614 96.6108 87.7443 97.5066C87.9796 98.0773 88.372 98.5697 88.8759 98.9264C89.2403 99.1114 89.4634 99.1658 89.4579 99.1875Z" fill="#455A64"/>
<path d="M117.414 57.2397C117.546 57.2494 117.674 57.2885 117.789 57.3539C118.116 57.4924 118.422 57.6755 118.698 57.8979C119.646 58.6333 120.274 59.7058 120.451 60.8922C120.628 62.0787 120.341 63.2878 119.65 64.2682C119.449 64.5603 119.211 64.8254 118.943 65.057C118.747 65.2202 118.627 65.2909 118.616 65.2746C118.923 64.927 119.212 64.5638 119.481 64.1866C120.094 63.2306 120.34 62.0849 120.173 60.9616C120.006 59.8383 119.438 58.8136 118.573 58.0774C118.203 57.7761 117.816 57.4964 117.414 57.2397Z" fill="#455A64"/>
<path d="M138.728 123.265C138.843 122.93 138.935 122.589 139.005 122.242C139.133 121.293 138.968 120.327 138.532 119.473C137.861 118.221 136.794 117.226 135.497 116.644C134.738 116.286 133.945 116.003 133.13 115.801C132.282 115.584 131.384 115.404 130.486 115.11C129.583 114.864 128.75 114.41 128.055 113.783C127.432 113.159 127.029 112.35 126.907 111.476C126.76 110.666 126.711 109.899 126.532 109.213C126.371 108.579 126.072 107.989 125.656 107.484C125.047 106.744 124.239 106.194 123.327 105.9C122.68 105.705 122.294 105.705 122.294 105.672C122.386 105.663 122.479 105.663 122.571 105.672C122.837 105.69 123.101 105.732 123.36 105.797C124.314 106.06 125.167 106.604 125.808 107.358C126.256 107.88 126.581 108.495 126.76 109.159C126.956 109.872 127.016 110.65 127.168 111.433C127.28 112.259 127.662 113.024 128.256 113.609C128.923 114.201 129.718 114.631 130.579 114.866C131.455 115.148 132.352 115.333 133.206 115.556C134.032 115.758 134.834 116.047 135.6 116.416C136.94 117.029 138.033 118.078 138.701 119.392C139.136 120.284 139.277 121.292 139.103 122.269C139.052 122.53 138.969 122.784 138.859 123.026C138.823 123.11 138.78 123.19 138.728 123.265Z" fill="#455A64"/>
<path d="M96.8835 106.227C91.9875 104.921 87.7987 100.15 86.0906 95.4013C84.3824 90.6522 84.3824 85.4679 84.823 80.4413C85.1386 76.8019 85.7805 72.9504 88.1958 70.2087C91.8406 66.0743 95.8118 63.9635 101.295 64.1376" fill="#263238"/>
<path d="M125.335 116.835L120.792 115.692C121.287 115.352 121.649 114.85 121.813 114.272C121.978 113.694 121.936 113.077 121.695 112.526C121.408 111.821 120.932 111.208 120.32 110.754C119.708 110.3 118.983 110.023 118.225 109.953L97.52 107.614C97.158 107.566 96.7903 107.64 96.4757 107.826C96.1611 108.011 95.9178 108.297 95.7846 108.637C94.8671 110.972 94.8363 112.895 95.6922 114.403H95.5943L91.6013 115.197L84.8339 174.896L129.159 172.823L125.335 116.835Z" fill="#F5F5F5"/>
<path d="M118.818 115.921C118.546 116 118.267 116.055 117.985 116.084C117.441 116.171 116.663 116.264 115.695 116.362C110.627 116.832 105.519 116.578 100.523 115.605C99.5655 115.415 98.7984 115.241 98.2707 115.1C97.9935 115.046 97.7221 114.966 97.4602 114.86C97.7411 114.881 98.0196 114.926 98.2925 114.996C98.8365 115.1 99.6035 115.246 100.561 115.41C105.552 116.268 110.628 116.52 115.679 116.16C116.647 116.095 117.43 116.024 117.974 115.97C118.254 115.932 118.536 115.915 118.818 115.921Z" fill="#263238"/>
<path d="M98.7821 125.408C99.2182 124.503 99.7372 123.64 100.332 122.83C100.852 121.969 101.451 121.158 102.122 120.409C101.685 121.315 101.165 122.179 100.566 122.988C100.05 123.849 99.4522 124.66 98.7821 125.408Z" fill="#E0E0E0"/>
<path d="M113.068 126.42C111.685 125 110.441 123.452 109.352 121.796C110.077 122.474 110.736 123.219 111.321 124.021C111.98 124.762 112.564 125.566 113.068 126.42Z" fill="#E0E0E0"/>
<path d="M106.431 134.009C106.118 133.041 105.894 132.047 105.762 131.039C105.535 130.047 105.406 129.036 105.375 128.02C105.689 128.987 105.913 129.981 106.044 130.99C106.265 131.982 106.394 132.993 106.431 134.009Z" fill="#E0E0E0"/>
<path d="M117.338 134.477C116.57 135.432 115.73 136.327 114.825 137.153C113.984 138.048 113.075 138.876 112.105 139.628C112.872 138.673 113.713 137.778 114.618 136.952C115.462 136.061 116.371 135.233 117.338 134.477Z" fill="#E0E0E0"/>
<path d="M102.71 144.65C100.705 143.452 99.0724 141.721 97.9933 139.65C98.0694 139.601 98.9018 140.907 100.213 142.283C101.524 143.66 102.764 144.579 102.71 144.65Z" fill="#E0E0E0"/>
<path d="M107.41 152.505C107.41 152.587 106.17 152.984 104.733 153.751C103.297 154.518 102.247 155.323 102.193 155.252C102.878 154.519 103.695 153.923 104.603 153.495C105.466 152.987 106.419 152.65 107.41 152.505Z" fill="#E0E0E0"/>
<path d="M115.053 153.011C114.729 152.736 114.438 152.424 114.188 152.081C113.688 151.482 113.019 150.628 112.322 149.654C111.626 148.681 111.038 147.772 110.63 147.098C110.388 146.749 110.187 146.373 110.032 145.977C110.321 146.287 110.578 146.626 110.799 146.989L112.556 149.491L114.346 151.961C114.618 152.285 114.855 152.637 115.053 153.011Z" fill="#E0E0E0"/>
<path d="M115.82 159.713C114.763 160.084 113.668 160.339 112.556 160.475C111.456 160.704 110.334 160.815 109.211 160.806C110.297 160.533 111.4 160.33 112.513 160.197C113.605 159.97 114.709 159.809 115.82 159.713Z" fill="#E0E0E0"/>
<path d="M103.444 115.078C103.406 115.078 103.667 114.751 103.89 114.175C104.166 113.42 104.249 112.608 104.13 111.814C103.995 111.013 103.759 110.232 103.428 109.491C103.268 109.187 103.143 108.866 103.058 108.533C103.285 108.794 103.469 109.09 103.602 109.409C103.998 110.146 104.268 110.944 104.402 111.77C104.533 112.614 104.418 113.477 104.07 114.256C103.948 114.587 103.73 114.873 103.444 115.078Z" fill="#E0E0E0"/>
<path d="M111.724 110.606C112.112 111.14 112.389 111.746 112.539 112.389C112.69 113.032 112.71 113.698 112.6 114.349C112.518 114.349 112.507 113.484 112.262 112.456C112.018 111.428 111.664 110.65 111.724 110.606Z" fill="#E0E0E0"/>
<path d="M149.069 153.141L169.687 116.927L172.173 110.644C172.173 110.644 178.603 96.8265 179.049 95.4121C179.566 93.7801 180.475 93.6496 181.062 93.8781C181.976 94.2426 182.27 95.6026 181.867 97.0115C181.726 97.4957 179.229 105.09 179.229 105.09C179.9 104.511 180.613 103.982 181.361 103.507C182.944 102.419 185.844 102.473 188.531 103.431C191.219 104.388 191.882 104.894 191.561 105.949C191.49 106.148 191.376 106.327 191.226 106.475C191.076 106.623 190.895 106.735 190.696 106.804C190.064 107.068 189.354 107.083 188.711 106.847C184.391 105.378 182.476 107.326 182.476 107.326L182.156 108.147C182.156 108.147 185.42 107.108 187.247 108.577C187.52 108.793 187.749 109.058 187.922 109.36C188.513 109.554 189.044 109.898 189.462 110.359C189.879 110.821 190.169 111.383 190.303 111.991C190.436 112.599 190.409 113.231 190.223 113.825C190.037 114.418 189.7 114.954 189.244 115.377C189.046 115.603 188.783 115.763 188.492 115.837C188.201 115.911 187.894 115.895 187.612 115.79C187.348 115.611 187.136 115.365 186.997 115.078C186.909 114.934 186.808 114.797 186.698 114.67L185.468 116.846C185.468 116.846 182.438 121.579 181.35 123.793L167.152 161.617C166.685 162.862 165.975 164.002 165.063 164.969C164.151 165.937 163.055 166.713 161.839 167.253C160.624 167.792 159.313 168.084 157.984 168.111C156.654 168.138 155.332 167.9 154.096 167.411C152.762 166.884 151.556 166.077 150.561 165.044C149.566 164.01 148.804 162.776 148.327 161.423C147.851 160.07 147.67 158.63 147.798 157.201C147.926 155.773 148.36 154.388 149.069 153.141Z" fill="#FFBE9D"/>
<path d="M171.107 116.802C171.836 117.281 172.842 116.955 173.495 116.389C174.148 115.823 174.583 115.045 175.214 114.43C177.047 112.597 180.11 112.423 181.867 110.503C182.112 110.236 182.33 109.828 182.117 109.534C181.905 109.241 181.514 109.295 181.187 109.36L172.75 111.03" fill="#FFBE9D"/>
<path d="M172.75 111.03C173.034 110.902 173.334 110.81 173.642 110.758C174.224 110.612 175.073 110.421 176.117 110.214L179.795 109.436L180.883 109.213C181.302 109.06 181.764 109.076 182.172 109.257C182.288 109.343 182.376 109.462 182.425 109.599C182.473 109.736 182.48 109.884 182.444 110.024C182.388 110.254 182.276 110.467 182.117 110.644C181.833 110.959 181.514 111.24 181.165 111.482C179.762 112.456 178.222 112.853 176.993 113.5C176.406 113.777 175.867 114.144 175.394 114.588C174.958 115.007 174.616 115.486 174.257 115.894C173.998 116.254 173.664 116.553 173.278 116.77C172.892 116.987 172.463 117.117 172.021 117.15C171.373 117.15 171.107 116.829 171.129 116.824C171.412 116.921 171.71 116.967 172.01 116.96C172.411 116.894 172.794 116.745 173.135 116.523C173.476 116.301 173.767 116.011 173.99 115.671C174.339 115.195 174.711 114.738 175.105 114.3C175.598 113.811 176.166 113.403 176.786 113.092C178.054 112.407 179.588 112.004 180.883 111.079C181.195 110.858 181.483 110.604 181.742 110.323C181.981 110.057 182.063 109.736 181.894 109.643C181.726 109.551 181.35 109.594 180.975 109.67L179.887 109.872L176.188 110.552C175.132 110.737 174.278 110.878 173.685 110.965C173.379 111.036 173.063 111.058 172.75 111.03Z" fill="#EB996E"/>
<path d="M182.041 108.158C182.257 107.653 182.589 107.206 183.01 106.852C183.48 106.499 184.053 106.308 184.642 106.308C185.381 106.313 186.116 106.434 186.818 106.668C187.535 106.909 188.275 107.077 189.026 107.168C189.657 107.24 190.296 107.143 190.876 106.885C191.075 106.793 191.251 106.656 191.388 106.484C191.525 106.312 191.62 106.11 191.665 105.895C191.706 105.744 191.706 105.584 191.665 105.433C191.632 105.433 191.632 105.596 191.55 105.868C191.491 106.051 191.392 106.219 191.26 106.36C191.128 106.501 190.968 106.612 190.789 106.684C190.235 106.89 189.639 106.957 189.053 106.88C188.324 106.765 187.606 106.583 186.91 106.336C186.184 106.097 185.423 105.979 184.658 105.988C184.016 106.003 183.397 106.232 182.901 106.64C182.572 106.914 182.319 107.268 182.166 107.668C182.03 107.989 182.02 108.153 182.041 108.158Z" fill="#EB996E"/>
<path d="M182.014 96.4675C181.801 96.9542 181.63 97.4584 181.503 97.9744C181.182 99.0189 180.801 100.259 180.377 101.63C179.952 103.001 179.533 104.23 179.196 105.269C178.999 105.762 178.848 106.272 178.745 106.793C179.015 106.334 179.237 105.849 179.408 105.346C179.767 104.432 180.224 103.17 180.681 101.728C181.138 100.286 181.492 99.008 181.72 98.0343C181.873 97.5238 181.972 96.9986 182.014 96.4675Z" fill="#EB996E"/>
<path d="M183.205 110.432C183.371 110.456 183.54 110.456 183.706 110.432C183.915 110.396 184.129 110.406 184.333 110.46C184.538 110.515 184.728 110.613 184.892 110.748C184.986 110.847 185.054 110.97 185.087 111.103C185.12 111.237 185.119 111.377 185.082 111.509C184.994 111.843 184.865 112.165 184.696 112.467C184.478 112.845 184.406 113.29 184.495 113.718C184.569 113.944 184.695 114.15 184.863 114.319C185.032 114.489 185.237 114.616 185.463 114.692C185.686 114.762 185.921 114.787 186.154 114.763C186.387 114.74 186.613 114.669 186.818 114.556C187.198 114.361 187.511 114.056 187.715 113.68C188.01 113.06 188.211 112.4 188.314 111.721C188.393 111.266 188.393 110.8 188.314 110.345C188.297 110.174 188.23 110.011 188.123 109.877C188.096 109.877 188.167 110.051 188.194 110.361C188.217 110.805 188.179 111.25 188.08 111.683C187.951 112.326 187.739 112.95 187.449 113.538C187.271 113.869 186.99 114.133 186.647 114.287C186.305 114.442 185.921 114.479 185.556 114.392C185.376 114.334 185.213 114.235 185.079 114.103C184.945 113.971 184.843 113.809 184.783 113.631C184.712 113.275 184.772 112.906 184.952 112.592C185.121 112.262 185.249 111.913 185.332 111.553C185.369 111.38 185.361 111.201 185.308 111.032C185.256 110.864 185.161 110.711 185.033 110.59C184.844 110.44 184.623 110.337 184.387 110.287C184.151 110.238 183.906 110.245 183.673 110.307C183.512 110.323 183.354 110.365 183.205 110.432Z" fill="#EB996E"/>
<path d="M186.763 114.24C186.763 114.24 186.66 114.381 186.671 114.686C186.686 114.9 186.751 115.107 186.861 115.291C186.97 115.475 187.121 115.631 187.302 115.747C187.581 115.907 187.897 115.992 188.218 115.992C188.54 115.992 188.856 115.907 189.135 115.747C189.806 115.36 190.301 114.728 190.517 113.984C190.754 113.256 190.754 112.471 190.517 111.743C190.324 111.154 189.976 110.628 189.51 110.22C189.203 109.945 188.847 109.731 188.46 109.589C188.323 109.523 188.172 109.489 188.02 109.491C188.505 109.726 188.955 110.026 189.358 110.383C189.814 110.828 190.137 111.393 190.289 112.012C190.441 112.631 190.416 113.28 190.218 113.886C190.023 114.555 189.587 115.127 188.994 115.491C188.756 115.63 188.488 115.707 188.213 115.715C187.938 115.722 187.666 115.661 187.421 115.535C187.259 115.44 187.119 115.312 187.01 115.159C186.902 115.006 186.827 114.832 186.79 114.648C186.736 114.409 186.79 114.24 186.763 114.24Z" fill="#EB996E"/>
<path d="M179.898 117.656C179.683 117.511 179.429 117.433 179.169 117.433C178.505 117.369 177.839 117.528 177.276 117.885L177.51 118.043C177.583 117.683 177.634 117.32 177.662 116.955C177.853 114.855 177.183 113.234 177.118 113.277C177.327 114.482 177.406 115.706 177.352 116.927C177.326 117.276 177.28 117.623 177.216 117.966L177.151 118.32L177.45 118.119C177.96 117.786 178.555 117.608 179.164 117.607C179.615 117.618 179.887 117.694 179.898 117.656Z" fill="#EB996E"/>
<path d="M184.19 104.753C184.103 104.753 184.223 105.405 184.799 105.906C185.376 106.406 186.023 106.45 186.023 106.357C186.023 106.265 185.507 106.107 185.011 105.667C184.516 105.226 184.277 104.72 184.19 104.753Z" fill="#EB996E"/>
<path d="M119.824 183.192L141.394 183.404L137.776 167.753L138.989 170.707C140.107 173.434 142.011 175.768 144.459 177.409C146.907 179.051 149.788 179.928 152.736 179.928C159.558 179.928 164.274 174.852 167.157 168.673C173.903 154.224 180.404 130.957 180.404 130.957L167.255 119.403C157.735 137.409 148.792 153.044 148.792 153.044C148.792 153.044 146.208 145.194 144.212 138.187C142.215 131.18 142.231 127.503 139.169 124.01C134.452 118.636 127.745 117.303 121.5 115.692L121.266 144.764L119.824 183.192Z" fill="#378D91"/>
<path d="M95.1427 161.568L134.42 169.184L136.329 184.275H76.1082C74.4597 184.295 72.8251 183.971 71.3088 183.324C69.7924 182.677 68.4276 181.721 67.3014 180.517C66.1752 179.313 65.3125 177.888 64.7682 176.332C64.2238 174.776 64.01 173.123 64.1402 171.48C65.0051 160.48 65.9462 146.934 66.6643 141.206C67.2083 136.74 69.0035 132.121 71.1088 128.15C74.1498 122.427 84.2845 115.094 93.168 114.713L94.849 152.124" fill="#378D91"/>
<g opacity="0.4">
<path d="M119.824 183.192L141.394 183.404L137.776 167.753L138.989 170.707C140.107 173.434 142.011 175.768 144.459 177.409C146.907 179.051 149.788 179.928 152.736 179.928C159.558 179.928 164.274 174.852 167.157 168.673C173.903 154.224 180.404 130.957 180.404 130.957L167.255 119.403C157.735 137.409 148.792 153.044 148.792 153.044C148.792 153.044 146.208 145.194 144.212 138.187C142.215 131.18 142.231 127.503 139.169 124.01C134.452 118.636 127.745 117.303 121.5 115.692L121.266 144.764L119.824 183.192Z" fill="black"/>
<path d="M95.1427 161.568L130.568 168.063C131.29 168.197 131.956 168.542 132.482 169.054C133.007 169.566 133.369 170.223 133.522 170.941L136.329 184.307H76.1082C74.4597 184.327 72.8251 184.004 71.3088 183.357C69.7924 182.71 68.4276 181.754 67.3014 180.55C66.1752 179.346 65.3125 177.921 64.7682 176.364C64.2238 174.808 64.01 173.156 64.1402 171.512C65.0051 160.513 65.9462 146.967 66.6643 141.239C67.2083 136.772 69.0035 132.154 71.1088 128.183C74.1498 122.46 84.2845 115.127 93.168 114.746L94.849 152.157" fill="black"/>
</g>
<path d="M87.6627 160.447C87.6487 160.328 87.6487 160.208 87.6627 160.088C87.6627 159.822 87.6627 159.479 87.6627 159.06C87.6627 158.13 87.6627 156.846 87.6627 155.252C87.6627 152.059 87.6029 147.636 87.3581 142.778C87.233 140.341 87.0752 138.024 86.9066 135.924C86.8276 134.06 86.5634 132.208 86.1178 130.397C85.8066 129.188 85.2139 128.069 84.3878 127.133C84.068 126.806 83.7302 126.497 83.376 126.208C83.7913 126.422 84.1682 126.703 84.4912 127.04C85.3719 127.97 86.0059 129.105 86.3354 130.342C86.8105 132.169 87.0949 134.039 87.184 135.924C87.369 138.029 87.5322 140.347 87.6573 142.784C87.9075 147.68 87.9347 152.081 87.8803 155.296C87.8477 156.895 87.8042 158.19 87.7661 159.104L87.7063 160.132C87.7042 160.238 87.6895 160.344 87.6627 160.447Z" fill="#263238"/>
<path d="M133.658 170.272C133.244 169.814 132.761 169.423 132.227 169.113C131.592 168.767 130.919 168.499 130.22 168.314C129.409 168.08 128.457 167.9 127.407 167.688C123.208 166.828 117.414 165.637 110.995 164.424C104.576 163.211 98.7331 162.248 94.5062 161.573L89.496 160.774L88.136 160.545C87.9758 160.526 87.8175 160.493 87.6627 160.447C87.8232 160.448 87.9834 160.463 88.1414 160.491L89.5123 160.665C90.6982 160.823 92.4173 161.062 94.5334 161.378C98.7712 162.009 104.619 162.944 111.044 164.147C117.468 165.349 123.262 166.567 127.445 167.47C128.495 167.699 129.447 167.895 130.263 168.145C130.97 168.345 131.648 168.634 132.282 169.004C132.689 169.234 133.056 169.528 133.37 169.875C133.453 169.961 133.53 170.054 133.598 170.152C133.636 170.218 133.663 170.272 133.658 170.272Z" fill="#263238"/>
<path d="M87.7824 160.447C87.7824 160.496 87.0589 160.665 85.9382 161.122C85.284 161.392 84.648 161.705 84.0342 162.058C83.2921 162.5 82.5847 162.998 81.9181 163.548C81.2699 164.11 80.666 164.721 80.112 165.376C79.6561 165.916 79.2381 166.487 78.8608 167.084C78.2189 168.112 77.9251 168.809 77.8762 168.787C77.91 168.612 77.9667 168.441 78.0448 168.281C78.2301 167.834 78.4446 167.4 78.6867 166.981C79.0499 166.36 79.4591 165.767 79.9107 165.207C81.0274 163.837 82.3933 162.691 83.9363 161.829C84.5613 161.476 85.2146 161.176 85.8893 160.932C86.3431 160.762 86.8085 160.626 87.2819 160.524C87.4444 160.475 87.6128 160.449 87.7824 160.447Z" fill="#263238"/>
<path d="M138.5 169.848C138.462 169.725 138.435 169.599 138.418 169.472C138.374 169.2 138.315 168.841 138.244 168.384C138.092 167.443 137.89 166.083 137.662 164.397C137.205 161.029 136.65 156.362 136.182 151.194C135.714 146.026 135.437 141.337 135.285 137.937C135.208 136.239 135.165 134.863 135.143 133.911C135.143 133.458 135.143 133.095 135.143 132.823C135.131 132.696 135.131 132.569 135.143 132.442C135.172 132.567 135.187 132.695 135.187 132.823L135.257 133.911C135.317 134.89 135.393 136.256 135.491 137.926C135.692 141.32 136.008 146.004 136.47 151.167C136.933 156.329 137.461 160.997 137.869 164.37C138.07 166.034 138.238 167.389 138.358 168.368C138.407 168.82 138.451 169.179 138.483 169.456C138.505 169.585 138.511 169.717 138.5 169.848Z" fill="#263238"/>
<path d="M151.523 164C151.523 164 151.398 163.88 151.207 163.641C150.944 163.293 150.702 162.93 150.484 162.553C149.024 160.061 148.351 157.186 148.553 154.306C148.58 153.872 148.638 153.441 148.727 153.016C148.746 152.858 148.786 152.702 148.846 152.554C148.895 152.554 148.792 153.228 148.754 154.316C148.663 157.156 149.32 159.97 150.658 162.476C151.169 163.418 151.566 163.967 151.523 164Z" fill="#263238"/>
<path d="M87.505 140.232C87.505 140.232 87.4342 140.26 87.3037 140.276C87.1074 140.307 86.9094 140.327 86.7107 140.336C85.981 140.366 85.2503 140.308 84.5347 140.162C83.4719 139.948 82.4344 139.623 81.4394 139.193C80.3133 138.725 79.1165 138.105 77.8653 137.501C76.694 136.913 75.4813 136.411 74.2368 136C73.2269 135.661 72.1773 135.454 71.1142 135.385C70.1295 135.353 69.1454 135.465 68.193 135.717C68.2514 135.678 68.3157 135.649 68.3834 135.63C68.5596 135.553 68.7415 135.489 68.9274 135.44C69.6364 135.25 70.3697 135.165 71.1034 135.189C72.1895 135.223 73.2658 135.406 74.3021 135.733C75.5626 136.139 76.7887 136.645 77.9686 137.246C79.2253 137.866 80.4112 138.475 81.521 138.948C82.4979 139.383 83.5145 139.721 84.5565 139.96C85.5264 140.159 86.5151 140.25 87.505 140.232Z" fill="#FAFAFA"/>
<path d="M94.256 138.91C93.211 139.229 92.1409 139.458 91.0573 139.596C89.9837 139.83 88.8913 139.966 87.7933 140.004C88.8383 139.686 89.9084 139.456 90.992 139.318C92.0655 139.084 93.1579 138.948 94.256 138.91Z" fill="#FAFAFA"/>
<path d="M87.2602 150.585C87.0098 150.726 86.7455 150.841 86.4714 150.927C85.9546 151.129 85.1984 151.401 84.2573 151.705C81.7963 152.495 79.2845 153.117 76.7392 153.566C75.2486 153.827 73.8179 154.017 72.5123 154.148C71.3543 154.297 70.1841 154.328 69.0198 154.24C68.2301 154.176 67.4608 153.956 66.7568 153.593C66.5654 153.493 66.3833 153.377 66.2128 153.245C66.15 153.202 66.0933 153.151 66.0442 153.092C66.0442 153.092 66.3053 153.261 66.8003 153.495C67.5054 153.813 68.2636 153.998 69.0362 154.039C70.1862 154.099 71.3394 154.048 72.4797 153.887C73.7798 153.74 75.1997 153.544 76.6848 153.283C79.2181 152.834 81.7244 152.243 84.192 151.515C85.1386 151.232 85.9002 150.971 86.4278 150.824C86.699 150.724 86.9772 150.644 87.2602 150.585Z" fill="#FAFAFA"/>
<path d="M94.0765 153.452C93.0963 153.607 92.1037 153.671 91.1117 153.642C90.1227 153.704 89.1301 153.673 88.1469 153.549C89.1271 153.394 90.1196 153.33 91.1117 153.359C92.1007 153.297 93.0933 153.328 94.0765 153.452Z" fill="#FAFAFA"/>
<path d="M66.0822 178.236C66.0885 178.136 66.1087 178.037 66.1421 177.942C66.1965 177.725 66.2726 177.458 66.3597 177.126L66.5229 176.539C66.5936 176.327 66.6861 176.104 66.7731 175.859C66.9687 175.303 67.1939 174.758 67.4477 174.227L67.8883 173.297C68.0461 172.97 68.2474 172.655 68.4323 172.317C68.8426 171.604 69.2893 170.912 69.7706 170.245C71.993 167.172 74.8907 164.65 78.2406 162.874C78.9692 162.489 79.7173 162.142 80.4819 161.835C80.8464 161.699 81.1837 161.541 81.5264 161.432L82.511 161.122C83.0751 160.942 83.6491 160.795 84.2301 160.681C84.4858 160.627 84.7197 160.567 84.9373 160.529L85.5466 160.447L86.3843 160.344C86.4817 160.33 86.5807 160.33 86.6781 160.344C86.5853 160.379 86.4884 160.403 86.3898 160.415L85.5629 160.572L84.9645 160.676L84.2627 160.85C83.7622 160.986 83.1747 161.1 82.5709 161.329L81.6026 161.655C81.2653 161.769 80.928 161.927 80.5744 162.068C79.821 162.381 79.0839 162.732 78.3658 163.118C76.7299 164.023 75.1898 165.091 73.769 166.306C72.3656 167.545 71.0899 168.921 69.961 170.413C69.4714 171.121 68.9872 171.784 68.6173 172.453C68.4269 172.785 68.2256 173.095 68.0733 173.416L67.6163 174.33C67.3062 174.907 67.1158 175.462 66.9091 175.962C66.8166 176.202 66.7187 176.425 66.6426 176.631L66.4522 177.208L66.1856 178.008C66.1596 178.087 66.1249 178.164 66.0822 178.236Z" fill="#FAFAFA"/>
<path d="M93.3638 161.524C92.4539 162.315 91.6978 163.267 91.1334 164.332C90.5401 165.496 90.1187 166.74 89.8822 168.025C89.6009 169.606 89.4192 171.203 89.3382 172.807C89.2705 174.423 89.0887 176.031 88.7942 177.621C88.5278 178.925 88.0675 180.181 87.4288 181.348C87.0022 182.13 86.451 182.837 85.7968 183.442C85.6186 183.608 85.4276 183.759 85.2256 183.894C85.0896 183.986 85.0134 184.035 85.008 184.024C85.9344 183.251 86.7059 182.31 87.2819 181.25C87.8846 180.092 88.3171 178.854 88.5658 177.572C88.8554 175.993 89.0371 174.395 89.1098 172.791C89.1804 171.174 89.3622 169.563 89.6538 167.971C89.9071 166.668 90.3545 165.41 90.9811 164.239C91.4087 163.449 91.9596 162.733 92.6131 162.117C92.7843 161.953 92.966 161.801 93.1571 161.66C93.22 161.607 93.2894 161.561 93.3638 161.524Z" fill="#FAFAFA"/>
<path d="M102.65 184.367C102.574 184.367 102.65 179.678 102.851 173.9C103.052 168.123 103.259 163.439 103.335 163.439C103.412 163.439 103.335 168.129 103.134 173.911C102.933 179.694 102.726 184.372 102.65 184.367Z" fill="#FAFAFA"/>
<path d="M117.414 183.562C117.312 183.344 117.232 183.116 117.175 182.882C117.086 182.614 117.012 182.342 116.952 182.066C116.881 181.745 116.783 181.38 116.723 180.978C116.554 180.018 116.458 179.047 116.435 178.073C116.381 175.679 116.75 173.294 117.523 171.028C117.838 170.105 118.222 169.207 118.671 168.341C118.85 167.965 119.052 167.65 119.215 167.367C119.353 167.121 119.506 166.883 119.672 166.654C119.793 166.447 119.937 166.253 120.101 166.078C120.15 166.105 119.557 166.948 118.845 168.433C118.422 169.3 118.058 170.194 117.757 171.11C117.012 173.353 116.644 175.704 116.669 178.068C116.681 179.031 116.756 179.992 116.892 180.945C117.164 182.566 117.469 183.546 117.414 183.562Z" fill="#FAFAFA"/>
<path d="M92.3411 123.439C92.3411 123.483 91.4816 123.107 90.0672 122.65C86.3832 121.461 82.4789 121.115 78.6432 121.638C77.1744 121.84 76.2768 122.068 76.2659 122.019C76.461 121.925 76.6677 121.857 76.8807 121.818C77.4498 121.661 78.0274 121.535 78.6106 121.443C82.4754 120.8 86.44 121.15 90.1325 122.46C90.6873 122.656 91.232 122.879 91.7645 123.129C91.9687 123.208 92.1624 123.312 92.3411 123.439Z" fill="#FAFAFA"/>
<path d="M135.317 146.336C134.644 146.371 133.97 146.36 133.299 146.303C132.053 146.254 130.334 146.189 128.436 146.146C126.537 146.102 124.818 146.075 123.572 146.064C122.899 146.085 122.224 146.062 121.554 145.993C121.732 145.951 121.915 145.929 122.098 145.928C122.446 145.928 122.952 145.879 123.578 145.863C124.823 145.825 126.542 145.814 128.446 145.863C130.35 145.912 132.069 146.01 133.342 146.113C133.963 146.162 134.463 146.205 134.811 146.249C134.982 146.26 135.152 146.289 135.317 146.336Z" fill="#FAFAFA"/>
<path d="M146.056 144.274C146.056 144.323 145.376 144.557 144.315 145.079C141.54 146.444 139.189 148.539 137.515 151.14C136.873 152.135 136.563 152.799 136.519 152.772C136.55 152.6 136.608 152.434 136.693 152.282C136.884 151.85 137.102 151.43 137.346 151.025C138.144 149.68 139.146 148.467 140.316 147.429C141.484 146.389 142.802 145.532 144.228 144.889C144.658 144.695 145.099 144.528 145.55 144.388C145.713 144.329 145.883 144.29 146.056 144.274Z" fill="#FAFAFA"/>
<path d="M140.757 126.839C139.821 126.807 138.885 126.938 137.994 127.225C137.031 127.561 136.097 127.976 135.203 128.466C134.099 129.078 132.945 129.596 131.754 130.016C129.553 130.721 127.211 130.873 124.938 130.457C124.254 130.333 123.583 130.151 122.93 129.913C122.686 129.836 122.451 129.734 122.228 129.608C122.228 129.554 123.251 129.983 124.948 130.261C127.191 130.611 129.483 130.434 131.645 129.744C132.822 129.327 133.966 128.822 135.067 128.232C135.977 127.748 136.93 127.348 137.912 127.035C138.58 126.823 139.278 126.722 139.979 126.736C140.162 126.741 140.343 126.759 140.523 126.79C140.692 126.812 140.763 126.828 140.757 126.839Z" fill="#FAFAFA"/>
<path d="M138.043 163.298C137.845 163.423 137.633 163.524 137.412 163.597C137.205 163.684 136.949 163.788 136.644 163.885C136.34 163.983 135.997 164.114 135.611 164.212C134.7 164.466 133.773 164.658 132.836 164.788C131.69 164.937 130.533 164.997 129.377 164.968C128.221 164.925 127.07 164.796 125.933 164.582C125.011 164.395 124.102 164.146 123.213 163.836C122.827 163.717 122.495 163.57 122.201 163.45C121.908 163.331 121.657 163.216 121.451 163.118C121.234 163.028 121.028 162.915 120.836 162.781C120.836 162.732 121.755 163.167 123.278 163.646C124.17 163.927 125.079 164.152 125.998 164.321C128.248 164.737 130.549 164.807 132.82 164.527C133.747 164.413 134.667 164.243 135.573 164.016C137.107 163.624 138.026 163.249 138.043 163.298Z" fill="#FAFAFA"/>
<path d="M150.544 179.4C150.466 179.351 150.395 179.293 150.332 179.226C150.206 179.101 150 178.932 149.788 178.682C149.131 177.98 148.554 177.206 148.068 176.376C146.499 173.594 145.664 170.458 145.642 167.264C145.646 164.092 146.061 160.934 146.877 157.869C147.171 156.694 147.421 155.747 147.622 155.1C147.715 154.801 147.791 154.556 147.851 154.355C147.911 154.153 147.938 154.093 147.949 154.099C147.948 154.189 147.933 154.279 147.905 154.365C147.862 154.572 147.802 154.822 147.731 155.127C147.568 155.829 147.345 156.759 147.073 157.918C146.322 160.973 145.94 164.107 145.936 167.253C145.953 170.396 146.74 173.487 148.226 176.256C148.692 177.086 149.239 177.867 149.858 178.59C150.288 179.112 150.56 179.379 150.544 179.4Z" fill="#FAFAFA"/>
<path d="M170.34 160.926C169.471 160.237 168.5 159.686 167.462 159.294C166.327 158.901 165.163 158.598 163.98 158.386C162.512 158.138 161.059 157.806 159.628 157.39C157.046 156.55 154.689 155.132 152.736 153.245C152.147 152.675 151.602 152.062 151.104 151.412C150.924 151.183 150.805 150.993 150.718 150.868C150.631 150.742 150.593 150.672 150.603 150.666C150.814 150.878 151.01 151.103 151.191 151.341C151.713 151.962 152.275 152.549 152.872 153.098C154.833 154.918 157.166 156.289 159.71 157.118C161.126 157.531 162.562 157.869 164.013 158.13C165.205 158.359 166.377 158.684 167.516 159.104C168.286 159.395 169.008 159.798 169.66 160.3C169.838 160.434 170.005 160.582 170.16 160.741C170.296 160.861 170.351 160.921 170.34 160.926Z" fill="#FAFAFA"/>
<path d="M176.563 142.773C176.354 142.623 176.159 142.454 175.981 142.267C175.802 142.098 175.584 141.892 175.312 141.663C175.04 141.435 174.768 141.163 174.398 140.901C173.595 140.253 172.751 139.655 171.874 139.112C169.721 137.78 167.382 136.779 164.932 136.141C163.931 135.884 162.916 135.686 161.891 135.548C161.456 135.478 161.059 135.451 160.711 135.418C160.363 135.385 160.058 135.358 159.813 135.347C159.556 135.346 159.3 135.322 159.046 135.276C159.3 135.237 159.557 135.224 159.813 135.238C160.116 135.223 160.419 135.223 160.722 135.238C161.07 135.238 161.478 135.266 161.919 135.325C162.954 135.439 163.981 135.62 164.992 135.869C166.232 136.187 167.446 136.594 168.626 137.088C169.797 137.598 170.928 138.195 172.01 138.872C172.89 139.434 173.731 140.054 174.529 140.727C174.877 141.005 175.16 141.271 175.421 141.532C175.644 141.735 175.856 141.95 176.057 142.174C176.247 142.355 176.416 142.556 176.563 142.773Z" fill="#FAFAFA"/>
<path d="M128.963 117.803C128.644 118.016 128.296 118.183 127.93 118.298C127.071 118.635 126.19 118.908 125.291 119.114C124.396 119.325 123.487 119.471 122.571 119.549C122.193 119.607 121.807 119.607 121.429 119.549C121.429 119.462 123.153 119.321 125.237 118.826C127.32 118.331 128.931 117.722 128.963 117.803Z" fill="#FAFAFA"/>
<path d="M148.259 194.42C148.33 194.663 148.338 194.919 148.284 195.166C148.23 195.413 148.115 195.643 147.95 195.834C147.784 196.025 147.573 196.171 147.337 196.26C147.1 196.348 146.845 196.376 146.594 196.34C146.304 196.299 146.032 196.175 145.812 195.981C145.592 195.788 145.432 195.535 145.354 195.252L144.892 193.544H144.962C145.009 193.791 144.997 194.045 144.927 194.286C144.856 194.527 144.729 194.748 144.557 194.93C144.384 195.113 144.17 195.251 143.933 195.335C143.696 195.418 143.443 195.444 143.194 195.41C142.482 195.41 141.867 194.371 141.66 193.822C141.122 193.874 140.58 193.778 140.093 193.544C139.606 193.31 139.192 192.947 138.897 192.494L135.703 187.511L129.79 183.187L133.37 170.408L146.094 178.644C146.594 179.036 146.67 179.188 147.465 179.933L155.679 187.49C154.749 188.034 153.96 188.006 152.665 187.49C151.371 186.973 145.702 183.138 145.702 183.138L148.259 194.371" fill="#FFBE9D"/>
<path d="M137.373 183.91C137.373 183.91 137.52 183.975 137.749 184.133L138.173 184.427C138.375 184.553 138.558 184.707 138.717 184.884C138.905 185.1 139.053 185.349 139.152 185.618C139.25 185.907 139.354 186.2 139.462 186.51L140.159 188.556C140.643 190.014 141.067 191.33 141.361 192.293C141.547 192.804 141.687 193.33 141.78 193.865C141.533 193.38 141.329 192.874 141.171 192.353C140.828 191.406 140.371 190.101 139.887 188.648C139.653 187.925 139.424 187.234 139.212 186.597C139.114 186.282 139.022 185.983 138.929 185.7C138.848 185.451 138.725 185.217 138.565 185.009C138.427 184.839 138.27 184.686 138.097 184.552L137.705 184.22C137.471 184.035 137.363 183.926 137.373 183.91Z" fill="#EB996E"/>
<path d="M145.028 193.838C144.946 193.664 144.886 193.482 144.848 193.294L144.44 191.836C144.092 190.607 143.629 188.904 143.036 187.049C142.444 185.194 141.823 183.54 141.078 182.517C140.8 182.109 140.448 181.756 140.039 181.478C139.74 181.293 139.549 181.239 139.555 181.206C139.605 181.205 139.655 181.214 139.702 181.234C139.837 181.268 139.969 181.318 140.093 181.38C140.545 181.633 140.937 181.98 141.241 182.398C142.052 183.431 142.705 185.118 143.303 186.962C143.901 188.806 144.337 190.541 144.63 191.787C144.777 192.407 144.886 192.913 144.957 193.267C145.009 193.453 145.033 193.645 145.028 193.838Z" fill="#EB996E"/>
<path d="M148.313 194.611C148.215 194.43 148.14 194.238 148.09 194.039C147.954 193.604 147.786 193.076 147.584 192.451C147.171 191.107 146.621 189.247 146.028 187.19C145.436 185.134 144.94 183.328 144.532 181.914C144.392 181.389 144.087 180.924 143.662 180.586C143.49 180.475 143.308 180.381 143.118 180.303C143.172 180.29 143.228 180.29 143.281 180.303C143.434 180.338 143.579 180.398 143.711 180.483C144.186 180.809 144.537 181.287 144.707 181.837C145.153 183.181 145.68 185.042 146.284 187.098C146.888 189.154 147.399 191.031 147.764 192.386C147.927 193.017 148.068 193.555 148.177 194.018C148.243 194.21 148.289 194.409 148.313 194.611Z" fill="#EB996E"/>
<path d="M225.616 76.6442C225.616 77.0207 225.727 77.3889 225.937 77.702C226.146 78.0151 226.443 78.2591 226.791 78.4032C227.139 78.5474 227.522 78.5851 227.891 78.5116C228.26 78.4381 228.6 78.2568 228.866 77.9905C229.132 77.7242 229.314 77.385 229.387 77.0156C229.461 76.6463 229.423 76.2635 229.279 75.9155C229.135 75.5676 228.891 75.2703 228.577 75.0611C228.264 74.8518 227.896 74.7402 227.52 74.7402C227.015 74.7402 226.53 74.9408 226.173 75.2978C225.816 75.6549 225.616 76.1392 225.616 76.6442Z" fill="#455A64"/>
<path d="M219.898 78.5482C220.95 78.5482 221.802 77.6957 221.802 76.6442C221.802 75.5926 220.95 74.7402 219.898 74.7402C218.847 74.7402 217.994 75.5926 217.994 76.6442C217.994 77.6957 218.847 78.5482 219.898 78.5482Z" fill="#455A64"/>
<path d="M210.395 75.6922C210.206 76.0182 210.119 76.3929 210.143 76.7687C210.168 77.1445 210.303 77.5046 210.532 77.8035C210.761 78.1024 211.074 78.3265 211.431 78.4477C211.787 78.5688 212.172 78.5815 212.536 78.4841C212.899 78.3866 213.226 78.1835 213.474 77.9004C213.723 77.6172 213.882 77.2668 213.931 76.8934C213.98 76.52 213.917 76.1404 213.751 75.8027C213.584 75.4649 213.321 75.1841 212.995 74.9958C212.779 74.8702 212.54 74.7885 212.292 74.7555C212.044 74.7225 211.792 74.7388 211.55 74.8035C211.308 74.8682 211.082 74.98 210.884 75.1325C210.685 75.285 210.519 75.4752 210.395 75.6922Z" fill="#455A64"/>
<path d="M219.779 54.4C219.652 54.3905 219.525 54.3905 219.398 54.4L218.266 54.4326C218.016 54.4326 217.722 54.4326 217.428 54.4707L216.433 54.6122L215.269 54.7808L213.963 55.1018C211.727 55.657 209.597 56.5759 207.658 57.8218C204.791 59.6473 202.379 62.104 200.607 65.0041C198.834 67.9043 197.748 71.1711 197.431 74.5552C197.346 75.5701 197.326 76.5895 197.371 77.607C197.409 78.1184 197.398 78.6461 197.475 79.1629C197.551 79.6797 197.632 80.2074 197.708 80.7351C198.107 82.897 198.822 84.9885 199.83 86.9421C200.904 88.9889 202.269 90.869 203.883 92.5235C205.603 94.2144 207.573 95.6292 209.725 96.7178C211.952 97.8572 214.363 98.5939 216.846 98.8938C217.475 98.9875 218.109 99.0402 218.745 99.0515C219.384 99.0997 220.025 99.1124 220.665 99.0896C221.957 99.0363 223.242 98.8743 224.506 98.6054C227.235 98.0141 229.831 96.9202 232.16 95.3795L231.932 95.4067L239.727 98.5347L240.189 98.7197L240.059 98.241L237.763 89.9069L237.725 90.1082C239.841 87.306 241.267 84.0444 241.887 80.5882C242.185 78.9744 242.287 77.3305 242.191 75.6922C242.173 74.9063 242.098 74.1228 241.968 73.3475C241.91 72.9631 241.85 72.5823 241.789 72.2051C241.724 71.8298 241.609 71.4653 241.517 71.1171C240.211 65.9919 237.126 61.4977 232.813 58.4365C231.221 57.2971 229.48 56.3818 227.639 55.7165L226.47 55.2976L225.382 55.0147L224.37 54.7645C224.044 54.7046 223.728 54.672 223.434 54.623C222.847 54.5523 222.346 54.449 221.873 54.4272L220.731 54.3891H220.029C219.949 54.3833 219.869 54.3833 219.789 54.3891C219.867 54.4138 219.948 54.4248 220.029 54.4218L220.725 54.4816L221.862 54.5578C222.314 54.5904 222.825 54.7046 223.412 54.7917C227.644 55.5269 231.572 57.4748 234.718 60.3988C237.864 63.3228 240.093 67.0973 241.136 71.264C241.218 71.623 241.332 71.9821 241.397 72.352C241.462 72.7219 241.506 73.0918 241.566 73.4726C241.69 74.2337 241.759 75.0027 241.772 75.7738C241.858 77.3746 241.752 78.9799 241.457 80.5555C240.825 83.936 239.411 87.1218 237.328 89.8579L237.257 89.9504L237.29 90.0646C238.015 92.7556 238.773 95.5355 239.564 98.4042L239.896 98.1104L232.1 94.9715L231.98 94.9226L231.866 94.9933C228.523 97.2085 224.635 98.4618 220.627 98.6163C220.001 98.6382 219.375 98.6273 218.75 98.5837C218.129 98.5724 217.51 98.5197 216.895 98.4259C214.467 98.1321 212.11 97.4121 209.932 96.2989C207.827 95.2336 205.897 93.8521 204.209 92.2026C202.627 90.5904 201.286 88.7582 200.227 86.7626C199.245 84.8451 198.548 82.7943 198.16 80.6752C198.078 80.1312 197.997 79.647 197.921 79.1357C197.844 78.6243 197.855 78.113 197.817 77.607C197.766 76.6098 197.781 75.6104 197.861 74.615C198.157 71.2841 199.208 68.0643 200.934 65.1999C202.66 62.3355 205.015 59.9016 207.821 58.0829C209.726 56.8228 211.822 55.8786 214.028 55.2867L215.312 54.944L216.466 54.7536L217.456 54.5904C217.76 54.5578 218.038 54.5469 218.283 54.5306L219.409 54.449C219.533 54.4457 219.657 54.4293 219.779 54.4Z" fill="#455A64"/>
</svg>
