<svg width="20" height="20" viewBox="0 0 20 20" fill="none" xmlns="http://www.w3.org/2000/svg">
<path fill-rule="evenodd" clip-rule="evenodd" d="M17.07 5.2C18.5059 5.2 19.67 4.03594 19.67 2.6C19.67 1.16406 18.5059 0 17.07 0C15.634 0 14.47 1.16406 14.47 2.6C14.4673 3.29038 14.7404 3.95325 15.2285 4.44143C15.7167 4.9296 16.3796 5.20267 17.07 5.2ZM17.07 1.51C17.5158 1.51002 17.9175 1.77912 18.0872 2.19139C18.2568 2.60366 18.1609 3.07757 17.8442 3.39136C17.5275 3.70516 17.0527 3.79678 16.642 3.62337C16.2313 3.44995 15.9659 3.0458 15.97 2.6C15.97 2.30917 16.0862 2.0304 16.2928 1.8257C16.4993 1.62099 16.7792 1.50733 17.07 1.51Z" fill="black"/>
<path d="M18.64 5.98C18.2258 5.98 17.89 6.31579 17.89 6.73V14.73C17.8845 16.6828 16.3028 18.2645 14.35 18.27H5C3.04719 18.2645 1.46549 16.6828 1.46 14.73V5.34C1.46549 3.38719 3.04719 1.80549 5 1.8H12.92C13.3342 1.8 13.67 1.46421 13.67 1.05C13.67 0.635786 13.3342 0.3 12.92 0.3H5C2.23858 0.3 0 2.53858 0 5.3V14.65C0 15.9761 0.526784 17.2479 1.46447 18.1855C2.40215 19.1232 3.67392 19.65 5 19.65H14.35C17.1114 19.65 19.35 17.4114 19.35 14.65V6.65C19.307 6.2841 19.0078 6.00172 18.64 5.98Z" fill="black"/>
<path fill-rule="evenodd" clip-rule="evenodd" d="M6.7 5.43C8.0132 4.46522 9.71125 4.19338 11.26 4.7C12.6324 5.16672 13.7507 6.1801 14.35 7.5C14.8769 8.60046 15.0515 9.83666 14.85 11.04C14.7072 11.9548 14.055 12.708 13.17 12.98C12.4154 13.2029 11.5993 13.0299 11 12.52C10.5757 12.7803 10.0878 12.9187 9.59 12.92C9.34683 12.916 9.10506 12.8824 8.87 12.82C7.36275 12.3329 6.53175 10.7201 7.01 9.21C7.36043 7.95636 8.47933 7.07174 9.78 7.02C10.0235 7.01878 10.266 7.05245 10.5 7.12C12.0071 7.60677 12.835 9.22234 12.35 10.73C12.2769 10.9739 12.1762 11.2088 12.05 11.43C12.2614 11.5644 12.5218 11.5974 12.76 11.52C13.0981 11.414 13.3439 11.1213 13.39 10.77C13.5387 9.87286 13.4096 8.9517 13.02 8.13C12.5913 7.18663 11.7913 6.4627 10.81 6.13C9.71476 5.761 8.50826 5.9515 7.58 6.64C6.5155 7.43635 5.89208 8.69061 5.9 10.02C5.82668 12.1759 7.50482 13.9879 9.66 14.08C9.85892 14.0826 10.0486 14.1642 10.1874 14.3067C10.3262 14.4493 10.4027 14.6411 10.4 14.84C10.4 15.038 10.3207 15.2278 10.1797 15.3668C10.0388 15.5059 9.84799 15.5827 9.65 15.58C6.67285 15.4767 4.3325 12.9982 4.4 10.02C4.39039 8.21066 5.24489 6.50538 6.7 5.43ZM9.26999 11.39C9.37282 11.4044 9.47715 11.4044 9.57999 11.39C9.82427 11.3815 10.0607 11.3015 10.26 11.16C10.5965 10.9567 10.8404 10.6303 10.94 10.25C11.0543 9.87126 11.0185 9.46305 10.84 9.11C10.6965 8.81233 10.4357 8.58773 10.12 8.49C10.0169 8.48088 9.91312 8.48088 9.80999 8.49C9.14272 8.50606 8.57671 8.98468 8.44999 9.64C8.19523 10.3496 8.56169 11.1317 9.26999 11.39Z" fill="black"/>
</svg>
