<svg width="24" height="24" viewBox="0 0 24 24" fill="none" xmlns="http://www.w3.org/2000/svg">
<g id="User/Two-Person">
<g id="Icon">
<path d="M8.91985 12H8.99985C11.209 12 12.9998 10.2091 12.9998 8V6.43C12.9972 5.53273 12.6369 4.67356 11.9987 4.04286C11.3605 3.41216 10.4971 3.06201 9.59985 3.07H8.27985C6.42645 3.07549 4.92534 4.5766 4.91985 6.43V8C4.91985 10.2091 6.71071 12 8.91985 12Z" fill="#B58E54"/>
<path d="M17.4999 11.25C19.1567 11.25 20.4998 9.90685 20.4998 8.25V7.1C20.4999 5.71602 19.3838 4.59098 17.9998 4.58H16.9999C15.6159 4.59098 14.4998 5.71602 14.4999 7.1V8.25C14.4999 9.90685 15.843 11.25 17.4999 11.25Z" fill="#B58E54"/>
<path d="M22.3898 15.42L22.2298 14.63C22.0407 13.5455 21.1007 12.753 19.9998 12.75H13.8998C13.1544 12.7516 12.4595 13.1272 12.0498 13.75H4.99984C4.29252 13.7505 3.6124 14.0226 3.09984 14.51C2.65948 14.9135 2.34958 15.4393 2.20984 16.02C2.20984 16.07 2.20984 16.12 2.20984 16.16V16.42L1.99984 17.22C1.78596 18.0952 1.97676 19.0202 2.51952 19.7394C3.06228 20.4586 3.89951 20.8957 4.79984 20.93H13.0798C13.2923 20.9293 13.5039 20.9024 13.7098 20.85H13.8398C13.9901 20.8072 14.1372 20.7537 14.2798 20.69L14.4398 20.6C14.5592 20.5326 14.6729 20.4557 14.7798 20.37L14.9398 20.24C15.0382 20.1483 15.1317 20.0515 15.2198 19.95C15.2198 19.9 15.3098 19.86 15.3498 19.8C15.4616 19.6532 15.5587 19.4957 15.6398 19.33C15.6825 19.2391 15.7192 19.1456 15.7498 19.05C15.7892 18.9589 15.8226 18.8654 15.8498 18.77C15.8498 18.67 15.8998 18.57 15.9198 18.47V18.32H20.1998C20.906 18.2991 21.5645 17.9589 21.9903 17.3952C22.416 16.8314 22.563 16.1049 22.3898 15.42Z" fill="#B58E54"/>
</g>
</g>
</svg>
