<svg width="16" height="20" viewBox="0 0 16 20" fill="none" xmlns="http://www.w3.org/2000/svg">
<path d="M12.6396 20H3.35961C2.34878 19.9633 1.40717 19.477 0.791953 18.6742C0.176732 17.8713 -0.0478276 16.8356 0.179606 15.85L0.419606 14.71C0.695641 13.1668 2.02223 12.0327 3.58961 12H12.4096C13.977 12.0327 15.3036 13.1668 15.5796 14.71L15.8196 15.85C16.047 16.8356 15.8225 17.8713 15.2073 18.6742C14.592 19.477 13.6504 19.9633 12.6396 20Z" fill="#378D91"/>
<path d="M8.49961 10H7.49961C5.29047 10 3.49961 8.20915 3.49961 6.00001V3.36001C3.49694 2.46807 3.85008 1.61189 4.48078 0.981192C5.11148 0.350491 5.96766 -0.00265152 6.85961 1.49917e-05H9.13961C10.0315 -0.00265152 10.8877 0.350491 11.5184 0.981192C12.1491 1.61189 12.5023 2.46807 12.4996 3.36001V6.00001C12.4996 7.06088 12.0782 8.0783 11.328 8.82844C10.5779 9.57859 9.56047 10 8.49961 10Z" fill="#378D91"/>
</svg>
